<svg width="342" height="367" viewBox="0 0 342 367" fill="none" xmlns="http://www.w3.org/2000/svg">
<mask id="mask0_49_240" style="mask-type:luminance" maskUnits="userSpaceOnUse" x="0" y="74" width="342" height="250">
<path d="M0 74.2344H342V323.568H0V74.2344Z" fill="white"/>
</mask>
<g mask="url(#mask0_49_240)">
<path fill-rule="evenodd" clip-rule="evenodd" d="M313.839 322.969H28.042C12.5732 322.969 -0.00488281 310.396 -0.00488281 294.927V102.979C-0.00488281 87.5156 12.5732 74.9375 28.042 74.9375H74.292C76.6149 74.9375 78.4951 76.8177 78.4951 79.1354C78.4951 81.4583 76.6149 83.3385 74.292 83.3385H28.042C17.2087 83.3385 8.40658 92.151 8.40658 102.979V294.927C8.40658 305.755 17.2087 314.573 28.042 314.573H313.839C324.667 314.573 333.474 305.755 333.474 294.938V102.979C333.474 92.151 324.672 83.3385 313.839 83.3385H267.589C265.266 83.3385 263.386 81.4583 263.386 79.1354C263.386 76.8177 265.266 74.9375 267.589 74.9375H313.839C329.308 74.9375 341.886 87.5208 341.886 102.979V294.927C341.886 310.396 329.308 322.969 313.839 322.969Z" fill="white"/>
</g>
<mask id="mask1_49_240" style="mask-type:luminance" maskUnits="userSpaceOnUse" x="69" y="0" width="204" height="253">
<path d="M69.6152 0H272.282V252.901H69.6152V0Z" fill="white"/>
</mask>
<g mask="url(#mask1_49_240)">
<path fill-rule="evenodd" clip-rule="evenodd" d="M78.4954 244.323H263.386V8.46891H78.4954V244.323ZM267.589 252.724H74.2871C71.9642 252.724 70.084 250.844 70.084 248.521V4.271C70.084 1.94808 71.9642 0.0678711 74.2871 0.0678711H267.589C269.907 0.0678711 271.787 1.94808 271.787 4.271V248.521C271.787 249.636 271.35 250.709 270.563 251.49C269.782 252.281 268.709 252.724 267.589 252.724Z" fill="white"/>
</g>
<path fill-rule="evenodd" clip-rule="evenodd" d="M246.553 120.776H95.3288C93.0111 120.776 91.1309 118.896 91.1309 116.578C91.1309 114.26 93.0111 112.375 95.3288 112.375H246.553C248.87 112.375 250.756 114.26 250.756 116.578C250.756 118.896 248.87 120.776 246.553 120.776Z" fill="white"/>
<path fill-rule="evenodd" clip-rule="evenodd" d="M99.5264 83.8594H154.729V28.651H99.5264V83.8594ZM158.938 92.2604H95.3337C93.016 92.2604 91.1357 90.3802 91.1357 88.0625V24.4531C91.1357 22.1302 93.016 20.25 95.3337 20.25H158.948C161.266 20.25 163.146 22.1302 163.146 24.4531V88.0625C163.141 90.3802 161.256 92.2604 158.938 92.2604Z" fill="white"/>
<path fill-rule="evenodd" clip-rule="evenodd" d="M246.552 28.6618H174.688C172.365 28.6618 170.484 26.7816 170.484 24.4587C170.484 22.141 172.365 20.2607 174.688 20.2607H246.552C248.87 20.2607 250.755 22.141 250.755 24.4587C250.755 26.7712 248.87 28.6618 246.552 28.6618Z" fill="white"/>
<path fill-rule="evenodd" clip-rule="evenodd" d="M246.552 60.4587H174.688C172.365 60.4587 170.484 58.5785 170.484 56.2555C170.484 53.9378 172.365 52.0576 174.688 52.0576H246.552C248.87 52.0576 250.755 53.9378 250.755 56.2555C250.755 58.5785 248.87 60.4587 246.552 60.4587Z" fill="white"/>
<path fill-rule="evenodd" clip-rule="evenodd" d="M246.552 92.2604H174.688C172.365 92.2604 170.484 90.3802 170.484 88.0625C170.484 85.7396 172.365 83.8594 174.688 83.8594H246.552C248.87 83.8594 250.755 85.7396 250.755 88.0625C250.755 90.3802 248.87 92.2604 246.552 92.2604Z" fill="white"/>
<path fill-rule="evenodd" clip-rule="evenodd" d="M246.553 158.031H95.3288C93.0111 158.031 91.1309 156.151 91.1309 153.833C91.1309 151.511 93.0111 149.63 95.3288 149.63H246.553C248.87 149.63 250.756 151.511 250.756 153.833C250.756 156.151 248.87 158.031 246.553 158.031Z" fill="white"/>
<path fill-rule="evenodd" clip-rule="evenodd" d="M246.553 195.287H95.3288C93.0111 195.287 91.1309 193.407 91.1309 191.084C91.1309 188.766 93.0111 186.886 95.3288 186.886H246.553C248.87 186.886 250.756 188.766 250.756 191.084C250.756 193.407 248.87 195.287 246.553 195.287Z" fill="white"/>
<path fill-rule="evenodd" clip-rule="evenodd" d="M246.553 232.542H95.3288C93.0111 232.542 91.1309 230.656 91.1309 228.339C91.1309 226.021 93.0111 224.141 95.3288 224.141H246.553C248.87 224.141 250.756 226.021 250.756 228.339C250.756 230.656 248.87 232.542 246.553 232.542Z" fill="white"/>
<path fill-rule="evenodd" clip-rule="evenodd" d="M315.552 302.407H26.3285C22.3701 302.407 19.167 299.198 19.167 295.25V102.677C19.167 98.7295 22.3701 95.516 26.3285 95.516H74.292C76.6097 95.516 78.4899 97.4014 78.4899 99.7191C78.4899 102.037 76.6097 103.917 74.292 103.917H27.568V294.011H314.323V103.912H267.599C265.276 103.912 263.396 102.032 263.396 99.7087C263.396 97.391 265.276 95.5107 267.599 95.5107H315.563C319.516 95.5107 322.724 98.7243 322.724 102.672V295.24C322.724 299.198 319.511 302.407 315.552 302.407Z" fill="white"/>
<mask id="mask2_49_240" style="mask-type:luminance" maskUnits="userSpaceOnUse" x="74" y="314" width="193" height="53">
<path d="M74.9482 314.234H266.948V367H74.9482V314.234Z" fill="white"/>
</mask>
<g mask="url(#mask2_49_240)">
<path fill-rule="evenodd" clip-rule="evenodd" d="M262.157 367.057H79.7246C77.8339 367.057 76.1725 365.792 75.6777 363.964C75.1725 362.141 75.9537 360.208 77.5839 359.24C82.1464 356.521 86.136 354.208 89.6516 352.172C101.141 345.5 107.475 341.823 110.047 338.125C112.402 334.75 112.402 330.182 112.391 320.161V318.76C112.391 316.443 114.271 314.562 116.594 314.562C118.912 314.562 120.792 316.443 120.792 318.76V320.151C120.803 331.26 120.803 337.391 116.949 342.927C113.438 347.958 107.271 351.646 95.235 358.635H246.662C234.631 351.646 228.464 347.958 224.954 342.927C221.089 337.385 221.1 331.26 221.11 320.151V318.76C221.11 316.443 222.99 314.562 225.308 314.562C227.626 314.562 229.511 316.443 229.511 318.76V320.161C229.501 330.182 229.501 334.75 231.855 338.125C234.417 341.818 240.751 345.5 252.245 352.172C255.766 354.208 259.745 356.521 264.318 359.24C265.943 360.198 266.719 362.13 266.225 363.964C265.699 365.792 264.047 367.057 262.157 367.057Z" fill="white"/>
</g>
</svg>
