<svg xmlns="http://www.w3.org/2000/svg" xmlns:xlink="http://www.w3.org/1999/xlink" width="1080" zoomAndPan="magnify" viewBox="0 0 810 809.999993" height="1080" preserveAspectRatio="xMidYMid meet" version="1.0"><defs><clipPath id="ae9c9ebeda"><path d="M 331 220.652344 L 583 220.652344 L 583 589.652344 L 331 589.652344 Z M 331 220.652344 " clip-rule="nonzero"/></clipPath><clipPath id="b3ebacbcc8"><path d="M 228 333 L 402 333 L 402 589.652344 L 228 589.652344 Z M 228 333 " clip-rule="nonzero"/></clipPath></defs><g clip-path="url(#ae9c9ebeda)"><path fill="#ffffff" d="M 578.703125 553.464844 L 537.894531 489.136719 L 537.894531 395.097656 L 560.492188 385.808594 C 566.648438 383.265625 571.4375 378.214844 573.652344 371.945312 C 575.863281 365.679688 575.273438 358.714844 572.027344 352.886719 L 546.519531 306.917969 C 541.578125 298 533.320312 291.472656 523.589844 288.488281 C 526.246094 282.515625 527.71875 275.917969 527.71875 268.988281 C 527.71875 242.335938 506.042969 220.660156 479.390625 220.660156 C 452.738281 220.660156 431.0625 242.335938 431.0625 268.988281 C 431.0625 280.121094 434.859375 290.367188 441.199219 298.550781 L 402.789062 297.59375 L 375.839844 243.550781 C 370.089844 232.050781 356.046875 227.367188 344.507812 233.117188 C 338.941406 235.921875 334.773438 240.710938 332.785156 246.609375 C 330.792969 252.507812 331.273438 258.847656 334.039062 264.453125 L 366.917969 330.179688 C 370.496094 337.296875 377.316406 342.085938 385.242188 342.933594 L 432.242188 348.097656 L 432.242188 424.109375 L 411.191406 493.671875 C 409.753906 498.390625 409.867188 503.367188 411.488281 508.046875 L 434.160156 573.554688 C 437.402344 582.953125 446.289062 589.292969 456.242188 589.292969 C 458.820312 589.292969 461.402344 588.851562 463.871094 588.003906 C 469.769531 585.976562 474.523438 581.738281 477.253906 576.132812 C 479.980469 570.53125 480.347656 564.191406 478.320312 558.292969 L 458.121094 499.9375 C 460.441406 492.160156 469.472656 461.820312 471.6875 455.148438 C 472.535156 452.566406 473.75 452.125 474.339844 452.050781 C 474.5625 452.089844 474.488281 452.050781 474.820312 452.050781 L 488.71875 452.050781 C 489.121094 452.050781 489.050781 452.089844 489.34375 452.050781 C 489.417969 452.050781 489.453125 452.050781 489.492188 452.050781 C 489.601562 452.164062 489.933594 452.824219 489.96875 454.335938 L 491.371094 496.914062 C 491.519531 501.082031 492.773438 505.136719 494.984375 508.675781 L 539.257812 578.492188 C 543.570312 585.277344 550.941406 589.332031 558.980469 589.332031 C 563.402344 589.332031 567.714844 588.078125 571.476562 585.683594 C 576.746094 582.328125 580.398438 577.167969 581.761719 571.046875 C 583.125 565 582.054688 558.734375 578.703125 553.464844 Z M 479.425781 232.601562 C 499.519531 232.601562 515.847656 248.933594 515.847656 269.023438 C 515.847656 289.113281 499.519531 305.445312 479.425781 305.445312 C 459.335938 305.445312 443.007812 289.113281 443.007812 269.023438 C 443.007812 248.933594 459.335938 232.601562 479.425781 232.601562 Z M 565.136719 575.65625 C 563.292969 576.835938 561.191406 577.425781 559.015625 577.425781 C 555.070312 577.425781 551.421875 575.433594 549.320312 572.117188 L 505.046875 502.296875 C 503.941406 500.5625 503.351562 498.574219 503.277344 496.546875 L 501.878906 453.96875 C 501.691406 448.035156 499.222656 444.753906 497.234375 443.019531 C 493.878906 440.144531 490.007812 440.070312 488.53125 440.183594 L 475.078125 440.183594 C 471.132812 439.960938 463.539062 441.988281 460.40625 451.460938 C 457.824219 459.277344 446.691406 496.839844 446.214844 498.425781 C 445.84375 499.605469 445.882812 500.894531 446.289062 502.074219 L 467.078125 562.238281 C 468.074219 565.113281 467.890625 568.246094 466.5625 570.972656 C 465.234375 573.738281 462.875 575.804688 460 576.796875 C 458.785156 577.203125 457.53125 577.425781 456.277344 577.425781 C 451.410156 577.425781 447.0625 574.328125 445.4375 569.71875 L 422.769531 504.214844 C 421.957031 501.929688 421.921875 499.496094 422.621094 497.136719 L 443.929688 426.726562 C 444.113281 426.171875 444.1875 425.582031 444.1875 424.992188 L 444.1875 342.789062 C 444.1875 339.765625 441.902344 337.222656 438.878906 336.890625 L 386.566406 331.140625 C 382.699219 330.695312 379.304688 328.375 377.574219 324.871094 L 344.691406 259.144531 C 343.328125 256.417969 343.105469 253.28125 344.0625 250.40625 C 345.023438 247.496094 347.085938 245.136719 349.816406 243.773438 C 355.457031 240.933594 362.347656 243.257812 365.1875 248.894531 L 393.832031 306.144531 C 394.824219 308.097656 396.816406 309.390625 398.992188 309.425781 L 455.28125 310.863281 C 462.398438 314.992188 470.617188 317.351562 479.425781 317.351562 C 494.6875 317.351562 508.292969 310.238281 517.175781 299.140625 C 525.285156 300.691406 532.214844 305.628906 536.160156 312.707031 L 561.671875 358.675781 C 563.253906 361.515625 563.550781 364.941406 562.445312 368.039062 C 561.375 371.136719 559.015625 373.605469 555.992188 374.859375 L 500.292969 397.714844 C 498.890625 398.304688 497.417969 398.5625 495.941406 398.5625 C 491.261719 398.5625 487.09375 395.761719 485.324219 391.449219 C 482.929688 385.585938 485.730469 378.914062 491.59375 376.519531 L 529.191406 361.109375 C 530.777344 360.484375 531.996094 359.191406 532.546875 357.570312 C 533.101562 355.984375 532.953125 354.214844 532.140625 352.703125 L 519.867188 330.550781 C 518.28125 327.675781 514.667969 326.640625 511.792969 328.226562 C 508.917969 329.8125 507.886719 333.425781 509.472656 336.300781 L 518.503906 352.59375 L 487.09375 365.460938 C 475.1875 370.363281 469.472656 384 474.339844 395.910156 C 477.953125 404.71875 486.429688 410.394531 495.941406 410.394531 C 498.964844 410.394531 501.949219 409.804688 504.789062 408.625 L 525.984375 399.925781 L 525.984375 490.796875 C 525.984375 491.9375 526.316406 493.042969 526.90625 493.964844 L 568.636719 559.765625 C 572.027344 565.1875 570.445312 572.265625 565.136719 575.65625 Z M 565.136719 575.65625 " fill-opacity="1" fill-rule="nonzero"/></g><g clip-path="url(#b3ebacbcc8)"><path fill="#ffffff" d="M 393.644531 386.949219 C 389.222656 383.375 383.65625 381.714844 377.980469 382.304688 C 372.300781 382.894531 367.214844 385.660156 363.640625 390.082031 L 340.378906 418.800781 L 321.023438 412.71875 C 330.941406 404.496094 337.28125 392.074219 337.28125 378.175781 C 337.28125 353.441406 317.152344 333.3125 292.417969 333.3125 C 267.683594 333.3125 247.554688 353.441406 247.554688 378.175781 C 247.554688 387.578125 250.46875 396.3125 255.445312 403.539062 C 233.105469 446.335938 232.882812 521.578125 239.777344 543.84375 C 240.332031 545.574219 241.621094 546.976562 243.316406 547.640625 C 243.390625 547.675781 243.464844 547.675781 243.539062 547.710938 L 234.617188 556.375 C 227.757812 563.011719 226.875 573.8125 232.550781 581.515625 C 236.3125 586.605469 242.101562 589.296875 247.996094 589.296875 C 251.941406 589.296875 255.921875 588.078125 259.351562 585.570312 L 268.050781 579.15625 L 330.203125 586.492188 C 335.550781 587.121094 340.894531 586.015625 345.539062 583.25 C 351.179688 579.929688 355.195312 574.585938 356.820312 568.246094 C 358.441406 561.90625 357.519531 555.308594 354.203125 549.667969 L 345.871094 535.546875 C 346.570312 534.957031 347.160156 534.332031 347.714844 533.742188 C 349.039062 532.191406 349.519531 530.09375 348.929688 528.136719 C 346.976562 521.539062 337.835938 490.648438 328.730469 459.828125 L 341.484375 463.8125 C 343.546875 464.476562 345.6875 464.804688 347.859375 464.804688 C 354.3125 464.804688 360.359375 461.929688 364.449219 456.917969 L 396.851562 416.957031 C 400.429688 412.535156 402.085938 406.96875 401.496094 401.289062 C 400.871094 395.613281 398.105469 390.527344 393.644531 386.949219 Z M 292.417969 345.257812 C 310.59375 345.257812 325.375 360.039062 325.375 378.214844 C 325.375 396.386719 310.59375 411.171875 292.417969 411.171875 C 274.246094 411.171875 259.460938 396.386719 259.460938 378.214844 C 259.460938 360.039062 274.246094 345.257812 292.417969 345.257812 Z M 343.953125 555.75 C 345.6875 558.660156 346.164062 562.054688 345.316406 565.332031 C 344.46875 568.613281 342.40625 571.34375 339.492188 573.074219 C 337.097656 574.476562 334.371094 575.066406 331.605469 574.734375 L 267.128906 567.140625 C 265.617188 566.957031 264.105469 567.359375 262.890625 568.246094 L 252.3125 576.0625 C 249.066406 578.457031 244.53125 577.757812 242.136719 574.511719 C 240 571.601562 240.332031 567.507812 242.910156 564.964844 L 256.808594 551.472656 C 263.8125 552.835938 271.148438 553.464844 278.519531 553.464844 C 300.195312 553.464844 322.019531 548.230469 335.695312 541.777344 Z M 387.5625 409.472656 L 355.160156 449.433594 C 352.765625 452.382812 348.671875 453.636719 344.984375 452.492188 L 321.578125 445.160156 C 319.476562 444.496094 317.191406 445.046875 315.640625 446.597656 C 314.09375 448.144531 313.503906 450.429688 314.132812 452.53125 C 323.050781 482.648438 332.820312 515.640625 336.433594 527.878906 C 324.675781 535.953125 282.539062 548.265625 250.394531 537.574219 C 244.902344 514.242188 246.558594 450.28125 263.996094 412.902344 C 271.738281 419.28125 281.65625 423.078125 292.417969 423.078125 C 297.46875 423.078125 302.335938 422.230469 306.867188 420.679688 C 307.089844 420.792969 307.273438 420.902344 307.496094 420.976562 L 340.671875 431.371094 C 342.996094 432.109375 345.539062 431.335938 347.085938 429.453125 L 372.890625 397.605469 C 374.476562 395.652344 376.726562 394.433594 379.230469 394.175781 C 381.738281 393.917969 384.207031 394.65625 386.164062 396.242188 C 388.117188 397.824219 389.332031 400.074219 389.589844 402.582031 C 389.886719 405.050781 389.148438 407.519531 387.5625 409.472656 Z M 387.5625 409.472656 " fill-opacity="1" fill-rule="nonzero"/></g></svg>