<svg xmlns="http://www.w3.org/2000/svg" xmlns:xlink="http://www.w3.org/1999/xlink" width="1080" zoomAndPan="magnify" viewBox="0 0 810 809.999993" height="1080" preserveAspectRatio="xMidYMid meet" version="1.0"><path fill="#ffffff" d="M 404.976562 307.253906 C 406.011719 307.253906 407.042969 307.203125 408.070312 307.101562 C 409.097656 307.003906 410.121094 306.851562 411.136719 306.648438 C 412.148438 306.445312 413.152344 306.195312 414.140625 305.894531 C 415.128906 305.597656 416.101562 305.25 417.054688 304.851562 C 418.011719 304.457031 418.945312 304.015625 419.855469 303.527344 C 420.769531 303.039062 421.65625 302.507812 422.515625 301.933594 C 423.375 301.359375 424.203125 300.746094 425.003906 300.089844 C 425.800781 299.433594 426.566406 298.742188 427.296875 298.007812 C 428.027344 297.277344 428.722656 296.511719 429.378906 295.714844 C 430.035156 294.914062 430.648438 294.085938 431.222656 293.226562 C 431.796875 292.367188 432.328125 291.480469 432.816406 290.570312 C 433.304688 289.65625 433.746094 288.722656 434.140625 287.769531 C 434.535156 286.8125 434.882812 285.839844 435.183594 284.851562 C 435.484375 283.863281 435.734375 282.859375 435.9375 281.847656 C 436.136719 280.832031 436.289062 279.8125 436.390625 278.78125 C 436.492188 277.753906 436.542969 276.722656 436.542969 275.6875 C 436.542969 274.65625 436.492188 273.625 436.390625 272.59375 C 436.289062 271.566406 436.136719 270.542969 435.9375 269.53125 C 435.734375 268.515625 435.484375 267.515625 435.183594 266.523438 C 434.882812 265.535156 434.535156 264.5625 434.140625 263.609375 C 433.746094 262.652344 433.304688 261.71875 432.816406 260.808594 C 432.328125 259.894531 431.796875 259.011719 431.222656 258.152344 C 430.648438 257.289062 430.035156 256.460938 429.378906 255.664062 C 428.722656 254.863281 428.027344 254.097656 427.296875 253.367188 C 426.566406 252.636719 425.800781 251.941406 425.003906 251.285156 C 424.203125 250.628906 423.375 250.015625 422.515625 249.441406 C 421.65625 248.867188 420.769531 248.335938 419.855469 247.847656 C 418.945312 247.359375 418.011719 246.917969 417.054688 246.523438 C 416.101562 246.128906 415.128906 245.78125 414.140625 245.480469 C 413.152344 245.179688 412.148438 244.929688 411.136719 244.726562 C 410.121094 244.527344 409.097656 244.375 408.070312 244.273438 C 407.042969 244.171875 406.011719 244.121094 404.976562 244.121094 C 403.941406 244.121094 402.910156 244.171875 401.882812 244.273438 C 400.851562 244.375 399.832031 244.527344 398.816406 244.726562 C 397.804688 244.929688 396.800781 245.179688 395.8125 245.480469 C 394.824219 245.78125 393.851562 246.128906 392.894531 246.523438 C 391.941406 246.917969 391.007812 247.363281 390.097656 247.847656 C 389.183594 248.335938 388.296875 248.867188 387.4375 249.441406 C 386.578125 250.015625 385.75 250.628906 384.949219 251.285156 C 384.152344 251.941406 383.386719 252.636719 382.65625 253.367188 C 381.925781 254.097656 381.230469 254.863281 380.574219 255.664062 C 379.917969 256.460938 379.304688 257.289062 378.730469 258.152344 C 378.15625 259.011719 377.625 259.894531 377.136719 260.808594 C 376.648438 261.71875 376.207031 262.652344 375.8125 263.609375 C 375.417969 264.5625 375.070312 265.535156 374.769531 266.523438 C 374.46875 267.515625 374.21875 268.515625 374.015625 269.53125 C 373.8125 270.542969 373.664062 271.566406 373.5625 272.59375 C 373.460938 273.625 373.410156 274.65625 373.410156 275.6875 C 373.410156 276.722656 373.464844 277.753906 373.566406 278.78125 C 373.667969 279.808594 373.820312 280.832031 374.023438 281.84375 C 374.226562 282.855469 374.476562 283.859375 374.777344 284.847656 C 375.082031 285.835938 375.429688 286.808594 375.824219 287.761719 C 376.222656 288.714844 376.664062 289.648438 377.152344 290.558594 C 377.636719 291.472656 378.167969 292.355469 378.742188 293.214844 C 379.316406 294.074219 379.933594 294.902344 380.589844 295.703125 C 381.246094 296.5 381.9375 297.265625 382.667969 297.996094 C 383.398438 298.726562 384.164062 299.417969 384.964844 300.074219 C 385.761719 300.730469 386.589844 301.347656 387.449219 301.921875 C 388.308594 302.496094 389.195312 303.027344 390.105469 303.515625 C 391.015625 304 391.949219 304.445312 392.902344 304.839844 C 393.859375 305.234375 394.828125 305.585938 395.816406 305.886719 C 396.808594 306.1875 397.808594 306.4375 398.820312 306.640625 C 399.835938 306.84375 400.855469 306.996094 401.882812 307.097656 C 402.910156 307.203125 403.941406 307.253906 404.976562 307.253906 Z M 404.976562 256.082031 C 405.617188 256.082031 406.257812 256.113281 406.898438 256.175781 C 407.535156 256.238281 408.171875 256.335938 408.800781 256.460938 C 409.429688 256.585938 410.054688 256.742188 410.667969 256.925781 C 411.28125 257.113281 411.886719 257.328125 412.480469 257.574219 C 413.074219 257.820312 413.652344 258.09375 414.21875 258.398438 C 414.785156 258.699219 415.335938 259.03125 415.867188 259.386719 C 416.402344 259.742188 416.917969 260.125 417.414062 260.53125 C 417.910156 260.941406 418.386719 261.371094 418.839844 261.824219 C 419.292969 262.277344 419.722656 262.753906 420.132812 263.25 C 420.539062 263.746094 420.921875 264.261719 421.277344 264.796875 C 421.632812 265.328125 421.964844 265.878906 422.265625 266.445312 C 422.570312 267.011719 422.84375 267.59375 423.089844 268.1875 C 423.335938 268.777344 423.550781 269.382812 423.738281 269.996094 C 423.925781 270.613281 424.078125 271.234375 424.207031 271.863281 C 424.332031 272.492188 424.425781 273.128906 424.488281 273.765625 C 424.550781 274.40625 424.582031 275.046875 424.582031 275.6875 C 424.582031 276.332031 424.550781 276.972656 424.488281 277.609375 C 424.425781 278.25 424.332031 278.882812 424.207031 279.511719 C 424.078125 280.144531 423.925781 280.765625 423.738281 281.378906 C 423.550781 281.992188 423.335938 282.597656 423.089844 283.191406 C 422.84375 283.785156 422.570312 284.363281 422.265625 284.929688 C 421.964844 285.496094 421.632812 286.046875 421.277344 286.582031 C 420.921875 287.113281 420.539062 287.628906 420.132812 288.125 C 419.722656 288.621094 419.292969 289.097656 418.839844 289.550781 C 418.386719 290.003906 417.910156 290.4375 417.414062 290.84375 C 416.917969 291.25 416.402344 291.632812 415.867188 291.988281 C 415.335938 292.347656 414.785156 292.675781 414.21875 292.980469 C 413.652344 293.28125 413.074219 293.554688 412.480469 293.800781 C 411.886719 294.046875 411.28125 294.261719 410.667969 294.449219 C 410.054688 294.636719 409.429688 294.792969 408.800781 294.917969 C 408.171875 295.042969 407.535156 295.136719 406.898438 295.199219 C 406.257812 295.261719 405.617188 295.292969 404.976562 295.292969 C 404.335938 295.292969 403.695312 295.261719 403.054688 295.199219 C 402.414062 295.136719 401.78125 295.042969 401.152344 294.917969 C 400.523438 294.792969 399.898438 294.636719 399.285156 294.449219 C 398.671875 294.261719 398.066406 294.046875 397.472656 293.800781 C 396.878906 293.554688 396.300781 293.28125 395.734375 292.980469 C 395.167969 292.675781 394.617188 292.347656 394.085938 291.988281 C 393.550781 291.632812 393.035156 291.25 392.539062 290.84375 C 392.042969 290.4375 391.566406 290.003906 391.113281 289.550781 C 390.660156 289.097656 390.226562 288.621094 389.820312 288.125 C 389.414062 287.628906 389.03125 287.113281 388.675781 286.582031 C 388.316406 286.046875 387.988281 285.496094 387.6875 284.929688 C 387.382812 284.363281 387.109375 283.785156 386.863281 283.191406 C 386.617188 282.597656 386.402344 281.992188 386.214844 281.378906 C 386.027344 280.765625 385.871094 280.144531 385.746094 279.511719 C 385.621094 278.882812 385.527344 278.25 385.464844 277.609375 C 385.402344 276.972656 385.371094 276.332031 385.371094 275.6875 C 385.371094 275.046875 385.402344 274.40625 385.46875 273.765625 C 385.53125 273.128906 385.625 272.496094 385.75 271.863281 C 385.878906 271.234375 386.035156 270.613281 386.21875 270 C 386.40625 269.386719 386.625 268.78125 386.871094 268.1875 C 387.117188 267.597656 387.390625 267.015625 387.691406 266.449219 C 387.996094 265.886719 388.324219 265.335938 388.683594 264.800781 C 389.039062 264.269531 389.421875 263.753906 389.828125 263.257812 C 390.234375 262.761719 390.667969 262.285156 391.121094 261.832031 C 391.574219 261.378906 392.050781 260.949219 392.546875 260.539062 C 393.042969 260.132812 393.554688 259.75 394.089844 259.394531 C 394.625 259.039062 395.171875 258.707031 395.738281 258.40625 C 396.304688 258.101562 396.882812 257.828125 397.476562 257.582031 C 398.070312 257.335938 398.671875 257.117188 399.289062 256.933594 C 399.902344 256.746094 400.523438 256.589844 401.152344 256.464844 C 401.78125 256.335938 402.417969 256.242188 403.054688 256.179688 C 403.695312 256.117188 404.335938 256.082031 404.976562 256.082031 Z M 404.976562 256.082031 " fill-opacity="1" fill-rule="nonzero"/><path fill="#ffffff" d="M 290.246094 336.132812 C 289.851562 336.128906 289.460938 336.164062 289.070312 336.238281 C 288.683594 336.3125 288.308594 336.425781 287.941406 336.574219 C 287.578125 336.722656 287.230469 336.90625 286.902344 337.121094 C 286.570312 337.339844 286.265625 337.585938 285.984375 337.863281 C 285.703125 338.140625 285.453125 338.441406 285.234375 338.769531 C 285.011719 339.097656 284.824219 339.441406 284.671875 339.804688 C 284.519531 340.167969 284.402344 340.542969 284.324219 340.929688 C 284.246094 341.316406 284.207031 341.707031 284.207031 342.101562 L 284.207031 363.335938 C 284.230469 363.710938 284.289062 364.082031 284.382812 364.449219 C 284.476562 364.816406 284.601562 365.167969 284.765625 365.511719 C 284.925781 365.851562 285.117188 366.175781 285.335938 366.480469 C 285.558594 366.789062 285.808594 367.070312 286.082031 367.328125 C 286.359375 367.585938 286.65625 367.816406 286.976562 368.019531 C 287.292969 368.222656 287.628906 368.390625 287.980469 368.53125 C 288.332031 368.671875 288.691406 368.773438 289.0625 368.847656 C 289.433594 368.917969 289.808594 368.953125 290.1875 368.953125 C 290.5625 368.953125 290.9375 368.917969 291.308594 368.847656 C 291.679688 368.773438 292.042969 368.671875 292.390625 368.53125 C 292.742188 368.390625 293.078125 368.222656 293.398438 368.019531 C 293.714844 367.816406 294.011719 367.585938 294.289062 367.328125 C 294.5625 367.070312 294.8125 366.789062 295.035156 366.480469 C 295.257812 366.175781 295.449219 365.851562 295.609375 365.511719 C 295.769531 365.167969 295.898438 364.816406 295.992188 364.449219 C 296.085938 364.082031 296.144531 363.710938 296.167969 363.335938 L 296.167969 342.101562 C 296.167969 341.710938 296.128906 341.324219 296.054688 340.941406 C 295.976562 340.5625 295.867188 340.1875 295.71875 339.828125 C 295.570312 339.46875 295.386719 339.125 295.171875 338.800781 C 294.953125 338.476562 294.710938 338.175781 294.433594 337.898438 C 294.160156 337.621094 293.863281 337.375 293.539062 337.15625 C 293.214844 336.9375 292.875 336.753906 292.515625 336.601562 C 292.15625 336.449219 291.785156 336.335938 291.402344 336.253906 C 291.019531 336.175781 290.636719 336.136719 290.246094 336.132812 Z M 290.246094 336.132812 " fill-opacity="1" fill-rule="nonzero"/><path fill="#ffffff" d="M 321.574219 297.675781 C 322.609375 297.675781 323.640625 297.625 324.671875 297.523438 C 325.699219 297.421875 326.71875 297.273438 327.734375 297.070312 C 328.75 296.867188 329.75 296.617188 330.738281 296.316406 C 331.730469 296.015625 332.703125 295.667969 333.65625 295.273438 C 334.613281 294.878906 335.546875 294.4375 336.457031 293.949219 C 337.367188 293.460938 338.253906 292.929688 339.113281 292.355469 C 339.972656 291.78125 340.804688 291.167969 341.601562 290.511719 C 342.402344 289.855469 343.167969 289.160156 343.898438 288.429688 C 344.628906 287.699219 345.320312 286.933594 345.976562 286.136719 C 346.632812 285.335938 347.25 284.507812 347.824219 283.648438 C 348.398438 282.789062 348.929688 281.902344 349.414062 280.992188 C 349.902344 280.078125 350.34375 279.144531 350.742188 278.191406 C 351.136719 277.234375 351.484375 276.261719 351.785156 275.273438 C 352.085938 274.285156 352.335938 273.28125 352.535156 272.269531 C 352.738281 271.253906 352.890625 270.234375 352.992188 269.203125 C 353.09375 268.175781 353.144531 267.144531 353.144531 266.109375 C 353.144531 265.074219 353.09375 264.042969 352.992188 263.015625 C 352.890625 261.988281 352.738281 260.964844 352.535156 259.953125 C 352.335938 258.9375 352.085938 257.9375 351.785156 256.945312 C 351.484375 255.957031 351.136719 254.984375 350.742188 254.03125 C 350.34375 253.074219 349.902344 252.140625 349.414062 251.230469 C 348.929688 250.316406 348.398438 249.429688 347.824219 248.570312 C 347.25 247.710938 346.632812 246.882812 345.976562 246.082031 C 345.320312 245.285156 344.628906 244.519531 343.898438 243.789062 C 343.167969 243.058594 342.402344 242.363281 341.601562 241.707031 C 340.804688 241.050781 339.972656 240.4375 339.113281 239.863281 C 338.253906 239.289062 337.367188 238.757812 336.457031 238.269531 C 335.546875 237.78125 334.613281 237.339844 333.65625 236.945312 C 332.703125 236.550781 331.730469 236.203125 330.738281 235.902344 C 329.75 235.601562 328.75 235.351562 327.734375 235.148438 C 326.71875 234.949219 325.699219 234.796875 324.671875 234.695312 C 323.640625 234.59375 322.609375 234.542969 321.574219 234.542969 C 320.542969 234.542969 319.511719 234.59375 318.480469 234.695312 C 317.453125 234.796875 316.433594 234.949219 315.417969 235.148438 C 314.402344 235.351562 313.402344 235.601562 312.414062 235.902344 C 311.421875 236.203125 310.449219 236.550781 309.496094 236.945312 C 308.539062 237.339844 307.605469 237.78125 306.695312 238.269531 C 305.785156 238.757812 304.898438 239.289062 304.039062 239.863281 C 303.179688 240.4375 302.347656 241.050781 301.550781 241.707031 C 300.75 242.363281 299.984375 243.058594 299.253906 243.789062 C 298.523438 244.519531 297.832031 245.285156 297.175781 246.082031 C 296.519531 246.882812 295.902344 247.710938 295.328125 248.570312 C 294.753906 249.429688 294.222656 250.316406 293.738281 251.230469 C 293.25 252.140625 292.808594 253.074219 292.410156 254.03125 C 292.015625 254.984375 291.667969 255.957031 291.367188 256.945312 C 291.066406 257.9375 290.816406 258.9375 290.617188 259.953125 C 290.414062 260.964844 290.261719 261.988281 290.160156 263.015625 C 290.058594 264.042969 290.007812 265.074219 290.007812 266.109375 C 290.011719 267.144531 290.0625 268.175781 290.164062 269.203125 C 290.265625 270.230469 290.417969 271.253906 290.621094 272.265625 C 290.820312 273.28125 291.074219 274.28125 291.375 275.269531 C 291.675781 276.257812 292.023438 277.230469 292.417969 278.1875 C 292.8125 279.140625 293.257812 280.074219 293.742188 280.984375 C 294.230469 281.898438 294.761719 282.78125 295.335938 283.640625 C 295.910156 284.5 296.527344 285.332031 297.183594 286.128906 C 297.835938 286.929688 298.53125 287.691406 299.261719 288.425781 C 299.992188 289.15625 300.757812 289.847656 301.554688 290.503906 C 302.355469 291.160156 303.183594 291.773438 304.042969 292.347656 C 304.902344 292.925781 305.789062 293.453125 306.699219 293.941406 C 307.613281 294.429688 308.542969 294.871094 309.5 295.265625 C 310.453125 295.664062 311.425781 296.011719 312.414062 296.3125 C 313.40625 296.613281 314.40625 296.863281 315.417969 297.066406 C 316.433594 297.269531 317.453125 297.421875 318.484375 297.523438 C 319.511719 297.625 320.542969 297.675781 321.574219 297.675781 Z M 321.574219 285.714844 C 320.933594 285.714844 320.292969 285.683594 319.65625 285.621094 C 319.015625 285.558594 318.382812 285.464844 317.75 285.339844 C 317.121094 285.214844 316.5 285.058594 315.886719 284.871094 C 315.269531 284.683594 314.667969 284.46875 314.074219 284.222656 C 313.480469 283.976562 312.902344 283.703125 312.335938 283.398438 C 311.769531 283.097656 311.21875 282.769531 310.683594 282.410156 C 310.148438 282.054688 309.636719 281.671875 309.136719 281.265625 C 308.640625 280.859375 308.167969 280.425781 307.714844 279.972656 C 307.257812 279.519531 306.828125 279.042969 306.421875 278.546875 C 306.011719 278.050781 305.632812 277.535156 305.273438 277 C 304.917969 276.46875 304.589844 275.917969 304.285156 275.351562 C 303.984375 274.785156 303.707031 274.207031 303.464844 273.613281 C 303.21875 273.019531 303 272.414062 302.816406 271.800781 C 302.628906 271.1875 302.472656 270.5625 302.347656 269.933594 C 302.222656 269.304688 302.128906 268.671875 302.066406 268.03125 C 302.003906 267.390625 301.96875 266.75 301.96875 266.109375 C 301.96875 265.46875 302.003906 264.828125 302.066406 264.1875 C 302.128906 263.550781 302.222656 262.914062 302.347656 262.285156 C 302.472656 261.65625 302.628906 261.03125 302.816406 260.417969 C 303 259.804688 303.21875 259.199219 303.464844 258.605469 C 303.707031 258.015625 303.984375 257.433594 304.285156 256.867188 C 304.589844 256.300781 304.917969 255.75 305.273438 255.21875 C 305.632812 254.683594 306.011719 254.167969 306.421875 253.671875 C 306.828125 253.175781 307.257812 252.699219 307.714844 252.246094 C 308.167969 251.792969 308.640625 251.363281 309.136719 250.953125 C 309.636719 250.546875 310.148438 250.164062 310.683594 249.808594 C 311.21875 249.453125 311.769531 249.121094 312.335938 248.820312 C 312.902344 248.515625 313.480469 248.242188 314.074219 247.996094 C 314.667969 247.75 315.269531 247.535156 315.886719 247.347656 C 316.5 247.160156 317.121094 247.007812 317.75 246.882812 C 318.382812 246.753906 319.015625 246.660156 319.65625 246.597656 C 320.292969 246.535156 320.933594 246.503906 321.574219 246.503906 C 322.21875 246.503906 322.859375 246.535156 323.496094 246.597656 C 324.136719 246.660156 324.769531 246.753906 325.402344 246.882812 C 326.03125 247.007812 326.652344 247.160156 327.265625 247.347656 C 327.882812 247.535156 328.484375 247.75 329.078125 247.996094 C 329.671875 248.242188 330.25 248.515625 330.816406 248.820312 C 331.382812 249.121094 331.933594 249.453125 332.46875 249.808594 C 333.003906 250.164062 333.515625 250.546875 334.015625 250.953125 C 334.511719 251.363281 334.984375 251.792969 335.4375 252.246094 C 335.894531 252.699219 336.324219 253.175781 336.730469 253.671875 C 337.140625 254.167969 337.519531 254.683594 337.878906 255.21875 C 338.234375 255.75 338.5625 256.300781 338.867188 256.867188 C 339.167969 257.433594 339.445312 258.015625 339.6875 258.605469 C 339.933594 259.199219 340.152344 259.804688 340.335938 260.417969 C 340.523438 261.03125 340.679688 261.65625 340.804688 262.285156 C 340.929688 262.914062 341.023438 263.550781 341.085938 264.1875 C 341.148438 264.828125 341.183594 265.46875 341.183594 266.109375 C 341.179688 266.75 341.148438 267.390625 341.085938 268.03125 C 341.023438 268.667969 340.925781 269.304688 340.800781 269.933594 C 340.675781 270.5625 340.519531 271.183594 340.332031 271.796875 C 340.144531 272.414062 339.929688 273.015625 339.683594 273.609375 C 339.4375 274.203125 339.164062 274.78125 338.859375 275.347656 C 338.558594 275.914062 338.226562 276.460938 337.871094 276.996094 C 337.511719 277.53125 337.132812 278.042969 336.722656 278.539062 C 336.316406 279.039062 335.886719 279.511719 335.433594 279.964844 C 334.980469 280.417969 334.503906 280.851562 334.007812 281.257812 C 333.511719 281.664062 332.996094 282.046875 332.460938 282.402344 C 331.929688 282.761719 331.378906 283.089844 330.8125 283.394531 C 330.246094 283.695312 329.667969 283.96875 329.074219 284.214844 C 328.480469 284.460938 327.878906 284.679688 327.265625 284.867188 C 326.652344 285.050781 326.027344 285.207031 325.398438 285.335938 C 324.769531 285.460938 324.136719 285.554688 323.496094 285.617188 C 322.859375 285.683594 322.21875 285.714844 321.574219 285.714844 Z M 321.574219 285.714844 " fill-opacity="1" fill-rule="nonzero"/><path fill="#ffffff" d="M 265.921875 369.398438 C 266.3125 369.398438 266.703125 369.359375 267.085938 369.285156 C 267.472656 369.207031 267.847656 369.09375 268.207031 368.945312 C 268.570312 368.792969 268.917969 368.609375 269.242188 368.394531 C 269.570312 368.175781 269.871094 367.929688 270.148438 367.652344 C 270.429688 367.375 270.675781 367.074219 270.894531 366.746094 C 271.113281 366.421875 271.300781 366.078125 271.449219 365.714844 C 271.601562 365.351562 271.714844 364.980469 271.792969 364.59375 C 271.871094 364.210938 271.910156 363.820312 271.914062 363.429688 L 271.914062 324.453125 C 271.917969 323.734375 272.027344 323.027344 272.242188 322.339844 C 272.457031 321.652344 272.769531 321.007812 273.179688 320.414062 C 273.585938 319.820312 274.070312 319.296875 274.636719 318.847656 C 275.199219 318.398438 275.820312 318.042969 276.492188 317.777344 L 295.152344 310.558594 C 296.101562 311.457031 297.09375 312.304688 298.128906 313.101562 C 299.164062 313.898438 300.234375 314.640625 301.347656 315.328125 C 302.457031 316.015625 303.597656 316.644531 304.773438 317.214844 C 305.949219 317.785156 307.148438 318.296875 308.375 318.742188 C 309.601562 319.191406 310.851562 319.578125 312.117188 319.898438 C 313.382812 320.21875 314.660156 320.476562 315.953125 320.667969 C 317.246094 320.859375 318.542969 320.984375 319.847656 321.042969 C 321.152344 321.101562 322.457031 321.09375 323.761719 321.019531 C 325.066406 320.945312 326.363281 320.804688 327.652344 320.597656 C 328.941406 320.390625 330.21875 320.117188 331.480469 319.78125 C 332.742188 319.445312 333.984375 319.046875 335.203125 318.582031 C 336.425781 318.117188 337.621094 317.59375 338.789062 317.007812 C 339.957031 316.425781 341.089844 315.78125 342.195312 315.082031 C 343.296875 314.378906 344.359375 313.625 345.386719 312.816406 C 346.410156 312.007812 347.390625 311.148438 348.328125 310.238281 C 349.265625 309.328125 350.15625 308.375 350.996094 307.375 C 351.25 307.074219 351.46875 306.75 351.660156 306.40625 C 351.847656 306.0625 352.003906 305.703125 352.121094 305.328125 C 352.238281 304.953125 352.320312 304.574219 352.363281 304.183594 C 352.40625 303.792969 352.410156 303.402344 352.375 303.011719 C 352.34375 302.617188 352.269531 302.234375 352.160156 301.859375 C 352.050781 301.480469 351.90625 301.117188 351.726562 300.769531 C 351.542969 300.421875 351.332031 300.09375 351.085938 299.789062 C 350.839844 299.480469 350.566406 299.203125 350.265625 298.949219 C 349.964844 298.695312 349.644531 298.476562 349.300781 298.285156 C 348.953125 298.097656 348.597656 297.945312 348.222656 297.824219 C 347.847656 297.707031 347.464844 297.625 347.074219 297.582031 C 346.683594 297.539062 346.292969 297.535156 345.902344 297.570312 C 345.511719 297.605469 345.128906 297.675781 344.75 297.785156 C 344.375 297.894531 344.011719 298.042969 343.664062 298.222656 C 343.3125 298.402344 342.988281 298.617188 342.679688 298.863281 C 342.375 299.109375 342.09375 299.382812 341.84375 299.683594 C 340.601562 301.160156 339.214844 302.488281 337.679688 303.664062 C 336.148438 304.835938 334.507812 305.832031 332.753906 306.648438 C 331.003906 307.460938 329.1875 308.078125 327.300781 308.496094 C 325.414062 308.914062 323.507812 309.121094 321.574219 309.121094 C 319.644531 309.121094 317.738281 308.914062 315.851562 308.496094 C 313.964844 308.078125 312.148438 307.460938 310.398438 306.648438 C 308.644531 305.832031 307.003906 304.835938 305.472656 303.664062 C 303.9375 302.488281 302.550781 301.160156 301.308594 299.683594 C 300.746094 299 300.0625 298.472656 299.261719 298.09375 C 298.460938 297.71875 297.617188 297.53125 296.734375 297.535156 C 295.988281 297.539062 295.273438 297.679688 294.585938 297.960938 L 272.171875 306.617188 C 271.28125 306.96875 270.417969 307.382812 269.589844 307.859375 C 268.757812 308.339844 267.96875 308.878906 267.21875 309.472656 C 266.46875 310.070312 265.765625 310.71875 265.113281 311.421875 C 264.460938 312.121094 263.863281 312.867188 263.320312 313.660156 C 262.78125 314.449219 262.300781 315.277344 261.882812 316.136719 C 261.464844 317 261.113281 317.890625 260.828125 318.804688 C 260.539062 319.71875 260.324219 320.648438 260.179688 321.597656 C 260.03125 322.542969 259.957031 323.496094 259.953125 324.453125 L 259.953125 363.429688 C 259.953125 363.820312 259.988281 364.210938 260.066406 364.59375 C 260.144531 364.980469 260.257812 365.351562 260.40625 365.714844 C 260.554688 366.074219 260.738281 366.421875 260.957031 366.746094 C 261.175781 367.070312 261.421875 367.375 261.699219 367.648438 C 261.976562 367.925781 262.277344 368.175781 262.605469 368.394531 C 262.929688 368.609375 263.273438 368.792969 263.636719 368.945312 C 264 369.09375 264.371094 369.207031 264.757812 369.285156 C 265.140625 369.359375 265.527344 369.398438 265.921875 369.398438 Z M 265.921875 369.398438 " fill-opacity="1" fill-rule="nonzero"/><path fill="#ffffff" d="M 348.308594 421.421875 L 285.621094 421.421875 C 285.226562 421.421875 284.835938 421.457031 284.453125 421.535156 C 284.066406 421.613281 283.691406 421.726562 283.328125 421.875 C 282.964844 422.027344 282.617188 422.210938 282.292969 422.429688 C 281.964844 422.648438 281.660156 422.898438 281.382812 423.175781 C 281.105469 423.453125 280.855469 423.757812 280.636719 424.082031 C 280.417969 424.410156 280.234375 424.757812 280.085938 425.121094 C 279.933594 425.484375 279.820312 425.859375 279.742188 426.242188 C 279.667969 426.628906 279.628906 427.019531 279.628906 427.414062 L 279.628906 538.488281 C 279.628906 538.878906 279.667969 539.269531 279.746094 539.652344 C 279.824219 540.039062 279.941406 540.410156 280.089844 540.773438 C 280.242188 541.136719 280.425781 541.480469 280.644531 541.804688 C 280.867188 542.132812 281.113281 542.433594 281.390625 542.710938 C 281.667969 542.988281 281.972656 543.234375 282.300781 543.453125 C 282.625 543.667969 282.96875 543.851562 283.332031 544.003906 C 283.695312 544.152344 284.070312 544.265625 284.453125 544.34375 C 284.839844 544.417969 285.226562 544.457031 285.621094 544.457031 L 348.308594 544.457031 C 348.699219 544.457031 349.085938 544.417969 349.472656 544.339844 C 349.855469 544.265625 350.230469 544.152344 350.589844 544.003906 C 350.953125 543.851562 351.296875 543.667969 351.621094 543.449219 C 351.949219 543.234375 352.25 542.984375 352.527344 542.707031 C 352.804688 542.429688 353.050781 542.128906 353.269531 541.804688 C 353.488281 541.476562 353.671875 541.132812 353.820312 540.773438 C 353.972656 540.410156 354.085938 540.035156 354.160156 539.652344 C 354.238281 539.269531 354.277344 538.878906 354.277344 538.488281 L 354.277344 427.414062 C 354.277344 427.019531 354.238281 426.632812 354.160156 426.246094 C 354.085938 425.863281 353.972656 425.488281 353.820312 425.125 C 353.671875 424.761719 353.488281 424.417969 353.269531 424.089844 C 353.054688 423.765625 352.804688 423.460938 352.527344 423.183594 C 352.25 422.90625 351.949219 422.65625 351.625 422.4375 C 351.300781 422.21875 350.953125 422.035156 350.59375 421.882812 C 350.230469 421.730469 349.855469 421.617188 349.472656 421.539062 C 349.085938 421.460938 348.699219 421.421875 348.308594 421.421875 Z M 342.3125 532.496094 L 291.589844 532.496094 L 291.589844 433.40625 L 342.3125 433.40625 Z M 342.3125 532.496094 " fill-opacity="1" fill-rule="nonzero"/><path fill="#ffffff" d="M 576.402344 563.210938 L 555.6875 563.210938 L 555.6875 447.609375 L 577.226562 421.066406 C 578.992188 418.996094 580.316406 416.671875 581.199219 414.097656 C 582.082031 411.523438 582.464844 408.875 582.347656 406.15625 C 582.320312 405.503906 582.265625 404.855469 582.179688 404.210938 C 582.089844 403.566406 581.972656 402.925781 581.824219 402.289062 C 581.675781 401.65625 581.5 401.03125 581.289062 400.414062 C 581.082031 399.792969 580.84375 399.1875 580.578125 398.59375 C 580.308594 398 580.015625 397.417969 579.695312 396.851562 C 579.371094 396.285156 579.023438 395.738281 578.648438 395.203125 C 578.273438 394.671875 577.871094 394.15625 577.449219 393.664062 C 577.023438 393.167969 576.578125 392.695312 576.109375 392.242188 C 575.636719 391.792969 575.148438 391.363281 574.636719 390.957031 C 574.125 390.554688 573.597656 390.175781 573.050781 389.820312 C 572.503906 389.464844 571.941406 389.140625 571.363281 388.839844 C 570.785156 388.539062 570.191406 388.269531 569.585938 388.023438 C 568.984375 387.78125 568.367188 387.566406 567.742188 387.382812 C 567.117188 387.199219 566.484375 387.042969 565.84375 386.921875 C 565.207031 386.796875 564.5625 386.703125 563.914062 386.644531 C 563.265625 386.582031 562.613281 386.550781 561.960938 386.550781 L 466.625 386.550781 L 466.625 334.03125 C 466.621094 333.074219 466.542969 332.121094 466.398438 331.175781 C 466.25 330.226562 466.035156 329.296875 465.75 328.382812 C 465.464844 327.46875 465.113281 326.578125 464.695312 325.714844 C 464.277344 324.855469 463.796875 324.027344 463.253906 323.238281 C 462.710938 322.445312 462.113281 321.699219 461.460938 321 C 460.808594 320.296875 460.105469 319.648438 459.355469 319.050781 C 458.605469 318.457031 457.816406 317.917969 456.988281 317.441406 C 456.15625 316.960938 455.296875 316.546875 454.402344 316.195312 L 431.988281 307.515625 C 431.289062 307.253906 430.566406 307.117188 429.820312 307.113281 C 428.9375 307.117188 428.097656 307.304688 427.296875 307.675781 C 426.5 308.046875 425.8125 308.566406 425.242188 309.238281 C 424.003906 310.71875 422.617188 312.050781 421.085938 313.226562 C 419.554688 314.402344 417.914062 315.398438 416.160156 316.214844 C 414.410156 317.03125 412.589844 317.644531 410.703125 318.0625 C 408.816406 318.476562 406.910156 318.679688 404.976562 318.675781 C 403.046875 318.675781 401.140625 318.46875 399.253906 318.054688 C 397.371094 317.636719 395.554688 317.023438 393.804688 316.207031 C 392.058594 315.390625 390.417969 314.394531 388.886719 313.21875 C 387.355469 312.042969 385.972656 310.71875 384.734375 309.238281 C 384.167969 308.558594 383.484375 308.03125 382.683594 307.65625 C 381.882812 307.28125 381.039062 307.09375 380.15625 307.089844 C 379.410156 307.09375 378.6875 307.230469 377.988281 307.492188 L 355.574219 316.171875 C 354.679688 316.523438 353.820312 316.9375 352.988281 317.417969 C 352.160156 317.894531 351.371094 318.433594 350.621094 319.027344 C 349.871094 319.625 349.167969 320.273438 348.515625 320.976562 C 347.863281 321.675781 347.265625 322.421875 346.722656 323.214844 C 346.179688 324.003906 345.699219 324.832031 345.28125 325.691406 C 344.863281 326.554688 344.511719 327.445312 344.226562 328.359375 C 343.941406 329.273438 343.726562 330.203125 343.578125 331.152344 C 343.433594 332.097656 343.355469 333.050781 343.351562 334.007812 L 343.351562 386.621094 L 248.015625 386.621094 C 247.363281 386.621094 246.710938 386.648438 246.058594 386.710938 C 245.410156 386.769531 244.765625 386.859375 244.125 386.984375 C 243.484375 387.105469 242.847656 387.257812 242.222656 387.441406 C 241.597656 387.625 240.980469 387.839844 240.375 388.082031 C 239.769531 388.324219 239.175781 388.59375 238.597656 388.894531 C 238.015625 389.195312 237.453125 389.519531 236.902344 389.875 C 236.355469 390.230469 235.824219 390.609375 235.3125 391.011719 C 234.800781 391.417969 234.308594 391.84375 233.839844 392.296875 C 233.367188 392.75 232.917969 393.222656 232.492188 393.71875 C 232.070312 394.210938 231.667969 394.726562 231.292969 395.261719 C 230.914062 395.792969 230.566406 396.34375 230.242188 396.910156 C 229.917969 397.476562 229.625 398.058594 229.355469 398.652344 C 229.089844 399.25 228.851562 399.855469 228.640625 400.472656 C 228.433594 401.09375 228.253906 401.71875 228.105469 402.355469 C 227.957031 402.992188 227.839844 403.632812 227.75 404.277344 C 227.664062 404.925781 227.609375 405.574219 227.582031 406.226562 C 227.464844 408.945312 227.84375 411.59375 228.730469 414.167969 C 229.613281 416.742188 230.9375 419.066406 232.703125 421.136719 L 254.242188 447.679688 L 254.242188 563.285156 L 233.574219 563.285156 C 233.167969 563.257812 232.761719 563.273438 232.355469 563.332031 C 231.949219 563.390625 231.554688 563.488281 231.167969 563.625 C 230.785156 563.765625 230.417969 563.941406 230.066406 564.15625 C 229.71875 564.367188 229.394531 564.617188 229.097656 564.894531 C 228.800781 565.175781 228.53125 565.484375 228.296875 565.820312 C 228.0625 566.152344 227.863281 566.507812 227.699219 566.882812 C 227.539062 567.261719 227.414062 567.648438 227.332031 568.050781 C 227.25 568.449219 227.207031 568.855469 227.207031 569.265625 C 227.207031 569.671875 227.25 570.078125 227.332031 570.480469 C 227.414062 570.878906 227.539062 571.269531 227.699219 571.644531 C 227.863281 572.019531 228.0625 572.375 228.296875 572.710938 C 228.53125 573.042969 228.800781 573.351562 229.097656 573.632812 C 229.394531 573.914062 229.71875 574.160156 230.066406 574.375 C 230.417969 574.585938 230.785156 574.761719 231.167969 574.902344 C 231.554688 575.039062 231.949219 575.140625 232.355469 575.195312 C 232.761719 575.253906 233.167969 575.269531 233.574219 575.246094 L 576.402344 575.246094 C 576.808594 575.269531 577.214844 575.253906 577.621094 575.195312 C 578.027344 575.140625 578.421875 575.042969 578.808594 574.902344 C 579.191406 574.765625 579.558594 574.585938 579.90625 574.375 C 580.257812 574.160156 580.582031 573.914062 580.878906 573.632812 C 581.175781 573.351562 581.445312 573.042969 581.679688 572.710938 C 581.914062 572.375 582.113281 572.019531 582.277344 571.644531 C 582.4375 571.269531 582.5625 570.878906 582.644531 570.480469 C 582.726562 570.078125 582.769531 569.671875 582.769531 569.265625 C 582.769531 568.855469 582.726562 568.449219 582.644531 568.050781 C 582.5625 567.648438 582.4375 567.261719 582.277344 566.882812 C 582.113281 566.507812 581.914062 566.152344 581.679688 565.820312 C 581.445312 565.484375 581.175781 565.175781 580.878906 564.894531 C 580.582031 564.617188 580.257812 564.367188 579.90625 564.15625 C 579.558594 563.941406 579.191406 563.765625 578.808594 563.625 C 578.421875 563.488281 578.027344 563.390625 577.621094 563.332031 C 577.214844 563.273438 576.808594 563.257812 576.402344 563.285156 Z M 570.410156 407.003906 C 570.425781 408.222656 570.21875 409.402344 569.789062 410.542969 C 569.363281 411.679688 568.742188 412.703125 567.929688 413.613281 L 555.6875 428.6875 L 555.6875 420.027344 C 555.710938 419.621094 555.695312 419.214844 555.636719 418.808594 C 555.582031 418.402344 555.484375 418.007812 555.34375 417.621094 C 555.207031 417.238281 555.027344 416.871094 554.816406 416.523438 C 554.601562 416.171875 554.355469 415.847656 554.074219 415.550781 C 553.792969 415.253906 553.488281 414.984375 553.152344 414.75 C 552.816406 414.515625 552.460938 414.316406 552.085938 414.152344 C 551.710938 413.992188 551.320312 413.867188 550.921875 413.785156 C 550.519531 413.703125 550.113281 413.660156 549.707031 413.660156 C 549.296875 413.660156 548.890625 413.703125 548.492188 413.785156 C 548.089844 413.867188 547.703125 413.992188 547.324219 414.152344 C 546.949219 414.316406 546.59375 414.515625 546.261719 414.75 C 545.925781 414.984375 545.617188 415.253906 545.335938 415.550781 C 545.058594 415.847656 544.808594 416.171875 544.597656 416.523438 C 544.382812 416.871094 544.207031 417.238281 544.066406 417.621094 C 543.929688 418.007812 543.832031 418.402344 543.773438 418.808594 C 543.714844 419.214844 543.699219 419.621094 543.726562 420.027344 L 543.726562 563.210938 L 266.25 563.210938 L 266.25 420.027344 C 266.277344 419.621094 266.261719 419.214844 266.203125 418.808594 C 266.144531 418.402344 266.046875 418.007812 265.910156 417.621094 C 265.769531 417.238281 265.59375 416.871094 265.378906 416.519531 C 265.164062 416.171875 264.917969 415.847656 264.640625 415.550781 C 264.359375 415.253906 264.050781 414.984375 263.714844 414.75 C 263.382812 414.515625 263.027344 414.316406 262.648438 414.152344 C 262.273438 413.992188 261.886719 413.867188 261.484375 413.785156 C 261.085938 413.703125 260.679688 413.660156 260.269531 413.660156 C 259.859375 413.660156 259.457031 413.703125 259.054688 413.785156 C 258.65625 413.867188 258.265625 413.992188 257.890625 414.152344 C 257.515625 414.316406 257.160156 414.515625 256.824219 414.75 C 256.488281 414.984375 256.183594 415.253906 255.902344 415.550781 C 255.621094 415.847656 255.375 416.171875 255.160156 416.519531 C 254.945312 416.871094 254.769531 417.238281 254.632812 417.621094 C 254.492188 418.007812 254.394531 418.402344 254.335938 418.808594 C 254.28125 419.214844 254.265625 419.621094 254.289062 420.027344 L 254.289062 428.6875 L 242.046875 413.613281 C 241.253906 412.695312 240.65625 411.667969 240.25 410.527344 C 239.84375 409.390625 239.652344 408.214844 239.6875 407.003906 C 239.695312 406.511719 239.746094 406.019531 239.839844 405.535156 C 239.933594 405.050781 240.066406 404.578125 240.242188 404.113281 C 240.417969 403.652344 240.632812 403.207031 240.882812 402.78125 C 241.132812 402.355469 241.417969 401.957031 241.738281 401.578125 C 242.058594 401.203125 242.410156 400.855469 242.789062 400.539062 C 243.167969 400.222656 243.574219 399.941406 244 399.695312 C 244.429688 399.445312 244.875 399.238281 245.339844 399.066406 C 245.800781 398.894531 246.277344 398.765625 246.761719 398.675781 C 247.210938 398.652344 247.660156 398.652344 248.109375 398.675781 L 561.960938 398.675781 C 562.410156 398.652344 562.859375 398.652344 563.308594 398.675781 C 563.792969 398.765625 564.269531 398.894531 564.734375 399.0625 C 565.199219 399.234375 565.648438 399.441406 566.078125 399.6875 C 566.507812 399.933594 566.910156 400.214844 567.292969 400.53125 C 567.671875 400.847656 568.023438 401.195312 568.347656 401.574219 C 568.667969 401.949219 568.953125 402.351562 569.207031 402.777344 C 569.457031 403.203125 569.671875 403.648438 569.847656 404.109375 C 570.023438 404.574219 570.160156 405.046875 570.253906 405.535156 C 570.347656 406.019531 570.398438 406.511719 570.410156 407.003906 Z M 431.425781 320.136719 L 450.085938 327.355469 C 450.757812 327.621094 451.375 327.976562 451.9375 328.425781 C 452.503906 328.875 452.988281 329.398438 453.398438 329.992188 C 453.804688 330.589844 454.117188 331.230469 454.332031 331.917969 C 454.546875 332.605469 454.660156 333.3125 454.664062 334.03125 L 454.664062 386.621094 L 442.277344 386.621094 L 442.277344 361.257812 C 442.300781 360.851562 442.285156 360.445312 442.226562 360.039062 C 442.171875 359.632812 442.074219 359.238281 441.933594 358.851562 C 441.796875 358.46875 441.617188 358.101562 441.40625 357.753906 C 441.191406 357.402344 440.945312 357.078125 440.664062 356.78125 C 440.382812 356.484375 440.078125 356.214844 439.742188 355.980469 C 439.40625 355.746094 439.050781 355.546875 438.675781 355.382812 C 438.300781 355.222656 437.910156 355.097656 437.511719 355.015625 C 437.109375 354.933594 436.703125 354.890625 436.296875 354.890625 C 435.886719 354.890625 435.480469 354.933594 435.082031 355.015625 C 434.679688 355.097656 434.292969 355.222656 433.914062 355.382812 C 433.539062 355.546875 433.183594 355.746094 432.851562 355.980469 C 432.515625 356.214844 432.207031 356.484375 431.925781 356.78125 C 431.648438 357.078125 431.398438 357.402344 431.1875 357.75 C 430.972656 358.101562 430.796875 358.46875 430.65625 358.851562 C 430.519531 359.238281 430.421875 359.632812 430.363281 360.039062 C 430.304688 360.445312 430.289062 360.851562 430.316406 361.257812 L 430.316406 386.621094 L 379.636719 386.621094 L 379.636719 361.257812 C 379.636719 360.867188 379.597656 360.476562 379.523438 360.089844 C 379.445312 359.703125 379.332031 359.328125 379.183594 358.964844 C 379.03125 358.601562 378.847656 358.257812 378.628906 357.929688 C 378.410156 357.601562 378.160156 357.300781 377.882812 357.023438 C 377.605469 356.742188 377.300781 356.496094 376.972656 356.277344 C 376.648438 356.058594 376.300781 355.875 375.9375 355.722656 C 375.574219 355.570312 375.199219 355.457031 374.8125 355.382812 C 374.429688 355.304688 374.039062 355.265625 373.644531 355.265625 C 373.25 355.265625 372.863281 355.304688 372.476562 355.382812 C 372.089844 355.457031 371.714844 355.570312 371.351562 355.722656 C 370.988281 355.875 370.644531 356.058594 370.316406 356.277344 C 369.988281 356.496094 369.6875 356.742188 369.40625 357.023438 C 369.128906 357.300781 368.882812 357.601562 368.664062 357.929688 C 368.445312 358.257812 368.257812 358.601562 368.109375 358.964844 C 367.957031 359.328125 367.84375 359.703125 367.769531 360.089844 C 367.691406 360.476562 367.652344 360.867188 367.652344 361.257812 L 367.652344 386.621094 L 355.3125 386.621094 L 355.3125 334.03125 C 355.316406 333.3125 355.429688 332.605469 355.644531 331.917969 C 355.859375 331.230469 356.171875 330.589844 356.578125 329.992188 C 356.984375 329.398438 357.472656 328.875 358.035156 328.425781 C 358.601562 327.976562 359.21875 327.621094 359.890625 327.355469 L 378.574219 320.136719 C 380.34375 321.808594 382.257812 323.300781 384.308594 324.609375 C 386.359375 325.917969 388.519531 327.023438 390.78125 327.921875 C 393.042969 328.820312 395.371094 329.5 397.761719 329.953125 C 400.152344 330.410156 402.566406 330.636719 405 330.636719 C 407.433594 330.640625 409.847656 330.414062 412.238281 329.957031 C 414.628906 329.5 416.957031 328.824219 419.21875 327.925781 C 421.484375 327.027344 423.640625 325.921875 425.691406 324.613281 C 427.746094 323.300781 429.65625 321.808594 431.425781 320.136719 Z M 431.425781 320.136719 " fill-opacity="1" fill-rule="nonzero"/><path fill="#ffffff" d="M 436.332031 421.421875 L 373.644531 421.421875 C 373.25 421.421875 372.863281 421.457031 372.476562 421.535156 C 372.089844 421.613281 371.714844 421.726562 371.351562 421.875 C 370.988281 422.027344 370.644531 422.210938 370.316406 422.429688 C 369.988281 422.648438 369.6875 422.898438 369.40625 423.175781 C 369.128906 423.453125 368.882812 423.757812 368.664062 424.082031 C 368.445312 424.410156 368.257812 424.757812 368.109375 425.121094 C 367.957031 425.484375 367.84375 425.859375 367.769531 426.242188 C 367.691406 426.628906 367.652344 427.019531 367.652344 427.414062 L 367.652344 538.488281 C 367.652344 538.878906 367.695312 539.269531 367.773438 539.652344 C 367.851562 540.039062 367.964844 540.410156 368.117188 540.773438 C 368.265625 541.136719 368.453125 541.480469 368.671875 541.804688 C 368.890625 542.132812 369.136719 542.433594 369.417969 542.710938 C 369.695312 542.988281 369.996094 543.234375 370.324219 543.453125 C 370.648438 543.667969 370.996094 543.851562 371.359375 544.003906 C 371.71875 544.152344 372.09375 544.265625 372.480469 544.34375 C 372.863281 544.417969 373.253906 544.457031 373.644531 544.457031 L 436.332031 544.457031 C 436.722656 544.453125 437.109375 544.414062 437.492188 544.335938 C 437.875 544.253906 438.246094 544.140625 438.605469 543.988281 C 438.964844 543.839844 439.304688 543.652344 439.628906 543.433594 C 439.953125 543.21875 440.253906 542.96875 440.53125 542.691406 C 440.804688 542.417969 441.050781 542.117188 441.269531 541.789062 C 441.484375 541.464844 441.667969 541.125 441.816406 540.761719 C 441.96875 540.402344 442.082031 540.03125 442.160156 539.648438 C 442.234375 539.265625 442.273438 538.878906 442.277344 538.488281 L 442.277344 427.414062 C 442.277344 427.023438 442.238281 426.632812 442.164062 426.25 C 442.085938 425.867188 441.972656 425.492188 441.824219 425.128906 C 441.675781 424.769531 441.492188 424.425781 441.277344 424.097656 C 441.058594 423.773438 440.8125 423.46875 440.539062 423.191406 C 440.261719 422.914062 439.960938 422.664062 439.636719 422.445312 C 439.3125 422.226562 438.96875 422.042969 438.609375 421.890625 C 438.25 421.738281 437.875 421.621094 437.492188 421.542969 C 437.109375 421.464844 436.722656 421.421875 436.332031 421.421875 Z M 430.480469 532.496094 L 379.636719 532.496094 L 379.636719 433.40625 L 430.480469 433.40625 Z M 430.480469 532.496094 " fill-opacity="1" fill-rule="nonzero"/><path fill="#ffffff" d="M 513.242188 297.535156 C 512.359375 297.53125 511.515625 297.71875 510.714844 298.09375 C 509.914062 298.472656 509.230469 299 508.667969 299.683594 C 508.046875 300.417969 507.390625 301.121094 506.695312 301.785156 C 505.996094 302.449219 505.269531 303.078125 504.503906 303.660156 C 503.738281 304.246094 502.945312 304.789062 502.121094 305.289062 C 501.300781 305.789062 500.453125 306.242188 499.578125 306.648438 C 498.707031 307.054688 497.8125 307.410156 496.902344 307.722656 C 495.992188 308.03125 495.066406 308.289062 494.125 308.496094 C 493.183594 308.707031 492.238281 308.863281 491.28125 308.964844 C 490.324219 309.070312 489.363281 309.125 488.398438 309.125 C 487.4375 309.125 486.476562 309.070312 485.519531 308.964844 C 484.5625 308.863281 483.617188 308.707031 482.675781 308.496094 C 481.734375 308.289062 480.808594 308.03125 479.898438 307.722656 C 478.984375 307.410156 478.09375 307.054688 477.222656 306.648438 C 476.347656 306.242188 475.5 305.789062 474.675781 305.289062 C 473.855469 304.789062 473.0625 304.246094 472.296875 303.660156 C 471.53125 303.078125 470.800781 302.449219 470.105469 301.785156 C 469.410156 301.121094 468.753906 300.417969 468.132812 299.683594 C 467.882812 299.382812 467.601562 299.109375 467.296875 298.863281 C 466.988281 298.617188 466.664062 298.40625 466.3125 298.222656 C 465.964844 298.042969 465.601562 297.898438 465.226562 297.789062 C 464.847656 297.679688 464.464844 297.609375 464.074219 297.574219 C 463.683594 297.539062 463.292969 297.542969 462.902344 297.585938 C 462.511719 297.628906 462.128906 297.710938 461.757812 297.828125 C 461.382812 297.949219 461.023438 298.101562 460.679688 298.289062 C 460.335938 298.480469 460.011719 298.699219 459.710938 298.953125 C 459.414062 299.203125 459.140625 299.484375 458.894531 299.789062 C 458.648438 300.097656 458.433594 300.421875 458.253906 300.773438 C 458.074219 301.121094 457.929688 301.484375 457.816406 301.859375 C 457.707031 302.234375 457.636719 302.621094 457.601562 303.011719 C 457.570312 303.402344 457.574219 303.792969 457.617188 304.183594 C 457.660156 304.574219 457.738281 304.953125 457.859375 305.328125 C 457.976562 305.703125 458.128906 306.0625 458.316406 306.40625 C 458.507812 306.75 458.726562 307.074219 458.980469 307.375 C 459.820312 308.375 460.710938 309.328125 461.648438 310.238281 C 462.585938 311.148438 463.566406 312.007812 464.589844 312.816406 C 465.617188 313.625 466.679688 314.378906 467.78125 315.082031 C 468.886719 315.78125 470.019531 316.425781 471.1875 317.007812 C 472.355469 317.59375 473.550781 318.117188 474.773438 318.582031 C 475.992188 319.046875 477.234375 319.445312 478.496094 319.78125 C 479.757812 320.117188 481.035156 320.390625 482.324219 320.597656 C 483.613281 320.804688 484.910156 320.945312 486.214844 321.019531 C 487.519531 321.09375 488.824219 321.101562 490.128906 321.042969 C 491.433594 320.984375 492.730469 320.859375 494.023438 320.667969 C 495.316406 320.476562 496.59375 320.21875 497.859375 319.898438 C 499.125 319.578125 500.375 319.191406 501.601562 318.742188 C 502.828125 318.296875 504.027344 317.785156 505.203125 317.214844 C 506.378906 316.644531 507.519531 316.015625 508.628906 315.328125 C 509.742188 314.640625 510.8125 313.898438 511.847656 313.101562 C 512.882812 312.304688 513.875 311.457031 514.824219 310.558594 L 533.484375 317.777344 C 534.15625 318.042969 534.773438 318.398438 535.339844 318.847656 C 535.902344 319.296875 536.390625 319.820312 536.796875 320.414062 C 537.207031 321.007812 537.519531 321.652344 537.734375 322.339844 C 537.949219 323.027344 538.058594 323.734375 538.0625 324.453125 L 538.0625 363.429688 C 538.085938 363.804688 538.144531 364.179688 538.238281 364.542969 C 538.332031 364.910156 538.460938 365.261719 538.621094 365.605469 C 538.78125 365.945312 538.972656 366.269531 539.195312 366.574219 C 539.417969 366.882812 539.664062 367.164062 539.941406 367.421875 C 540.214844 367.679688 540.511719 367.910156 540.832031 368.113281 C 541.152344 368.316406 541.488281 368.488281 541.835938 368.625 C 542.1875 368.765625 542.550781 368.871094 542.921875 368.941406 C 543.292969 369.011719 543.664062 369.046875 544.042969 369.046875 C 544.421875 369.046875 544.796875 369.011719 545.167969 368.941406 C 545.539062 368.871094 545.898438 368.765625 546.25 368.625 C 546.601562 368.488281 546.9375 368.316406 547.253906 368.113281 C 547.574219 367.910156 547.871094 367.679688 548.144531 367.421875 C 548.421875 367.164062 548.671875 366.882812 548.890625 366.574219 C 549.113281 366.269531 549.304688 365.945312 549.464844 365.605469 C 549.625 365.261719 549.753906 364.910156 549.847656 364.542969 C 549.941406 364.179688 550 363.804688 550.023438 363.429688 L 550.023438 324.453125 C 550.019531 323.496094 549.945312 322.542969 549.796875 321.597656 C 549.652344 320.648438 549.4375 319.71875 549.148438 318.804688 C 548.863281 317.890625 548.511719 317 548.09375 316.136719 C 547.675781 315.277344 547.195312 314.449219 546.65625 313.660156 C 546.113281 312.867188 545.515625 312.121094 544.863281 311.421875 C 544.210938 310.71875 543.507812 310.070312 542.757812 309.472656 C 542.007812 308.878906 541.21875 308.339844 540.386719 307.859375 C 539.558594 307.382812 538.695312 306.96875 537.804688 306.617188 L 515.414062 297.960938 C 514.71875 297.671875 513.996094 297.53125 513.242188 297.535156 Z M 513.242188 297.535156 " fill-opacity="1" fill-rule="nonzero"/><path fill="#ffffff" d="M 488.398438 297.675781 C 489.433594 297.675781 490.464844 297.625 491.496094 297.523438 C 492.523438 297.421875 493.542969 297.273438 494.558594 297.070312 C 495.574219 296.867188 496.574219 296.617188 497.5625 296.316406 C 498.554688 296.015625 499.523438 295.667969 500.480469 295.273438 C 501.4375 294.878906 502.367188 294.4375 503.28125 293.949219 C 504.191406 293.460938 505.078125 292.929688 505.9375 292.355469 C 506.796875 291.78125 507.628906 291.167969 508.425781 290.511719 C 509.226562 289.855469 509.992188 289.160156 510.722656 288.429688 C 511.453125 287.699219 512.144531 286.933594 512.800781 286.136719 C 513.457031 285.335938 514.074219 284.507812 514.648438 283.648438 C 515.222656 282.789062 515.753906 281.902344 516.238281 280.992188 C 516.726562 280.078125 517.167969 279.144531 517.5625 278.191406 C 517.960938 277.234375 518.308594 276.261719 518.609375 275.273438 C 518.90625 274.285156 519.160156 273.28125 519.359375 272.269531 C 519.5625 271.253906 519.714844 270.234375 519.816406 269.203125 C 519.917969 268.175781 519.96875 267.144531 519.96875 266.109375 C 519.96875 265.074219 519.917969 264.042969 519.816406 263.015625 C 519.714844 261.988281 519.5625 260.964844 519.359375 259.953125 C 519.160156 258.9375 518.90625 257.9375 518.609375 256.945312 C 518.308594 255.957031 517.960938 254.984375 517.5625 254.03125 C 517.167969 253.074219 516.726562 252.140625 516.238281 251.230469 C 515.753906 250.316406 515.222656 249.429688 514.648438 248.570312 C 514.074219 247.710938 513.457031 246.882812 512.800781 246.082031 C 512.144531 245.285156 511.453125 244.519531 510.722656 243.789062 C 509.992188 243.058594 509.226562 242.363281 508.425781 241.707031 C 507.628906 241.050781 506.796875 240.4375 505.9375 239.863281 C 505.078125 239.289062 504.191406 238.757812 503.28125 238.269531 C 502.367188 237.78125 501.433594 237.339844 500.480469 236.945312 C 499.523438 236.550781 498.554688 236.203125 497.5625 235.902344 C 496.574219 235.601562 495.574219 235.351562 494.558594 235.148438 C 493.542969 234.949219 492.523438 234.796875 491.496094 234.695312 C 490.464844 234.59375 489.433594 234.542969 488.398438 234.542969 C 487.367188 234.542969 486.335938 234.59375 485.304688 234.695312 C 484.277344 234.796875 483.253906 234.949219 482.242188 235.148438 C 481.226562 235.351562 480.226562 235.601562 479.238281 235.902344 C 478.246094 236.203125 477.273438 236.550781 476.320312 236.945312 C 475.363281 237.339844 474.429688 237.78125 473.519531 238.269531 C 472.609375 238.757812 471.722656 239.289062 470.863281 239.863281 C 470.003906 240.4375 469.171875 241.050781 468.375 241.707031 C 467.574219 242.363281 466.808594 243.058594 466.078125 243.789062 C 465.347656 244.519531 464.65625 245.285156 464 246.082031 C 463.34375 246.882812 462.726562 247.710938 462.152344 248.570312 C 461.578125 249.429688 461.046875 250.316406 460.5625 251.230469 C 460.074219 252.140625 459.632812 253.074219 459.234375 254.03125 C 458.839844 254.984375 458.492188 255.957031 458.191406 256.945312 C 457.890625 257.9375 457.640625 258.9375 457.441406 259.953125 C 457.238281 260.964844 457.085938 261.988281 456.984375 263.015625 C 456.882812 264.042969 456.832031 265.074219 456.832031 266.109375 C 456.832031 267.144531 456.886719 268.175781 456.988281 269.203125 C 457.089844 270.230469 457.242188 271.253906 457.445312 272.265625 C 457.644531 273.28125 457.898438 274.28125 458.199219 275.269531 C 458.5 276.257812 458.847656 277.230469 459.242188 278.1875 C 459.636719 279.140625 460.078125 280.074219 460.566406 280.984375 C 461.054688 281.898438 461.585938 282.78125 462.160156 283.640625 C 462.734375 284.5 463.351562 285.332031 464.003906 286.128906 C 464.660156 286.929688 465.355469 287.691406 466.085938 288.425781 C 466.816406 289.15625 467.582031 289.847656 468.378906 290.503906 C 469.179688 291.160156 470.007812 291.773438 470.867188 292.347656 C 471.726562 292.925781 472.613281 293.453125 473.523438 293.941406 C 474.4375 294.429688 475.367188 294.871094 476.324219 295.265625 C 477.277344 295.664062 478.25 296.011719 479.238281 296.3125 C 480.226562 296.613281 481.230469 296.863281 482.242188 297.066406 C 483.257812 297.269531 484.277344 297.421875 485.308594 297.523438 C 486.335938 297.625 487.367188 297.675781 488.398438 297.675781 Z M 488.398438 246.503906 C 489.042969 246.503906 489.683594 246.535156 490.320312 246.597656 C 490.960938 246.660156 491.59375 246.753906 492.226562 246.882812 C 492.855469 247.007812 493.476562 247.160156 494.089844 247.347656 C 494.707031 247.535156 495.308594 247.75 495.902344 247.996094 C 496.496094 248.242188 497.074219 248.515625 497.640625 248.820312 C 498.207031 249.121094 498.757812 249.453125 499.292969 249.808594 C 499.828125 250.164062 500.339844 250.546875 500.839844 250.953125 C 501.335938 251.363281 501.808594 251.792969 502.261719 252.246094 C 502.71875 252.699219 503.148438 253.175781 503.554688 253.671875 C 503.964844 254.167969 504.34375 254.683594 504.703125 255.21875 C 505.058594 255.75 505.386719 256.300781 505.691406 256.867188 C 505.992188 257.433594 506.269531 258.015625 506.511719 258.605469 C 506.757812 259.199219 506.976562 259.804688 507.160156 260.417969 C 507.347656 261.03125 507.503906 261.65625 507.628906 262.285156 C 507.753906 262.914062 507.847656 263.550781 507.910156 264.1875 C 507.972656 264.828125 508.003906 265.46875 508.003906 266.109375 C 508.003906 266.75 507.972656 267.390625 507.910156 268.03125 C 507.847656 268.671875 507.753906 269.304688 507.628906 269.933594 C 507.503906 270.5625 507.347656 271.1875 507.160156 271.800781 C 506.976562 272.414062 506.757812 273.019531 506.511719 273.613281 C 506.269531 274.207031 505.992188 274.785156 505.691406 275.351562 C 505.386719 275.917969 505.058594 276.46875 504.703125 277.003906 C 504.34375 277.535156 503.964844 278.050781 503.554688 278.546875 C 503.148438 279.042969 502.71875 279.519531 502.261719 279.972656 C 501.808594 280.425781 501.335938 280.859375 500.839844 281.265625 C 500.339844 281.671875 499.828125 282.054688 499.292969 282.410156 C 498.757812 282.769531 498.207031 283.097656 497.640625 283.398438 C 497.074219 283.703125 496.496094 283.976562 495.902344 284.222656 C 495.308594 284.46875 494.707031 284.683594 494.089844 284.871094 C 493.476562 285.058594 492.855469 285.214844 492.226562 285.339844 C 491.59375 285.464844 490.960938 285.558594 490.320312 285.621094 C 489.683594 285.683594 489.042969 285.714844 488.398438 285.714844 C 487.757812 285.714844 487.117188 285.683594 486.480469 285.621094 C 485.839844 285.558594 485.207031 285.464844 484.574219 285.339844 C 483.945312 285.214844 483.324219 285.058594 482.710938 284.871094 C 482.09375 284.683594 481.492188 284.46875 480.898438 284.222656 C 480.304688 283.976562 479.722656 283.703125 479.160156 283.398438 C 478.59375 283.097656 478.042969 282.769531 477.507812 282.410156 C 476.972656 282.054688 476.460938 281.671875 475.960938 281.265625 C 475.464844 280.859375 474.992188 280.425781 474.535156 279.972656 C 474.082031 279.519531 473.652344 279.042969 473.246094 278.546875 C 472.835938 278.050781 472.457031 277.535156 472.097656 277.003906 C 471.742188 276.46875 471.414062 275.917969 471.109375 275.351562 C 470.808594 274.785156 470.53125 274.207031 470.285156 273.613281 C 470.042969 273.019531 469.824219 272.414062 469.640625 271.800781 C 469.453125 271.1875 469.296875 270.5625 469.171875 269.933594 C 469.046875 269.304688 468.953125 268.671875 468.890625 268.03125 C 468.828125 267.390625 468.792969 266.75 468.792969 266.109375 C 468.796875 265.46875 468.828125 264.828125 468.890625 264.1875 C 468.953125 263.550781 469.050781 262.914062 469.175781 262.285156 C 469.300781 261.65625 469.457031 261.035156 469.644531 260.421875 C 469.832031 259.808594 470.046875 259.203125 470.292969 258.609375 C 470.539062 258.019531 470.8125 257.4375 471.117188 256.871094 C 471.417969 256.304688 471.75 255.757812 472.105469 255.222656 C 472.460938 254.6875 472.84375 254.175781 473.253906 253.679688 C 473.660156 253.183594 474.089844 252.707031 474.542969 252.253906 C 474.996094 251.800781 475.472656 251.367188 475.96875 250.960938 C 476.464844 250.554688 476.980469 250.171875 477.511719 249.816406 C 478.046875 249.457031 478.597656 249.128906 479.164062 248.824219 C 479.730469 248.523438 480.308594 248.25 480.902344 248.003906 C 481.492188 247.757812 482.097656 247.539062 482.710938 247.355469 C 483.324219 247.167969 483.949219 247.011719 484.578125 246.882812 C 485.207031 246.757812 485.839844 246.664062 486.480469 246.601562 C 487.117188 246.535156 487.757812 246.503906 488.398438 246.503906 Z M 488.398438 246.503906 " fill-opacity="1" fill-rule="nonzero"/><path fill="#ffffff" d="M 524.355469 421.421875 L 461.667969 421.421875 C 461.277344 421.421875 460.886719 421.460938 460.503906 421.539062 C 460.121094 421.617188 459.746094 421.730469 459.382812 421.882812 C 459.023438 422.035156 458.675781 422.21875 458.351562 422.4375 C 458.027344 422.65625 457.722656 422.90625 457.449219 423.183594 C 457.171875 423.460938 456.921875 423.765625 456.707031 424.089844 C 456.488281 424.417969 456.304688 424.761719 456.15625 425.125 C 456.003906 425.488281 455.890625 425.863281 455.816406 426.246094 C 455.738281 426.632812 455.699219 427.019531 455.699219 427.414062 L 455.699219 538.488281 C 455.699219 538.878906 455.738281 539.269531 455.816406 539.652344 C 455.890625 540.035156 456.003906 540.410156 456.15625 540.773438 C 456.304688 541.132812 456.488281 541.476562 456.707031 541.804688 C 456.925781 542.128906 457.171875 542.429688 457.449219 542.707031 C 457.726562 542.984375 458.027344 543.234375 458.351562 543.449219 C 458.679688 543.667969 459.023438 543.851562 459.386719 544.003906 C 459.746094 544.152344 460.121094 544.265625 460.503906 544.34375 C 460.890625 544.417969 461.277344 544.457031 461.667969 544.457031 L 524.355469 544.457031 C 524.746094 544.457031 525.136719 544.417969 525.523438 544.34375 C 525.90625 544.265625 526.28125 544.152344 526.644531 544.003906 C 527.007812 543.851562 527.351562 543.667969 527.675781 543.453125 C 528.003906 543.234375 528.304688 542.988281 528.585938 542.710938 C 528.863281 542.433594 529.109375 542.132812 529.328125 541.804688 C 529.550781 541.480469 529.734375 541.136719 529.886719 540.773438 C 530.035156 540.410156 530.152344 540.039062 530.230469 539.652344 C 530.308594 539.269531 530.347656 538.878906 530.347656 538.488281 L 530.347656 427.414062 C 530.347656 427.019531 530.308594 426.628906 530.234375 426.242188 C 530.15625 425.859375 530.042969 425.484375 529.890625 425.121094 C 529.742188 424.757812 529.558594 424.410156 529.339844 424.082031 C 529.121094 423.757812 528.871094 423.453125 528.59375 423.175781 C 528.316406 422.898438 528.011719 422.648438 527.683594 422.429688 C 527.359375 422.210938 527.011719 422.027344 526.648438 421.875 C 526.285156 421.726562 525.910156 421.613281 525.523438 421.535156 C 525.140625 421.457031 524.75 421.421875 524.355469 421.421875 Z M 518.386719 433.382812 L 518.386719 532.472656 L 467.664062 532.472656 L 467.664062 433.382812 Z M 518.386719 433.382812 " fill-opacity="1" fill-rule="nonzero"/><path fill="#ffffff" d="M 513.761719 342.101562 L 513.761719 363.335938 C 513.785156 363.710938 513.84375 364.082031 513.9375 364.449219 C 514.03125 364.816406 514.160156 365.167969 514.320312 365.511719 C 514.480469 365.851562 514.671875 366.175781 514.894531 366.480469 C 515.117188 366.789062 515.367188 367.070312 515.640625 367.328125 C 515.917969 367.585938 516.214844 367.816406 516.53125 368.019531 C 516.851562 368.222656 517.1875 368.390625 517.535156 368.53125 C 517.886719 368.671875 518.25 368.773438 518.621094 368.847656 C 518.992188 368.917969 519.367188 368.953125 519.742188 368.953125 C 520.121094 368.953125 520.496094 368.917969 520.867188 368.847656 C 521.238281 368.773438 521.597656 368.671875 521.949219 368.53125 C 522.300781 368.390625 522.636719 368.222656 522.953125 368.019531 C 523.273438 367.816406 523.570312 367.585938 523.84375 367.328125 C 524.121094 367.070312 524.371094 366.789062 524.589844 366.480469 C 524.8125 366.175781 525.003906 365.851562 525.164062 365.511719 C 525.328125 365.167969 525.453125 364.816406 525.546875 364.449219 C 525.640625 364.082031 525.699219 363.710938 525.722656 363.335938 L 525.722656 342.101562 C 525.699219 341.726562 525.640625 341.355469 525.546875 340.988281 C 525.453125 340.621094 525.328125 340.269531 525.164062 339.925781 C 525.003906 339.585938 524.8125 339.261719 524.589844 338.957031 C 524.371094 338.648438 524.121094 338.367188 523.84375 338.109375 C 523.570312 337.851562 523.273438 337.621094 522.953125 337.417969 C 522.636719 337.214844 522.300781 337.046875 521.949219 336.90625 C 521.597656 336.765625 521.238281 336.660156 520.867188 336.589844 C 520.496094 336.519531 520.121094 336.484375 519.742188 336.484375 C 519.367188 336.484375 518.992188 336.519531 518.621094 336.589844 C 518.25 336.660156 517.886719 336.765625 517.535156 336.90625 C 517.1875 337.046875 516.851562 337.214844 516.53125 337.417969 C 516.214844 337.621094 515.917969 337.851562 515.640625 338.109375 C 515.367188 338.367188 515.117188 338.648438 514.894531 338.957031 C 514.671875 339.261719 514.480469 339.585938 514.320312 339.925781 C 514.160156 340.269531 514.03125 340.621094 513.9375 340.988281 C 513.84375 341.355469 513.785156 341.726562 513.761719 342.101562 Z M 513.761719 342.101562 " fill-opacity="1" fill-rule="nonzero"/></svg>