<svg xmlns="http://www.w3.org/2000/svg" xmlns:xlink="http://www.w3.org/1999/xlink" width="1080" zoomAndPan="magnify" viewBox="0 0 810 809.999993" height="1080" preserveAspectRatio="xMidYMid meet" version="1.0"><defs><clipPath id="27532dd1e1"><path d="M 226.949219 194.203125 L 583.046875 194.203125 L 583.046875 615.703125 L 226.949219 615.703125 Z M 226.949219 194.203125 " clip-rule="nonzero"/></clipPath></defs><g clip-path="url(#27532dd1e1)"><path fill="#ffffff" d="M 255.070312 537.328125 L 292.832031 537.328125 L 292.832031 607.113281 L 255.070312 607.113281 Z M 269.050781 352.917969 L 302.0625 352.917969 C 301.867188 353.558594 301.675781 354.195312 301.484375 354.839844 C 295.742188 374.261719 292.832031 394.878906 292.832031 416.121094 L 292.832031 436.433594 L 255.070312 436.433594 L 255.070312 416.121094 C 255.070312 393.554688 260.082031 372.132812 269.050781 352.917969 Z M 352.941406 275.515625 C 342.703125 283.078125 333.398438 292.808594 325.195312 304.546875 C 316.976562 316.304688 310.1875 329.617188 304.949219 344.226562 L 273.460938 344.226562 C 290.722656 312.769531 318.9375 288.144531 352.941406 275.515625 Z M 380.007812 227.882812 C 380.007812 214.101562 391.21875 202.894531 405 202.894531 C 418.777344 202.894531 429.988281 214.101562 429.988281 227.882812 C 429.988281 241.660156 418.777344 252.871094 405 252.871094 C 391.21875 252.871094 380.007812 241.660156 380.007812 227.882812 Z M 536.535156 344.226562 L 505.046875 344.226562 C 499.804688 329.617188 493.019531 316.304688 484.796875 304.546875 C 476.597656 292.808594 467.289062 283.078125 457.054688 275.515625 C 491.054688 288.144531 519.273438 312.769531 536.535156 344.226562 Z M 554.925781 416.121094 L 554.925781 436.433594 L 517.160156 436.433594 L 517.160156 416.121094 C 517.160156 394.878906 514.253906 374.261719 508.507812 354.839844 C 508.320312 354.195312 508.128906 353.558594 507.929688 352.917969 L 540.863281 352.917969 C 540.890625 352.917969 540.917969 352.914062 540.941406 352.914062 C 549.914062 372.132812 554.925781 393.554688 554.925781 416.121094 Z M 517.160156 537.328125 L 554.925781 537.328125 L 554.925781 607.113281 L 517.160156 607.113281 Z M 554.925781 528.636719 L 517.160156 528.636719 L 517.160156 445.121094 L 554.925781 445.121094 Z M 372.664062 292.890625 C 368.710938 303.363281 365.304688 315.816406 362.539062 329.910156 C 361.628906 334.542969 360.800781 339.324219 360.046875 344.226562 L 314.21875 344.226562 C 328.785156 305.761719 354.65625 277.507812 385.308594 268.917969 C 380.71875 274.753906 376.46875 282.808594 372.664062 292.890625 Z M 440.96875 305.804688 C 436.664062 291.1875 431.597656 279.640625 425.921875 271.488281 C 425.234375 270.5 424.539062 269.566406 423.835938 268.6875 C 454.859375 276.984375 481.074219 305.40625 495.777344 344.226562 L 449.296875 344.226562 C 447.144531 330.242188 444.355469 317.292969 440.96875 305.804688 Z M 404.40625 266.199219 C 404.519531 266.199219 404.636719 266.195312 404.753906 266.195312 C 414.480469 266.292969 424.898438 282 432.632812 308.261719 C 435.804688 319.03125 438.445312 331.144531 440.503906 344.226562 L 368.851562 344.226562 C 371.789062 325.578125 375.863281 309.019531 380.792969 295.957031 C 387.859375 277.246094 396.449219 266.429688 404.40625 266.199219 Z M 255.070312 445.121094 L 292.832031 445.121094 L 292.832031 528.636719 L 255.070312 528.636719 Z M 501.410156 576.167969 C 501.367188 572.382812 500.644531 568.691406 499.257812 565.195312 C 499.257812 565.191406 499.253906 565.1875 499.253906 565.183594 C 497.550781 560.570312 469.222656 483.804688 468.554688 482.074219 C 466.492188 476.699219 462.34375 469.210938 454.292969 464.039062 C 450.574219 461.652344 446.414062 460.039062 441.925781 459.253906 C 437.089844 458.402344 431.84375 458.507812 426.328125 459.566406 C 426.324219 459.566406 426.320312 459.566406 426.316406 459.566406 C 426.285156 459.574219 426.25 459.582031 426.214844 459.589844 C 426.175781 459.597656 426.132812 459.605469 426.09375 459.617188 C 426.089844 459.617188 426.089844 459.617188 426.085938 459.617188 C 424.570312 460 422.964844 460.402344 421.292969 460.824219 C 427.800781 452.914062 431.285156 443.066406 431.167969 432.707031 C 431.035156 421.070312 426.378906 410.183594 418.058594 402.050781 C 409.738281 393.917969 398.75 389.515625 387.113281 389.644531 C 375.480469 389.777344 364.59375 394.433594 356.460938 402.753906 C 348.328125 411.074219 343.921875 422.066406 344.054688 433.699219 C 344.1875 445.332031 348.84375 456.21875 357.164062 464.351562 C 361.199219 468.296875 365.867188 471.363281 370.929688 473.460938 C 362.546875 475.566406 356.539062 477.070312 355.503906 477.324219 C 355.4375 477.339844 355.375 477.351562 355.308594 477.367188 C 352.496094 477.933594 349.859375 479.21875 347.679688 481.089844 C 340.644531 487.128906 339.832031 497.765625 345.871094 504.800781 C 349.128906 508.597656 353.828125 510.714844 358.820312 510.660156 C 358.902344 510.660156 358.984375 510.65625 359.066406 510.65625 C 359.3125 510.65625 359.558594 510.636719 359.804688 510.597656 L 359.824219 510.59375 L 359.820312 510.585938 C 359.882812 510.574219 359.953125 510.5625 360.03125 510.546875 C 356.019531 515.765625 345.625 529.28125 336.230469 541.496094 C 321.933594 560.089844 313.234375 571.394531 313.058594 571.632812 C 310.074219 575.589844 308.527344 580.300781 308.585938 585.261719 C 308.714844 596.625 317.386719 605.921875 328.417969 607.113281 L 301.523438 607.113281 L 301.523438 537.328125 L 317.324219 537.328125 C 319.726562 537.328125 321.671875 535.378906 321.671875 532.980469 C 321.671875 530.582031 319.726562 528.636719 317.324219 528.636719 L 301.523438 528.636719 L 301.523438 445.121094 L 320.386719 445.121094 C 322.785156 445.121094 324.730469 443.175781 324.730469 440.777344 C 324.730469 438.378906 322.785156 436.433594 320.386719 436.433594 L 301.523438 436.433594 L 301.523438 416.121094 C 301.523438 393.554688 304.984375 372.132812 311.175781 352.917969 L 358.808594 352.917969 C 357.828125 360.425781 357.019531 368.191406 356.394531 376.167969 C 356.207031 378.558594 357.996094 380.652344 360.390625 380.839844 C 362.78125 381.027344 364.875 379.238281 365.058594 376.84375 C 365.703125 368.628906 366.550781 360.625 367.585938 352.917969 L 441.769531 352.917969 C 444.386719 372.492188 445.765625 393.9375 445.765625 416.121094 L 445.765625 433.203125 C 445.765625 435.601562 447.714844 437.546875 450.113281 437.546875 C 452.511719 437.546875 454.457031 435.601562 454.457031 433.203125 L 454.457031 416.121094 C 454.457031 394.003906 453.105469 372.574219 450.53125 352.917969 L 498.820312 352.917969 C 505.011719 372.132812 508.472656 393.554688 508.472656 416.121094 L 508.472656 436.433594 L 466.507812 436.433594 C 464.109375 436.433594 462.164062 438.378906 462.164062 440.777344 C 462.164062 443.175781 464.109375 445.121094 466.507812 445.121094 L 508.472656 445.121094 L 508.472656 528.636719 L 504.644531 528.636719 C 502.242188 528.636719 500.296875 530.582031 500.296875 532.980469 C 500.296875 535.378906 502.242188 537.328125 504.644531 537.328125 L 508.472656 537.328125 L 508.472656 607.113281 L 473.882812 607.113281 C 489.480469 605.476562 501.589844 592.160156 501.410156 576.167969 Z M 347.074219 600.175781 C 348.023438 599.160156 373.878906 567.144531 385.238281 553.066406 L 452.882812 601.640625 C 452.886719 601.644531 452.890625 601.644531 452.894531 601.648438 C 452.898438 601.652344 452.90625 601.65625 452.910156 601.660156 C 457.226562 604.710938 462.164062 606.5625 467.363281 607.113281 L 333.238281 607.113281 C 338.535156 606.546875 343.386719 604.128906 347.074219 600.175781 Z M 388.007812 468.015625 C 368.808594 468.234375 353.015625 452.792969 352.796875 433.597656 C 352.578125 414.402344 368.015625 398.605469 387.214844 398.386719 C 406.410156 398.167969 422.207031 413.605469 422.425781 432.804688 C 422.644531 452.003906 407.203125 467.796875 388.007812 468.015625 Z M 391.757812 503.203125 C 393.011719 502.90625 394.3125 502.597656 395.667969 502.277344 C 402.105469 500.761719 408.550781 499.238281 414.117188 497.917969 L 422.554688 522.691406 C 409.644531 514.503906 395.832031 505.753906 391.757812 503.203125 Z M 441.707031 545.195312 C 443.742188 546.488281 446.445312 545.886719 447.738281 543.84375 C 449.03125 541.808594 448.425781 539.109375 446.390625 537.816406 C 444.160156 536.398438 439.746094 533.597656 434.332031 530.164062 L 422.664062 495.894531 C 427.367188 494.78125 430.367188 494.070312 430.4375 494.054688 C 432.789062 493.496094 434.238281 491.140625 433.683594 488.789062 C 433.125 486.441406 430.769531 484.992188 428.417969 485.546875 C 402.1875 491.773438 362.621094 501.117188 358.667969 501.917969 C 356.289062 501.929688 354.054688 500.914062 352.503906 499.109375 C 351.101562 497.46875 350.417969 495.386719 350.582031 493.238281 C 350.746094 491.085938 351.734375 489.128906 353.371094 487.722656 C 354.445312 486.804688 355.742188 486.179688 357.125 485.917969 C 357.136719 485.917969 357.148438 485.914062 357.160156 485.914062 C 357.167969 485.910156 357.175781 485.910156 357.1875 485.90625 C 357.28125 485.886719 357.375 485.867188 357.464844 485.84375 C 358.925781 485.484375 367.925781 483.234375 428.074219 468.132812 C 449.75 464.03125 457.898438 478.703125 460.394531 485.207031 C 460.914062 486.5625 480.703125 540.164062 491.09375 568.320312 C 491.101562 568.34375 491.113281 568.367188 491.121094 568.390625 C 491.125 568.398438 491.128906 568.40625 491.128906 568.414062 C 492.117188 570.910156 492.636719 573.554688 492.667969 576.269531 C 492.808594 588.410156 483.039062 598.402344 470.898438 598.542969 C 466.230469 598.59375 461.753906 597.203125 457.957031 594.523438 L 386.980469 543.558594 C 385.097656 542.203125 382.484375 542.558594 381.03125 544.363281 C 365.546875 563.550781 342.101562 592.5625 340.648438 594.25 C 338.109375 596.949219 334.675781 598.457031 330.972656 598.5 C 323.53125 598.585938 317.410156 592.601562 317.328125 585.164062 C 317.292969 582.152344 318.230469 579.292969 320.03125 576.90625 C 320.34375 576.492188 331.941406 561.410156 343.160156 546.824219 C 358.433594 526.96875 368.460938 513.925781 368.703125 513.605469 C 371.246094 510.242188 375.113281 508.289062 379.320312 508.242188 C 381.738281 508.210938 384.117188 508.832031 386.195312 510.03125 C 387.859375 511.03125 426.804688 535.738281 441.707031 545.195312 Z M 578.699219 607.113281 L 563.617188 607.113281 L 563.617188 416.121094 C 563.617188 394.710938 559.421875 373.9375 551.152344 354.378906 C 543.160156 335.492188 531.722656 318.527344 517.160156 303.960938 C 502.589844 289.394531 485.628906 277.957031 466.742188 269.96875 C 451.707031 263.613281 435.957031 259.664062 419.75 258.175781 C 423.066406 256.558594 426.125 254.386719 428.8125 251.699219 C 435.171875 245.335938 438.679688 236.878906 438.679688 227.882812 C 438.679688 218.886719 435.171875 210.425781 428.8125 204.066406 C 422.453125 197.707031 413.996094 194.203125 405 194.203125 C 396 194.203125 387.542969 197.707031 381.183594 204.066406 C 374.820312 210.425781 371.316406 218.886719 371.316406 227.882812 C 371.316406 236.878906 374.820312 245.335938 381.183594 251.699219 C 383.867188 254.386719 386.929688 256.558594 390.246094 258.175781 C 374.039062 259.664062 358.289062 263.613281 343.253906 269.96875 C 324.367188 277.957031 307.402344 289.394531 292.835938 303.960938 C 278.269531 318.527344 266.835938 335.492188 258.84375 354.378906 C 250.574219 373.9375 246.378906 394.710938 246.378906 416.121094 L 246.378906 607.113281 L 231.296875 607.113281 C 228.894531 607.113281 226.949219 609.058594 226.949219 611.457031 C 226.949219 613.859375 228.894531 615.804688 231.296875 615.804688 L 578.699219 615.804688 C 581.101562 615.804688 583.046875 613.859375 583.046875 611.457031 C 583.046875 609.058594 581.101562 607.113281 578.699219 607.113281 " fill-opacity="1" fill-rule="nonzero"/></g></svg>