<svg xmlns="http://www.w3.org/2000/svg" xmlns:xlink="http://www.w3.org/1999/xlink" width="1080" zoomAndPan="magnify" viewBox="0 0 810 809.999993" height="1080" preserveAspectRatio="xMidYMid meet" version="1.0"><defs><clipPath id="e08aea70d2"><path d="M 298 243 L 534.066406 243 L 534.066406 509 L 298 509 Z M 298 243 " clip-rule="nonzero"/></clipPath></defs><path fill="#ffffff" d="M 413.453125 598.960938 C 402.890625 598.960938 393.277344 595.230469 386.390625 588.453125 C 379.515625 581.691406 375.730469 572.292969 375.730469 561.992188 C 375.730469 551.691406 379.515625 542.292969 386.390625 535.53125 C 393.277344 528.757812 402.890625 525.023438 413.453125 525.023438 C 424.019531 525.023438 433.628906 528.757812 440.519531 535.53125 C 447.390625 542.292969 451.179688 551.691406 451.179688 561.992188 C 451.179688 572.292969 447.390625 581.691406 440.519531 588.453125 C 433.628906 595.230469 424.019531 598.960938 413.453125 598.960938 Z M 413.453125 534.742188 C 396.964844 534.742188 385.449219 545.949219 385.449219 561.992188 C 385.449219 578.035156 396.964844 589.242188 413.453125 589.242188 C 429.941406 589.242188 441.457031 578.035156 441.457031 561.992188 C 441.457031 545.949219 429.941406 534.742188 413.453125 534.742188 Z M 413.453125 534.742188 " fill-opacity="1" fill-rule="nonzero"/><g clip-path="url(#e08aea70d2)"><path fill="#ffffff" d="M 413.132812 508.84375 L 410.5625 508.84375 C 409.472656 508.839844 408.386719 508.785156 407.304688 508.679688 C 406.21875 508.570312 405.140625 508.410156 404.074219 508.195312 C 403.003906 507.984375 401.949219 507.71875 400.90625 507.398438 C 399.863281 507.082031 398.839844 506.714844 397.832031 506.296875 C 396.828125 505.878906 395.84375 505.414062 394.882812 504.902344 C 393.921875 504.386719 392.988281 503.828125 392.082031 503.222656 C 391.175781 502.617188 390.304688 501.96875 389.460938 501.277344 C 388.617188 500.585938 387.8125 499.851562 387.042969 499.082031 C 386.269531 498.3125 385.539062 497.503906 384.847656 496.664062 C 384.15625 495.820312 383.507812 494.945312 382.902344 494.042969 C 382.296875 493.136719 381.738281 492.203125 381.222656 491.242188 C 380.710938 490.28125 380.242188 489.296875 379.824219 488.289062 C 379.410156 487.285156 379.039062 486.257812 378.722656 485.21875 C 378.40625 484.175781 378.140625 483.117188 377.929688 482.050781 C 377.714844 480.980469 377.554688 479.90625 377.445312 478.820312 C 377.339844 477.738281 377.285156 476.648438 377.28125 475.558594 C 377.28125 452.390625 380.910156 434.75 388.699219 420.042969 C 395.78125 406.671875 406.171875 395.777344 422.386719 384.722656 C 438.765625 373.664062 454.21875 363.234375 454.21875 344.898438 C 454.21875 324.636719 437.460938 309.355469 415.234375 309.355469 C 398.292969 309.355469 384.015625 318.265625 375.035156 334.4375 C 367.132812 348.667969 348.554688 359.816406 332.738281 359.816406 C 332.035156 359.816406 331.332031 359.796875 330.628906 359.753906 C 329.925781 359.710938 329.226562 359.644531 328.527344 359.558594 C 327.832031 359.472656 327.136719 359.363281 326.445312 359.234375 C 325.753906 359.101562 325.066406 358.949219 324.382812 358.777344 C 323.699219 358.605469 323.023438 358.410156 322.355469 358.195312 C 321.683594 357.980469 321.019531 357.746094 320.367188 357.488281 C 319.710938 357.234375 319.0625 356.957031 318.425781 356.660156 C 317.789062 356.363281 317.160156 356.046875 316.539062 355.710938 C 315.921875 355.375 315.3125 355.019531 314.71875 354.648438 C 314.121094 354.273438 313.539062 353.882812 312.964844 353.472656 C 312.394531 353.0625 311.835938 352.632812 311.289062 352.191406 C 310.742188 351.746094 310.210938 351.285156 309.695312 350.804688 C 309.179688 350.328125 308.679688 349.835938 308.191406 349.324219 C 307.707031 348.816406 307.238281 348.292969 306.785156 347.753906 C 306.328125 347.214844 305.894531 346.664062 305.476562 346.097656 C 305.054688 345.53125 304.65625 344.953125 304.273438 344.363281 C 303.890625 343.773438 303.523438 343.171875 303.179688 342.558594 C 302.835938 341.945312 302.507812 341.320312 302.203125 340.6875 C 301.894531 340.054688 301.609375 339.414062 301.34375 338.761719 C 301.074219 338.109375 300.828125 337.449219 300.605469 336.785156 C 300.378906 336.117188 300.175781 335.445312 299.992188 334.765625 C 299.808594 334.085938 299.644531 333.402344 299.503906 332.710938 C 299.363281 332.023438 299.246094 331.328125 299.148438 330.632812 C 299.050781 329.933594 298.972656 329.234375 298.917969 328.535156 C 298.863281 327.832031 298.832031 327.128906 298.824219 326.425781 C 298.8125 325.722656 298.824219 325.019531 298.855469 324.316406 C 298.890625 323.613281 298.945312 322.910156 299.023438 322.210938 C 299.101562 321.511719 299.199219 320.816406 299.320312 320.121094 C 299.441406 319.429688 299.582031 318.738281 299.746094 318.054688 C 299.910156 317.371094 300.09375 316.691406 300.300781 316.019531 C 300.503906 315.347656 300.730469 314.679688 300.980469 314.019531 C 301.226562 313.363281 301.492188 312.710938 301.78125 312.070312 C 311.132812 291.398438 326.59375 274.125 346.496094 262.113281 C 366.855469 249.824219 391.519531 243.332031 417.816406 243.332031 C 449.859375 243.332031 479.261719 252.875 500.609375 270.207031 C 522.417969 287.910156 534.429688 312.605469 534.429688 339.738281 C 534.429688 358.617188 529.222656 374.703125 518.515625 388.921875 C 509.707031 400.613281 497.335938 410.902344 479.585938 421.296875 L 479.550781 421.320312 C 458.71875 433.277344 447.578125 444.53125 446.417969 470.820312 L 446.417969 475.558594 C 446.417969 476.648438 446.363281 477.734375 446.253906 478.816406 C 446.144531 479.902344 445.984375 480.980469 445.773438 482.046875 C 445.558594 483.117188 445.292969 484.171875 444.976562 485.214844 C 444.660156 486.257812 444.292969 487.28125 443.875 488.289062 C 443.457031 489.296875 442.992188 490.277344 442.476562 491.238281 C 441.964844 492.199219 441.402344 493.132812 440.796875 494.039062 C 440.191406 494.945312 439.542969 495.820312 438.851562 496.664062 C 438.160156 497.503906 437.429688 498.3125 436.660156 499.082031 C 435.886719 499.851562 435.082031 500.582031 434.238281 501.273438 C 433.398438 501.964844 432.523438 502.613281 431.617188 503.222656 C 430.710938 503.828125 429.777344 504.386719 428.816406 504.902344 C 427.855469 505.414062 426.871094 505.878906 425.867188 506.296875 C 424.859375 506.714844 423.835938 507.082031 422.792969 507.398438 C 421.75 507.71875 420.695312 507.984375 419.625 508.195312 C 418.558594 508.410156 417.480469 508.570312 416.394531 508.679688 C 415.3125 508.785156 414.222656 508.839844 413.132812 508.84375 Z M 415.234375 299.636719 C 428.496094 299.636719 440.773438 304.234375 449.804688 312.585938 C 452.046875 314.636719 454.046875 316.898438 455.8125 319.371094 C 457.582031 321.839844 459.074219 324.464844 460.289062 327.25 C 461.507812 330.03125 462.421875 332.910156 463.035156 335.882812 C 463.652344 338.855469 463.953125 341.863281 463.9375 344.898438 C 463.9375 368.402344 444.761719 381.347656 427.839844 392.769531 C 402.636719 409.953125 387 429.804688 387 475.5625 C 387.003906 476.332031 387.042969 477.101562 387.117188 477.871094 C 387.195312 478.636719 387.308594 479.398438 387.457031 480.15625 C 387.609375 480.914062 387.796875 481.660156 388.023438 482.398438 C 388.246094 483.136719 388.507812 483.863281 388.800781 484.574219 C 389.097656 485.285156 389.429688 485.984375 389.792969 486.664062 C 390.15625 487.34375 390.550781 488.003906 390.980469 488.644531 C 391.410156 489.285156 391.867188 489.90625 392.359375 490.5 C 392.847656 491.097656 393.367188 491.667969 393.910156 492.214844 C 394.457031 492.761719 395.027344 493.277344 395.625 493.765625 C 396.21875 494.257812 396.839844 494.714844 397.480469 495.144531 C 398.121094 495.574219 398.78125 495.96875 399.460938 496.332031 C 400.140625 496.695312 400.839844 497.027344 401.550781 497.324219 C 402.265625 497.617188 402.988281 497.878906 403.726562 498.101562 C 404.464844 498.328125 405.210938 498.515625 405.96875 498.667969 C 406.726562 498.816406 407.488281 498.929688 408.253906 499.007812 C 409.023438 499.082031 409.792969 499.121094 410.5625 499.125 L 413.132812 499.125 C 413.859375 499.121094 414.585938 499.089844 415.308594 499.019531 C 416.027344 498.953125 416.746094 498.851562 417.460938 498.71875 C 418.171875 498.582031 418.878906 498.417969 419.578125 498.21875 C 420.273438 498.019531 420.960938 497.789062 421.636719 497.527344 C 422.3125 497.261719 422.976562 496.96875 423.625 496.648438 C 424.277344 496.324219 424.910156 495.96875 425.527344 495.589844 C 426.144531 495.207031 426.742188 494.796875 427.320312 494.359375 C 427.898438 493.921875 428.457031 493.460938 428.992188 492.972656 C 429.53125 492.480469 430.042969 491.96875 430.53125 491.433594 C 431.019531 490.898438 431.484375 490.339844 431.921875 489.761719 C 432.359375 489.183594 432.769531 488.585938 433.152344 487.96875 C 433.535156 487.351562 433.890625 486.71875 434.214844 486.070312 C 434.539062 485.421875 434.832031 484.757812 435.09375 484.082031 C 435.355469 483.40625 435.589844 482.71875 435.789062 482.023438 C 435.988281 481.324219 436.15625 480.617188 436.289062 479.90625 C 436.425781 479.191406 436.527344 478.476562 436.59375 477.753906 L 436.59375 475.558594 C 436.59375 441.453125 450.5625 426.753906 474.695312 412.902344 C 509.75 392.363281 524.707031 370.480469 524.707031 339.738281 C 524.707031 289.507812 479.753906 253.050781 417.816406 253.050781 C 368.554688 253.050781 328.488281 276.609375 310.636719 316.074219 C 309.808594 317.902344 309.21875 319.804688 308.871094 321.78125 C 308.519531 323.757812 308.421875 325.746094 308.570312 327.75 C 308.722656 329.75 309.121094 331.703125 309.761719 333.605469 C 310.40625 335.507812 311.273438 337.296875 312.367188 338.980469 C 313.460938 340.6875 314.75 342.234375 316.234375 343.617188 C 317.71875 344.996094 319.351562 346.175781 321.132812 347.144531 C 322.910156 348.117188 324.785156 348.851562 326.75 349.351562 C 328.714844 349.851562 330.710938 350.097656 332.738281 350.097656 C 344.925781 350.097656 360.40625 340.765625 366.539062 329.71875 C 377.152344 310.601562 394.902344 299.636719 415.234375 299.636719 Z M 415.234375 299.636719 " fill-opacity="1" fill-rule="nonzero"/></g></svg>