<svg xmlns="http://www.w3.org/2000/svg" xmlns:xlink="http://www.w3.org/1999/xlink" width="1080" zoomAndPan="magnify" viewBox="0 0 810 809.999993" height="1080" preserveAspectRatio="xMidYMid meet" version="1.0"><defs><clipPath id="d0182eaba4"><path d="M 493 224.621094 L 530 224.621094 L 530 324 L 493 324 Z M 493 224.621094 " clip-rule="nonzero"/></clipPath><clipPath id="993dfa38ae"><path d="M 460.835938 408.617188 L 567.511719 408.617188 L 567.511719 585.371094 L 460.835938 585.371094 Z M 460.835938 408.617188 " clip-rule="nonzero"/></clipPath><clipPath id="3e1217ab9d"><path d="M 279 224.621094 L 316 224.621094 L 316 324 L 279 324 Z M 279 224.621094 " clip-rule="nonzero"/></clipPath><clipPath id="a68c80288a"><path d="M 241.605469 408.617188 L 348 408.617188 L 348 585.371094 L 241.605469 585.371094 Z M 241.605469 408.617188 " clip-rule="nonzero"/></clipPath><clipPath id="834b18cfcd"><path d="M 226.875 444 L 364 444 L 364 486 L 226.875 486 Z M 226.875 444 " clip-rule="nonzero"/></clipPath><clipPath id="23f9b58fad"><path d="M 446.15625 444 L 583.066406 444 L 583.066406 485.933594 L 446.15625 485.933594 Z M 446.15625 444 " clip-rule="nonzero"/></clipPath></defs><path fill="#ffffff" d="M 542.730469 318.359375 C 542.730469 321.46875 545.253906 323.992188 548.363281 323.992188 C 551.476562 323.992188 554.003906 321.46875 554.003906 318.359375 L 554.003906 278.765625 C 554.003906 276.925781 554.761719 275.25 555.980469 274.03125 C 557.199219 272.808594 558.875 272.058594 560.714844 272.058594 L 560.722656 272.058594 L 560.722656 272.035156 C 562.558594 272.035156 564.242188 272.796875 565.472656 274.03125 C 566.691406 275.25 567.449219 276.921875 567.449219 278.757812 L 567.425781 278.757812 L 567.425781 278.765625 L 567.449219 278.765625 L 567.425781 310.183594 L 567.402344 310.183594 C 567.402344 322.683594 567.425781 319.632812 567.445312 341.582031 C 567.445312 342.441406 567.445312 340.757812 567.445312 372.984375 L 567.445312 373.039062 L 567.464844 373.039062 C 567.457031 389.292969 561.941406 401.542969 552.21875 409.660156 C 542.265625 417.96875 527.75 422.191406 510.035156 422.191406 L 509.953125 422.191406 L 509.953125 422.214844 C 495.105469 422.203125 484.09375 420.101562 476.421875 414.660156 C 468.960938 409.375 464.285156 400.542969 461.832031 386.921875 C 459.949219 376.421875 457.296875 368.097656 454.628906 359.707031 C 451.578125 350.121094 448.496094 340.441406 446.65625 327.257812 C 445.054688 315.835938 444.511719 304.304688 445.953125 295.949219 C 446.847656 290.761719 448.277344 287.21875 450.40625 286.734375 C 451.316406 286.523438 452.40625 290.199219 453.53125 295.125 C 454.4375 299.074219 455.144531 303.847656 455.847656 308.570312 C 458.179688 324.261719 460.429688 339.4375 472.394531 337.410156 C 480.035156 336.121094 479.96875 328.132812 479.890625 317.792969 C 479.886719 317.585938 479.894531 318.191406 479.894531 314.324219 L 479.894531 310.183594 L 479.871094 310.183594 L 479.886719 254.457031 C 479.886719 252.371094 480.683594 250.488281 481.972656 249.125 C 483.175781 247.851562 484.824219 247.0625 486.617188 247.0625 C 488.410156 247.0625 490.058594 247.851562 491.265625 249.128906 C 492.539062 250.472656 493.332031 252.355469 493.332031 254.457031 L 493.332031 318.359375 C 493.332031 321.46875 495.855469 323.992188 498.964844 323.992188 C 502.082031 323.992188 504.605469 321.46875 504.605469 318.359375 L 504.605469 254.457031 C 504.605469 249.386719 502.617188 244.757812 499.414062 241.375 C 496.144531 237.929688 491.613281 235.789062 486.617188 235.789062 C 481.621094 235.789062 477.089844 237.929688 473.820312 241.375 C 470.632812 244.742188 468.652344 249.371094 468.652344 254.457031 L 468.636719 310.183594 L 468.613281 310.183594 L 468.613281 314.324219 C 468.613281 315.789062 468.636719 315.402344 468.65625 317.878906 L 468.65625 317.890625 C 468.136719 314.671875 467.566406 310.832031 466.988281 306.9375 C 466.265625 302.066406 465.535156 297.132812 464.496094 292.617188 C 461.941406 281.445312 457.546875 273.558594 447.894531 275.769531 C 440.550781 277.445312 436.519531 284.375 434.851562 294.058594 C 433.207031 303.601562 433.769531 316.351562 435.511719 328.796875 C 437.476562 342.8125 440.71875 353.007812 443.929688 363.097656 C 446.484375 371.128906 449.019531 379.097656 450.78125 388.902344 C 453.785156 405.625 459.917969 416.746094 469.902344 423.820312 C 479.679688 430.75 492.769531 433.433594 509.953125 433.441406 L 509.953125 433.464844 L 510.035156 433.464844 C 530.394531 433.464844 547.394531 428.351562 559.4375 418.292969 C 571.714844 408.042969 578.683594 392.890625 578.695312 373.039062 L 578.71875 373.039062 L 578.71875 372.984375 C 578.71875 361.691406 578.695312 363.378906 578.675781 341.582031 C 578.671875 340.566406 578.675781 343.621094 578.675781 310.183594 L 578.65625 310.183594 L 578.675781 278.765625 L 578.699219 278.765625 L 578.699219 278.757812 L 578.675781 278.757812 C 578.675781 273.808594 576.660156 269.3125 573.402344 266.058594 C 570.160156 262.816406 565.671875 260.804688 560.722656 260.800781 L 560.722656 260.777344 L 560.714844 260.777344 C 555.761719 260.777344 551.261719 262.800781 548.003906 266.058594 C 544.746094 269.316406 542.730469 273.816406 542.730469 278.765625 Z M 469.214844 321.203125 C 470.175781 324.214844 471.910156 326.085938 470.546875 326.3125 C 470.238281 326.367188 469.773438 324.351562 469.214844 321.203125 " fill-opacity="1" fill-rule="nonzero"/><g clip-path="url(#d0182eaba4)"><path fill="#ffffff" d="M 518.027344 318.359375 C 518.027344 321.46875 520.550781 323.992188 523.667969 323.992188 C 526.777344 323.992188 529.300781 321.46875 529.300781 318.359375 L 529.300781 242.609375 C 529.300781 237.652344 527.28125 233.15625 524.023438 229.898438 C 520.765625 226.644531 516.269531 224.621094 511.316406 224.621094 C 506.363281 224.621094 501.867188 226.644531 498.609375 229.898438 C 495.351562 233.15625 493.332031 237.652344 493.332031 242.609375 L 493.332031 318.359375 C 493.332031 321.46875 495.855469 323.992188 498.964844 323.992188 C 502.082031 323.992188 504.605469 321.46875 504.605469 318.359375 L 504.605469 242.609375 C 504.605469 240.769531 505.363281 239.089844 506.582031 237.871094 C 507.796875 236.652344 509.476562 235.894531 511.316406 235.894531 C 513.15625 235.894531 514.835938 236.652344 516.050781 237.871094 C 517.269531 239.089844 518.027344 240.765625 518.027344 242.609375 L 518.027344 318.359375 " fill-opacity="1" fill-rule="nonzero"/></g><path fill="#ffffff" d="M 518.027344 318.359375 C 518.027344 321.46875 520.550781 323.992188 523.667969 323.992188 C 526.777344 323.992188 529.300781 321.46875 529.300781 318.359375 L 529.300781 260.6875 C 529.300781 258.847656 530.058594 257.167969 531.277344 255.949219 C 532.5 254.730469 534.175781 253.972656 536.015625 253.972656 C 537.855469 253.972656 539.53125 254.730469 540.753906 255.949219 C 541.972656 257.167969 542.730469 258.847656 542.730469 260.6875 L 542.730469 318.359375 C 542.730469 321.46875 545.253906 323.992188 548.363281 323.992188 C 551.476562 323.992188 554.003906 321.46875 554.003906 318.359375 L 554.003906 260.6875 C 554.003906 255.730469 551.980469 251.238281 548.722656 247.980469 C 545.464844 244.722656 540.96875 242.699219 536.015625 242.699219 C 531.066406 242.699219 526.566406 244.722656 523.308594 247.980469 C 520.050781 251.238281 518.027344 255.730469 518.027344 260.6875 L 518.027344 318.359375 " fill-opacity="1" fill-rule="nonzero"/><g clip-path="url(#993dfa38ae)"><path fill="#ffffff" d="M 561.226562 414.773438 C 561.453125 411.671875 559.128906 408.96875 556.023438 408.738281 C 552.925781 408.507812 550.226562 410.835938 549.992188 413.9375 C 549.492188 420.574219 549.113281 426.941406 548.839844 433.089844 C 548.574219 438.914062 548.425781 444.421875 548.371094 449.6875 C 548.347656 452.789062 550.839844 455.324219 553.945312 455.34375 C 557.046875 455.371094 559.582031 452.875 559.605469 449.777344 C 559.652344 444.84375 559.800781 439.480469 560.070312 433.574219 C 560.320312 427.992188 560.695312 421.769531 561.226562 414.773438 Z M 560.511719 480.195312 C 560.300781 477.089844 557.621094 474.746094 554.519531 474.949219 C 551.417969 475.160156 549.070312 477.839844 549.277344 480.941406 C 549.894531 489.757812 550.773438 498.085938 551.683594 506.753906 C 553.566406 524.65625 555.605469 544.035156 555.835938 574.136719 L 473.628906 574.136719 C 470.234375 548.15625 473.386719 521.042969 476.527344 494 C 477 489.972656 477.464844 485.9375 477.980469 481.277344 C 478.320312 478.1875 476.09375 475.410156 473.007812 475.070312 C 469.914062 474.730469 467.136719 476.953125 466.796875 480.042969 C 466.375 483.84375 465.863281 488.277344 465.34375 492.722656 C 461.941406 522.007812 458.527344 551.382812 463.15625 580.25 C 463.398438 583.140625 465.824219 585.410156 468.777344 585.410156 L 561.492188 585.410156 C 564.605469 585.410156 567.132812 582.886719 567.132812 579.769531 C 567.132812 546.101562 564.910156 525.003906 562.867188 505.609375 C 561.980469 497.179688 561.128906 489.082031 560.511719 480.195312 Z M 469.402344 449.242188 C 469.269531 452.34375 471.671875 454.96875 474.777344 455.101562 C 477.878906 455.234375 480.5 452.828125 480.632812 449.726562 C 480.859375 444.8125 480.96875 439.859375 480.917969 434.851562 C 480.867188 429.703125 480.660156 424.730469 480.261719 419.980469 C 480.007812 416.878906 477.285156 414.570312 474.183594 414.824219 C 471.082031 415.082031 468.777344 417.804688 469.03125 420.902344 C 469.4375 425.734375 469.640625 430.402344 469.6875 434.9375 C 469.734375 439.617188 469.628906 444.394531 469.402344 449.242188 " fill-opacity="1" fill-rule="nonzero"/></g><path fill="#ffffff" d="M 254.828125 318.359375 C 254.828125 321.46875 257.351562 323.992188 260.46875 323.992188 C 263.582031 323.992188 266.105469 321.46875 266.105469 318.359375 L 266.105469 278.765625 C 266.105469 273.816406 264.082031 269.316406 260.824219 266.058594 C 257.566406 262.800781 253.070312 260.777344 248.117188 260.777344 L 248.109375 260.777344 L 248.109375 260.800781 C 243.15625 260.804688 238.671875 262.816406 235.425781 266.058594 C 232.175781 269.3125 230.152344 273.808594 230.152344 278.757812 L 230.128906 278.757812 L 230.128906 278.765625 L 230.152344 278.765625 L 230.175781 310.183594 L 230.152344 310.183594 C 230.152344 342.410156 230.15625 340.726562 230.15625 341.582031 C 230.136719 363.378906 230.113281 359.828125 230.113281 372.984375 L 230.113281 373.039062 L 230.136719 373.039062 C 230.148438 392.890625 237.113281 408.042969 249.394531 418.292969 C 261.441406 428.351562 278.4375 433.464844 298.796875 433.464844 L 298.875 433.464844 L 298.875 433.441406 C 316.0625 433.433594 329.148438 430.75 338.929688 423.820312 C 348.914062 416.746094 355.042969 405.625 358.050781 388.902344 C 359.8125 379.097656 362.347656 371.128906 364.902344 363.097656 C 368.113281 353.007812 371.355469 342.8125 373.316406 328.796875 C 375.066406 316.351562 375.625 303.601562 373.980469 294.058594 C 372.308594 284.375 368.28125 277.445312 360.9375 275.769531 C 351.285156 273.558594 346.890625 281.445312 344.332031 292.617188 C 343.300781 297.132812 342.566406 302.066406 341.84375 306.941406 C 341.265625 310.832031 340.695312 314.667969 340.175781 317.890625 L 340.175781 317.878906 C 340.195312 315.40625 340.214844 315.789062 340.214844 314.324219 L 340.214844 310.183594 L 340.195312 310.183594 L 340.179688 254.457031 C 340.175781 249.371094 338.195312 244.742188 335.007812 241.375 C 331.738281 237.929688 327.210938 235.789062 322.214844 235.789062 L 322.210938 235.789062 C 317.214844 235.789062 312.6875 237.929688 309.417969 241.375 C 306.214844 244.757812 304.226562 249.386719 304.226562 254.457031 L 304.226562 318.359375 C 304.226562 321.46875 306.75 323.992188 309.863281 323.992188 C 312.976562 323.992188 315.5 321.46875 315.5 318.359375 L 315.5 254.457031 C 315.5 252.355469 316.292969 250.472656 317.566406 249.128906 C 318.773438 247.851562 320.421875 247.0625 322.210938 247.0625 L 322.214844 247.0625 C 324.007812 247.0625 325.652344 247.851562 326.859375 249.125 C 328.148438 250.488281 328.945312 252.371094 328.945312 254.457031 L 328.960938 310.183594 L 328.941406 310.183594 L 328.941406 314.324219 C 328.941406 318.195312 328.941406 317.589844 328.941406 317.792969 C 328.863281 328.132812 328.796875 336.121094 336.4375 337.410156 C 348.398438 339.4375 350.65625 324.261719 352.984375 308.570312 C 353.6875 303.851562 354.394531 299.074219 355.296875 295.128906 C 356.425781 290.199219 357.511719 286.523438 358.425781 286.734375 C 360.550781 287.21875 361.984375 290.761719 362.878906 295.949219 C 364.320312 304.304688 363.773438 315.835938 362.175781 327.257812 C 360.332031 340.441406 357.25 350.121094 354.203125 359.707031 C 351.53125 368.097656 348.882812 376.421875 346.996094 386.921875 C 344.550781 400.542969 339.875 409.375 332.410156 414.660156 C 324.738281 420.101562 313.726562 422.203125 298.875 422.214844 L 298.875 422.191406 L 298.796875 422.191406 C 281.082031 422.191406 266.566406 417.96875 256.613281 409.660156 C 246.894531 401.542969 241.375 389.292969 241.363281 373.039062 L 241.386719 373.039062 L 241.386719 372.984375 C 241.386719 338.890625 241.382812 342.441406 241.386719 341.582031 C 241.40625 319.792969 241.429688 321.476562 241.429688 310.183594 L 241.40625 310.183594 L 241.382812 278.765625 L 241.40625 278.765625 L 241.40625 278.757812 L 241.382812 278.757812 C 241.382812 276.921875 242.140625 275.25 243.355469 274.03125 C 244.585938 272.796875 246.273438 272.035156 248.109375 272.035156 L 248.109375 272.058594 L 248.117188 272.058594 C 249.953125 272.058594 251.632812 272.808594 252.851562 274.03125 C 254.074219 275.25 254.828125 276.925781 254.828125 278.765625 Z M 338.285156 326.3125 C 336.917969 326.085938 338.65625 324.214844 339.617188 321.203125 C 339.058594 324.355469 338.59375 326.367188 338.285156 326.3125 " fill-opacity="1" fill-rule="nonzero"/><g clip-path="url(#3e1217ab9d)"><path fill="#ffffff" d="M 279.527344 318.359375 C 279.527344 321.46875 282.054688 323.992188 285.164062 323.992188 C 288.277344 323.992188 290.804688 321.46875 290.804688 318.359375 L 290.804688 242.609375 C 290.804688 240.769531 291.558594 239.089844 292.777344 237.871094 C 293.996094 236.652344 295.675781 235.894531 297.515625 235.894531 C 299.351562 235.894531 301.03125 236.652344 302.25 237.871094 C 303.46875 239.089844 304.226562 240.769531 304.226562 242.609375 L 304.226562 318.359375 C 304.226562 321.46875 306.75 323.992188 309.863281 323.992188 C 312.976562 323.992188 315.5 321.46875 315.5 318.359375 L 315.5 242.609375 C 315.5 237.652344 313.480469 233.15625 310.222656 229.898438 C 306.964844 226.644531 302.464844 224.621094 297.515625 224.621094 C 292.5625 224.621094 288.0625 226.644531 284.804688 229.898438 C 281.546875 233.15625 279.527344 237.652344 279.527344 242.609375 L 279.527344 318.359375 " fill-opacity="1" fill-rule="nonzero"/></g><path fill="#ffffff" d="M 279.527344 318.359375 C 279.527344 321.46875 282.054688 323.992188 285.164062 323.992188 C 288.277344 323.992188 290.804688 321.46875 290.804688 318.359375 L 290.804688 260.6875 C 290.804688 255.730469 288.78125 251.238281 285.523438 247.980469 C 282.265625 244.722656 277.769531 242.699219 272.816406 242.699219 C 267.863281 242.699219 263.367188 244.722656 260.109375 247.980469 C 256.851562 251.238281 254.828125 255.730469 254.828125 260.6875 L 254.828125 318.359375 C 254.828125 321.46875 257.351562 323.992188 260.46875 323.992188 C 263.582031 323.992188 266.105469 321.46875 266.105469 318.359375 L 266.105469 260.6875 C 266.105469 258.847656 266.859375 257.167969 268.082031 255.949219 C 269.300781 254.730469 270.972656 253.972656 272.816406 253.972656 C 274.65625 253.972656 276.335938 254.730469 277.550781 255.949219 C 278.769531 257.167969 279.527344 258.847656 279.527344 260.6875 L 279.527344 318.359375 " fill-opacity="1" fill-rule="nonzero"/><g clip-path="url(#a68c80288a)"><path fill="#ffffff" d="M 258.835938 413.9375 C 258.605469 410.835938 255.902344 408.507812 252.804688 408.738281 C 249.703125 408.96875 247.378906 411.671875 247.609375 414.773438 C 248.140625 421.84375 248.519531 428.140625 248.773438 433.785156 C 249.039062 439.746094 249.183594 445.160156 249.234375 450.140625 C 249.253906 453.242188 251.789062 455.734375 254.890625 455.710938 C 257.992188 455.691406 260.488281 453.15625 260.464844 450.050781 C 260.410156 444.75 260.265625 439.1875 260.003906 433.300781 C 259.726562 427.09375 259.34375 420.660156 258.835938 413.9375 Z M 259.570312 480.6875 C 259.78125 477.589844 257.433594 474.90625 254.332031 474.699219 C 251.230469 474.492188 248.546875 476.839844 248.339844 479.9375 C 247.71875 488.925781 246.859375 497.105469 245.960938 505.613281 C 243.917969 525.007812 241.699219 546.101562 241.699219 579.769531 C 241.699219 582.886719 244.222656 585.410156 247.335938 585.410156 L 340.058594 585.410156 C 343.007812 585.410156 345.433594 583.140625 345.671875 580.25 C 350.304688 551.382812 346.890625 522.007812 343.488281 492.722656 C 342.957031 488.179688 342.429688 483.636719 342 479.710938 C 341.660156 476.621094 338.878906 474.390625 335.789062 474.730469 C 332.703125 475.074219 330.472656 477.855469 330.8125 480.945312 C 331.335938 485.699219 331.816406 489.847656 332.304688 494 C 335.445312 521.042969 338.597656 548.15625 335.203125 574.136719 L 253 574.136719 C 253.222656 544.035156 255.265625 524.65625 257.148438 506.757812 C 258.066406 498.007812 258.953125 489.601562 259.570312 480.6875 Z M 328.222656 450.234375 C 328.367188 453.335938 331 455.730469 334.101562 455.582031 C 337.199219 455.4375 339.59375 452.804688 339.449219 449.703125 C 339.214844 444.769531 339.097656 439.917969 339.144531 435.179688 C 339.183594 430.558594 339.386719 425.808594 339.800781 420.902344 C 340.058594 417.804688 337.746094 415.082031 334.648438 414.824219 C 331.546875 414.570312 328.824219 416.878906 328.570312 419.980469 C 328.164062 424.816406 327.957031 429.863281 327.910156 435.089844 C 327.863281 440.195312 327.984375 445.238281 328.222656 450.234375 " fill-opacity="1" fill-rule="nonzero"/></g><g clip-path="url(#834b18cfcd)"><path fill="#ffffff" d="M 247.597656 444.476562 L 343.054688 444.476562 C 348.742188 444.476562 353.914062 446.800781 357.660156 450.542969 C 361.402344 454.285156 363.726562 459.457031 363.726562 465.148438 C 363.726562 470.835938 361.402344 476.003906 357.660156 479.75 C 353.914062 483.492188 348.742188 485.816406 343.054688 485.816406 L 247.597656 485.816406 C 241.902344 485.816406 236.734375 483.492188 232.992188 479.75 C 229.25 476.003906 226.925781 470.835938 226.925781 465.148438 C 226.925781 459.457031 229.25 454.285156 232.992188 450.542969 C 236.734375 446.800781 241.902344 444.476562 247.597656 444.476562 Z M 343.054688 455.75 L 247.597656 455.75 C 245.015625 455.75 242.667969 456.808594 240.964844 458.515625 C 239.257812 460.21875 238.199219 462.566406 238.199219 465.148438 C 238.199219 467.726562 239.257812 470.070312 240.964844 471.777344 C 242.667969 473.480469 245.015625 474.542969 247.597656 474.542969 L 343.054688 474.542969 C 345.632812 474.542969 347.976562 473.480469 349.6875 471.777344 C 351.390625 470.070312 352.453125 467.726562 352.453125 465.148438 C 352.453125 462.566406 351.390625 460.21875 349.6875 458.515625 C 347.976562 456.808594 345.632812 455.75 343.054688 455.75 " fill-opacity="1" fill-rule="nonzero"/></g><g clip-path="url(#23f9b58fad)"><path fill="#ffffff" d="M 466.941406 444.476562 L 562.398438 444.476562 C 568.085938 444.476562 573.257812 446.800781 577 450.542969 C 580.746094 454.285156 583.070312 459.457031 583.070312 465.148438 C 583.070312 470.835938 580.746094 476.003906 577 479.75 C 573.257812 483.492188 568.085938 485.816406 562.398438 485.816406 L 466.941406 485.816406 C 461.25 485.816406 456.078125 483.492188 452.335938 479.75 C 448.59375 476.003906 446.269531 470.835938 446.269531 465.148438 C 446.269531 459.457031 448.59375 454.285156 452.335938 450.542969 C 456.078125 446.800781 461.25 444.476562 466.941406 444.476562 Z M 562.398438 455.75 L 466.941406 455.75 C 464.363281 455.75 462.011719 456.808594 460.308594 458.515625 C 458.601562 460.21875 457.542969 462.566406 457.542969 465.148438 C 457.542969 467.726562 458.601562 470.070312 460.308594 471.777344 C 462.011719 473.480469 464.363281 474.542969 466.941406 474.542969 L 562.398438 474.542969 C 564.976562 474.542969 567.324219 473.480469 569.03125 471.777344 C 570.734375 470.070312 571.792969 467.726562 571.792969 465.148438 C 571.792969 462.566406 570.734375 460.21875 569.03125 458.515625 C 567.324219 456.808594 564.976562 455.75 562.398438 455.75 " fill-opacity="1" fill-rule="nonzero"/></g><path fill="#ffffff" d="M 358.085938 459.507812 C 354.972656 459.507812 352.453125 462.03125 352.453125 465.148438 C 352.453125 468.261719 354.972656 470.78125 358.085938 470.78125 L 389.890625 470.78125 C 393.003906 470.78125 395.527344 468.261719 395.527344 465.148438 C 395.527344 462.03125 393.003906 459.507812 389.890625 459.507812 L 358.085938 459.507812 " fill-opacity="1" fill-rule="nonzero"/><path fill="#ffffff" d="M 389.886719 448.683594 L 420.109375 448.683594 C 423.21875 448.683594 425.742188 451.207031 425.742188 454.316406 L 425.742188 475.972656 C 425.742188 479.085938 423.21875 481.609375 420.109375 481.609375 L 389.886719 481.609375 C 386.773438 481.609375 384.25 479.085938 384.25 475.972656 L 384.25 454.316406 C 384.25 451.207031 386.773438 448.683594 389.886719 448.683594 Z M 414.46875 459.957031 L 395.527344 459.957031 L 395.527344 470.335938 L 414.46875 470.335938 L 414.46875 459.957031 " fill-opacity="1" fill-rule="nonzero"/><path fill="#ffffff" d="M 420.113281 459.507812 C 417 459.507812 414.476562 462.03125 414.476562 465.148438 C 414.476562 468.261719 417 470.78125 420.113281 470.78125 L 451.914062 470.78125 C 455.027344 470.78125 457.550781 468.261719 457.550781 465.148438 C 457.550781 462.03125 455.027344 459.507812 451.914062 459.507812 L 420.113281 459.507812 " fill-opacity="1" fill-rule="nonzero"/></svg>