<svg width="350" height="350" viewBox="0 0 350 350" fill="none" xmlns="http://www.w3.org/2000/svg">
<mask id="mask0_49_241" style="mask-type:luminance" maskUnits="userSpaceOnUse" x="128" y="0" width="94" height="139">
<path d="M128.547 0H221.88V138.146H128.547V0Z" fill="white"/>
</mask>
<g mask="url(#mask0_49_241)">
<path d="M175.208 0C149.474 0 128.672 22.1771 128.672 49.5521C128.672 72.5469 161.25 119.911 171.927 134.969C172.745 136.063 174.115 136.885 175.208 136.885C176.578 136.885 177.672 136.333 178.495 134.969C189.172 120.182 221.75 72.5469 221.75 49.5521C221.75 22.1771 200.943 0 175.208 0ZM175.208 65.7031C164.531 65.7031 156.047 57.2188 156.047 46.5417C156.047 35.8646 164.531 27.375 175.208 27.375C185.885 27.375 194.375 35.8646 194.375 46.5417C194.375 57.2188 185.885 65.7031 175.208 65.7031Z" fill="white"/>
</g>
<path d="M147.834 219.016H202.589V229.964H147.834V219.016Z" fill="white"/>
<mask id="mask1_49_241" style="mask-type:luminance" maskUnits="userSpaceOnUse" x="0" y="103" width="350" height="247">
<path d="M0 103.479H350V350H0V103.479Z" fill="white"/>
</mask>
<g mask="url(#mask1_49_241)">
<path d="M350.422 164.26C350.422 161.25 349.052 158.51 346.589 156.594L287.453 108.958C283.62 105.948 278.422 104.031 273.495 104.031H211.896C203.682 117.995 194.646 131.406 187.531 141.536L187.255 141.813C194.375 140.99 199.026 139.896 200.943 139.073C202.042 137.703 203.682 136.885 205.323 136.885C208.333 136.885 210.802 139.349 210.802 142.359C210.802 151.943 188.349 153.307 175.208 153.307C162.068 153.307 139.62 151.943 139.62 142.359C139.62 139.349 142.083 136.885 145.094 136.885C147.01 136.885 148.656 137.703 149.474 139.073C151.391 139.896 156.047 140.99 163.167 141.813L162.891 141.536C155.771 131.682 146.74 118.266 138.526 104.031H77.2031C72 104.031 67.0729 105.672 63.2396 108.958L3.83333 156.594C1.36979 158.51 0.270833 161.25 0 164.26V186.161C0 192.182 4.92708 197.109 10.9479 197.109H27.375V317.568H23.2708C17.2448 317.568 12.3177 322.495 12.3177 328.521V339.469C12.3177 345.495 17.2448 350.422 23.2708 350.422H327.151C333.172 350.422 338.099 345.495 338.099 339.469V328.521C338.099 322.495 333.172 317.568 327.151 317.568H323.042V197.109H339.469C345.495 197.109 350.422 192.182 350.422 186.161V164.26ZM327.151 328.521V339.469H23.2708V328.521H327.151ZM54.75 262.818H82.1302V290.193H65.7031C59.6823 290.193 54.75 285.266 54.75 279.24V262.818ZM93.0781 262.818H120.458V279.24C120.458 285.266 115.531 290.193 109.505 290.193H93.0781V262.818ZM120.458 251.865H93.0781V224.49H109.505C115.531 224.49 120.458 229.417 120.458 235.438V251.865ZM82.1302 251.865H54.75V235.438C54.75 229.417 59.6823 224.49 65.7031 224.49H82.1302V251.865ZM156.047 240.917V317.568H145.094V240.641C140.443 239.271 136.88 235.167 136.88 229.964V219.016C136.88 212.99 141.813 208.063 147.833 208.063H202.589C208.609 208.063 213.536 212.99 213.536 219.016V229.964C213.536 235.167 209.979 239.271 205.323 240.641V317.568H194.375V240.917H156.047ZM257.339 262.818V290.193H240.917C234.891 290.193 229.964 285.266 229.964 279.24V262.818H257.339ZM229.964 251.865V235.438C229.964 229.417 234.891 224.49 240.917 224.49H257.339V251.865H229.964ZM295.667 262.818V279.24C295.667 285.266 290.74 290.193 284.719 290.193H268.292V262.818H295.667ZM268.292 251.865V224.49H284.719C290.74 224.49 295.667 229.417 295.667 235.438V251.865H268.292ZM339.469 186.161H10.9479V175.208H339.469V186.161Z" fill="white"/>
</g>
</svg>
