<svg width="358" height="360" viewBox="0 0 358 360" fill="none" xmlns="http://www.w3.org/2000/svg">
<path d="M71.3474 51.5678C73.6963 52.9063 74.2015 55.4948 75.2797 57.8178C76.5557 60.573 78.238 63.2709 79.6651 65.9844C82.8942 72.1355 86.1286 78.2865 89.3734 84.4376C95.7796 96.5886 102.202 108.734 108.603 120.891C109.556 122.698 110.53 124.568 110.702 126.604C111.165 132.068 102.295 138.214 98.1651 140.766C87.6599 147.25 77.5036 152.073 70.2849 162.682C69.1547 164.339 68.1182 166.115 67.7015 168.078C66.6703 172.917 71.389 179.594 73.4411 183.802C76.1599 189.38 79.0869 194.865 82.2119 200.229C88.4932 211.005 95.5817 221.323 103.446 231.01C124.056 256.401 150.155 277.568 180.394 290.359C182.488 291.25 195.42 277.464 197.316 275.245C202.139 269.599 206.311 263.458 211.691 258.292C219.024 251.255 225.04 248.38 234.004 254.609C251.879 267.042 270.134 278.932 288.728 290.26C314.321 305.844 277.175 345.37 260.613 352.464C224.134 368.083 180.967 354.552 148.129 336.474C81.8005 299.958 30.4411 237.12 7.85256 164.849C2.49319 147.698 -1.32973 129.708 0.435896 111.828C3.05569 85.448 20.5713 62.5678 45.8526 54.1928C52.6182 51.9532 59.7276 50.7605 66.8526 50.724C68.2067 50.7188 69.6026 50.7605 70.8421 51.3126C71.0192 51.3907 71.1859 51.474 71.3474 51.5678Z" fill="white"/>
<mask id="mask0_49_242" style="mask-type:luminance" maskUnits="userSpaceOnUse" x="175" y="0" width="183" height="186">
<path d="M175.607 0H357.696V185.995H175.607V0Z" fill="white"/>
</mask>
<g mask="url(#mask0_49_242)">
<path d="M342.295 106.802C333.55 87.3127 321.535 69.6408 306.566 54.2814C291.597 38.9169 274.243 26.4429 254.983 17.1981C235.144 7.68248 213.925 1.91685 191.925 0.0626864C187.29 -0.327939 182.853 1.07831 179.759 3.92727C177.363 6.12519 176.05 8.97415 176.056 11.9481C176.056 18.6044 182.092 24.3387 189.8 25.0002C266.842 31.4846 328.384 94.5731 332.8 171.761V171.766C333.259 179.49 338.842 185.667 345.493 185.844C345.785 185.849 346.071 185.849 346.358 185.834C349.024 185.672 351.571 184.459 353.613 182.354C356.54 179.334 358.061 174.938 357.785 170.292C356.509 148.24 351.295 126.886 342.295 106.802Z" fill="white"/>
</g>
<path d="M265.316 94.474C253.41 82.2552 239.629 72.3021 224.342 64.875C208.603 57.2396 191.77 52.5365 174.301 50.9011C169.973 50.4896 165.832 51.7656 162.957 54.3906C160.785 56.3698 159.592 58.9323 159.598 61.6042L159.566 63.9063V63.9479C159.572 66.9844 160.931 69.8906 163.4 72.125C165.686 74.1979 168.691 75.5104 171.921 75.8177C231.4 81.3906 277.577 128.688 281.493 188.297V188.302C281.816 191.526 282.978 194.599 284.983 196.938C287.155 199.458 290.035 200.896 293.077 200.979L295.421 201.01C295.676 201.016 295.936 201.01 296.191 200.995C298.592 200.854 300.884 199.755 302.723 197.839C305.426 195.031 306.806 190.927 306.509 186.583C305.327 169.083 301.061 152.13 293.832 136.203C286.811 120.729 277.217 106.688 265.316 94.474Z" fill="white"/>
<path d="M240.691 164.505C235.941 154.323 229.545 145.068 221.675 136.995C213.811 128.917 204.722 122.286 194.67 117.271C184.337 112.125 173.269 108.844 161.78 107.516C157.915 107.068 154.097 108.156 151.571 110.422C149.748 112.057 148.748 114.172 148.759 116.38L148.681 122.328V122.38C148.696 124.927 149.837 127.365 151.894 129.24C153.764 130.953 156.243 132.062 158.884 132.375C193.873 136.411 221.535 164.802 224.66 199.885V199.891C224.905 202.531 225.957 205.036 227.613 206.953C229.436 209.057 231.847 210.26 234.394 210.344L240.394 210.422C240.608 210.427 240.821 210.422 241.03 210.411C243.009 210.297 244.899 209.37 246.42 207.766C248.754 205.292 249.936 201.51 249.587 197.641C248.561 186.115 245.566 174.969 240.691 164.505Z" fill="white"/>
</svg>
