<svg width="365" height="365" viewBox="0 0 365 365" fill="none" xmlns="http://www.w3.org/2000/svg">
<path d="M266.401 135.162H318.172C317.677 112.146 311.505 90.0106 300.76 70.5366H260.234C264.167 91.7762 266.224 113.365 266.401 135.162Z" fill="white"/>
<path d="M297.271 64.5467C284.74 44.2655 267.078 27.2811 245.688 15.7915C251.276 31.7759 255.75 48.0519 259.089 64.5467H297.271Z" fill="white"/>
<path d="M146.526 288.802C142.698 288.938 138.875 288.75 135.115 288.25C131.839 287.813 128.599 287.136 125.417 286.219C127.526 287.995 129.933 289.438 132.568 290.589H230.881V241.219C226.948 238.422 222.729 235.995 218.328 234.005C216.245 233.068 214.084 232.255 211.901 231.505C211.933 231.979 211.974 232.474 211.99 232.927C212.235 238.922 212.563 247.13 207.719 250.287C206.469 251.099 205.037 251.474 203.485 251.474C200.36 251.474 196.729 249.943 193.026 247.589V281.427C193.026 283.083 191.688 284.422 190.032 284.422H175.058C173.401 284.422 172.063 283.083 172.063 281.427V247.589C168.36 249.943 164.724 251.474 161.604 251.474C160.047 251.474 158.62 251.104 157.365 250.287C152.526 247.13 152.854 238.922 153.094 232.927C153.115 232.474 153.157 231.979 153.188 231.505C151 232.255 148.844 233.068 146.756 234.011C142.667 235.854 138.74 238.089 135.052 240.641L134.974 257.625C135.016 260.662 135.459 263.74 136.297 266.724C137.162 269.818 138.448 272.787 140.104 275.542C141.214 277.224 142.604 278.865 144.177 280.318C145.36 281.417 146.651 282.412 148.021 283.281C149.131 283.985 149.651 285.328 149.308 286.589C148.964 287.86 147.834 288.755 146.526 288.802Z" fill="white"/>
<mask id="mask0_49_243" style="mask-type:luminance" maskUnits="userSpaceOnUse" x="185" y="0" width="69" height="66">
<path d="M185.334 0H253.334V65.6146H185.334V0Z" fill="white"/>
</mask>
<g mask="url(#mask0_49_243)">
<path d="M237.938 11.9479C221.381 4.39062 203.771 0.395835 185.537 0V64.5469H252.969C249.298 46.7188 244.282 29.1563 237.938 11.9479Z" fill="white"/>
</g>
<path d="M179.547 70.5366H110.943C106.948 91.7658 104.849 113.36 104.672 135.162H122.646C124.302 135.162 125.641 136.5 125.641 138.156C125.641 139.813 124.302 141.151 122.646 141.151H104.688C104.703 143 104.729 144.839 104.771 146.667H134.62C135.214 132.698 141.063 120.011 151.307 111.886C154.125 109.651 169.156 98.7085 187.62 103.031C192.245 104.12 196.641 106.063 200.698 108.823C204.88 108.36 211.859 108.479 218.568 112.568C226.766 117.563 229.552 125.432 231.047 129.662C233.146 135.615 233.609 141.406 233.214 146.667H260.307C260.349 144.844 260.38 143.005 260.396 141.156H245.432C243.776 141.156 242.438 139.818 242.438 138.162C242.438 136.505 243.776 135.167 245.432 135.167H260.411C260.234 113.36 258.135 91.771 254.135 70.5418H185.536V89.7658C185.536 91.422 184.198 92.7606 182.542 92.7606C180.885 92.7606 179.547 91.422 179.547 89.7658V70.5366Z" fill="white"/>
<path d="M161.948 222.656C161.734 222.49 161.516 222.443 161.339 222.443C161.182 222.443 161.052 222.474 160.969 222.511C160.766 222.583 160.412 222.787 160.313 223.281C159.641 226.662 159.193 230.261 159.078 233.167C158.958 236.12 158.641 243.969 160.63 245.266C160.636 245.266 160.636 245.266 160.636 245.266C162.214 246.287 168.781 244.208 178.047 235.089L161.948 222.656Z" fill="white"/>
<path d="M224.094 174.745C224.583 172.573 225.141 166.521 221.844 164.557C220.76 163.912 219.479 163.839 218.38 163.948C218.38 164.011 218.38 164.078 218.38 164.141C218.505 171.313 218.599 177.339 217.062 183.479C220.01 181.682 223.156 178.875 224.094 174.745Z" fill="white"/>
<path d="M187.031 243.146C185.495 241.844 183.995 240.474 182.542 239.037C181.089 240.474 179.583 241.844 178.047 243.146V278.432H187.031V243.146Z" fill="white"/>
<path d="M225.401 131.667C224.068 127.88 221.834 121.568 215.453 117.677C209.667 114.156 203.526 114.422 200.386 114.901C199.61 115.005 198.818 114.823 198.188 114.365C194.5 111.703 190.485 109.854 186.255 108.859C170.125 105.078 156.526 115.391 155.026 116.573C145.589 124.057 140.464 136.115 140.542 149.312C140.558 149.427 140.61 149.531 140.61 149.656C140.61 149.755 140.563 149.844 140.552 149.943C140.61 152.844 140.927 155.792 141.49 158.76C144.521 157.5 147.636 157.875 149.719 158.422C162.261 155.526 173.641 150.161 183.537 142.453C189.151 138.073 194.209 132.979 198.578 127.307C199.141 126.578 200.011 126.146 200.933 126.141C201.761 126.031 202.729 126.552 203.302 127.281C211.797 138.036 216.808 148.583 217.995 157.969C219.917 157.802 222.141 158.016 224.287 159.099C226.839 152.469 229.146 142.276 225.401 131.667Z" fill="white"/>
<path d="M263.386 298.729C262.959 303.849 265.891 308.75 270.511 310.62C274.829 312.365 279.886 311.167 283.193 307.849L268.886 295.953C267.063 296.724 265.245 297.531 263.422 298.323L263.386 298.729Z" fill="white"/>
<path d="M302.329 291.073V282.088C298.105 284.703 293.131 286.505 287.355 286.505C281.584 286.505 276.61 284.703 272.381 282.088V291.073L287.355 303.521L302.329 291.073Z" fill="white"/>
<path d="M271.515 274.099C275.672 277.703 280.953 280.516 287.354 280.516C293.76 280.516 299.041 277.703 303.198 274.099C303.213 274.083 303.229 274.068 303.25 274.057C310.495 267.745 314.307 259.005 314.547 258.432C317.437 251.635 317.479 245.682 317.307 235.75C317.177 228.255 316.338 220.766 314.797 213.375C314.609 214.12 314.406 214.854 314.203 215.594C313.318 218.719 312.281 221.828 311.114 224.828C310.672 225.979 309.557 226.74 308.323 226.74H266.396C265.161 226.74 264.052 225.979 263.604 224.828C262.437 221.828 261.401 218.719 260.515 215.594C260.312 214.854 260.114 214.12 259.922 213.375C258.38 220.766 257.541 228.255 257.411 235.75C257.239 245.682 257.281 251.635 260.172 258.432C260.411 259.005 264.224 267.745 271.469 274.057C271.479 274.068 271.5 274.078 271.515 274.099Z" fill="white"/>
<path d="M287.354 166.906L286.506 166.911C259.136 167.214 236.87 189.964 236.87 217.635V304.281C238.078 303.578 239.282 302.859 240.547 302.24L241.698 301.677C247.516 298.844 253.443 296.151 259.391 293.547C259.537 293.474 259.672 293.396 259.828 293.354C262.016 292.396 264.203 291.406 266.396 290.484V277.453C260.917 272.276 257.375 266.25 255.735 263.036C252.078 261.776 242.073 257.479 239.834 247.62C238.818 243.135 238.735 234.573 244.87 230.917C247.162 229.552 249.61 229.302 251.703 229.474C252.391 219.156 254.344 208.911 257.552 198.922C257.985 197.583 259.318 196.703 260.688 196.865C262.089 196.995 263.209 198.083 263.375 199.479C263.974 204.375 264.948 209.25 266.282 213.969C266.927 216.255 267.657 218.531 268.464 220.755H275.693V200.031C275.693 198.375 277.032 197.036 278.688 197.036C280.344 197.036 281.683 198.375 281.683 200.031V220.755H293.662V200.031C293.662 198.375 295 197.036 296.657 197.036C298.313 197.036 299.651 198.375 299.651 200.031V220.755H306.245C307.058 218.531 307.787 216.255 308.427 213.969C309.756 209.25 310.735 204.375 311.334 199.479C311.506 198.083 312.625 196.995 314.021 196.865C315.401 196.682 316.724 197.583 317.157 198.922C320.37 208.911 322.318 219.156 323.011 229.474C325.099 229.302 327.542 229.547 329.839 230.917C335.974 234.573 335.891 243.135 334.875 247.615C332.636 257.479 322.631 261.771 318.974 263.036C317.334 266.25 313.792 272.271 308.318 277.448V290.479C310.526 291.411 312.709 292.391 314.907 293.354C315.042 293.391 315.157 293.458 315.282 293.516C320.776 295.927 326.24 298.396 331.568 300.974L334.172 302.24C335.433 302.859 336.636 303.578 337.844 304.276V217.635C337.844 189.964 315.578 167.214 288.209 166.911L287.354 166.906Z" fill="white"/>
<path d="M329.037 246.286C329.532 244.109 330.094 238.031 326.782 236.062C325.688 235.411 324.401 235.338 323.287 235.453C323.287 235.515 323.292 235.583 323.292 235.646C323.422 242.849 323.511 248.89 321.964 255.057C324.927 253.26 328.094 250.437 329.037 246.286Z" fill="white"/>
<path d="M304.199 310.62C308.824 308.75 311.751 303.849 311.329 298.703L311.292 298.318C309.469 297.526 307.657 296.724 305.824 295.958L291.521 307.854C294.829 311.167 299.891 312.365 304.199 310.62Z" fill="white"/>
<path d="M251.428 235.453C250.308 235.338 249.021 235.411 247.933 236.062C244.626 238.031 245.183 244.109 245.678 246.286C246.62 250.437 249.787 253.26 252.751 255.062C251.209 248.896 251.292 242.849 251.423 235.646C251.423 235.583 251.428 235.515 251.428 235.453Z" fill="white"/>
<path d="M318.136 141.151H266.386C266.37 143 266.339 144.838 266.303 146.667H317.975C318.084 144.833 318.1 142.989 318.136 141.151Z" fill="white"/>
<path d="M197.459 210.458C193.245 213.063 188.292 214.854 182.542 214.854C176.787 214.854 171.834 213.063 167.62 210.458V219.474L182.542 230.99L197.459 219.474V210.458Z" fill="white"/>
<mask id="mask1_49_243" style="mask-type:luminance" maskUnits="userSpaceOnUse" x="0" y="296" width="156" height="69">
<path d="M0 296.281H156V365H0V296.281Z" fill="white"/>
</mask>
<g mask="url(#mask1_49_243)">
<path d="M121.984 307.781L120.844 307.224C113.297 303.542 105.526 300.052 97.7188 296.745C94.6719 304.938 86.7917 310.578 77.776 310.578C68.7604 310.578 60.8802 304.938 57.8385 296.74C50.375 299.901 42.9063 303.25 35.5885 306.792L33.5729 307.776C20.4375 314.219 10.3385 325.724 5.86458 339.354L5.65104 340C3.05729 348.162 1.29167 356.589 0.28125 365.104L155.37 365.5C154.37 356.854 152.536 348.297 149.901 340.016C145.401 325.938 135.255 314.292 121.984 307.781Z" fill="white"/>
</g>
<path d="M41.8281 235.568C40.7083 235.453 39.4167 235.526 38.3281 236.177C35.0208 238.151 35.5729 244.234 36.0677 246.417C37.0052 250.562 40.1667 253.391 43.1302 255.187C41.6823 249.422 41.6771 243.62 41.8177 235.76C41.8177 235.698 41.8229 235.635 41.8281 235.568Z" fill="white"/>
<path d="M119.49 246.417C119.985 244.234 120.542 238.151 117.229 236.177C116.136 235.526 114.849 235.453 113.729 235.568C113.729 235.641 113.735 235.693 113.735 235.76C113.86 242.974 113.953 249.026 112.401 255.198C115.375 253.401 118.547 250.573 119.49 246.417Z" fill="white"/>
<path d="M62.792 282.245V292.271C64.1982 299.417 70.4587 304.588 77.7764 304.588C85.0993 304.588 91.3649 299.417 92.766 292.271V282.229C88.5316 284.849 83.5576 286.656 77.7764 286.656C71.9951 286.656 67.0212 284.859 62.792 282.245Z" fill="white"/>
<path d="M287.354 325.396C285.703 325.396 284.359 326.735 284.359 328.38C284.359 330.026 285.703 331.36 287.354 331.36C289.01 331.36 290.349 330.026 290.349 328.38C290.349 326.735 289.01 325.396 287.354 325.396Z" fill="white"/>
<mask id="mask2_49_243" style="mask-type:luminance" maskUnits="userSpaceOnUse" x="209" y="300" width="156" height="65">
<path d="M209.334 300.281H364.985V365H209.334V300.281Z" fill="white"/>
</mask>
<g mask="url(#mask2_49_243)">
<path d="M359.433 339.828L359.334 339.505C354.927 325.755 344.792 314.115 331.532 307.615L328.959 306.365C325.131 304.51 321.229 302.703 317.302 300.932C316.828 307.635 312.641 313.667 306.453 316.172C304.339 317.026 302.141 317.438 299.964 317.438C295.297 317.438 290.756 315.536 287.36 312.141C283.964 315.536 279.422 317.438 274.756 317.438C272.578 317.438 270.381 317.026 268.266 316.172C262.068 313.661 257.881 307.615 257.417 300.922C253.021 302.906 248.641 304.958 244.323 307.063L243.188 307.615C229.927 314.12 219.787 325.76 215.37 339.552L215.266 339.87C212.651 348.109 210.818 356.656 209.823 365.302H364.901C363.901 356.661 362.063 348.104 359.433 339.828ZM287.354 361.26C282.401 361.26 278.37 357.234 278.37 352.286C278.37 347.339 282.401 343.313 287.354 343.313C292.308 343.313 296.339 347.339 296.339 352.286C296.339 357.234 292.308 361.26 287.354 361.26ZM287.354 337.349C282.401 337.349 278.37 333.323 278.37 328.38C278.37 323.432 282.401 319.406 287.354 319.406C292.308 319.406 296.339 323.432 296.339 328.38C296.339 333.328 292.308 337.349 287.354 337.349Z" fill="white"/>
</g>
<path d="M93.6567 274.219C100.922 267.901 104.745 259.141 104.985 258.568C107.875 251.766 107.917 245.807 107.745 235.87C107.724 234.542 107.683 233.292 107.631 232.136C107.542 230.156 106.391 228.401 104.563 227.438C101.995 226.078 99.5004 224.542 97.1463 222.865C91.5734 218.886 86.6046 213.964 82.4275 208.318C81.6202 212.88 79.5421 217.224 76.2817 220.797C70.0681 227.61 60.4744 230.453 51.5056 228.208C51.4431 228.24 51.3806 228.271 51.3181 228.297C49.2817 229.24 47.964 231.136 47.8806 233.24C47.8494 234.104 47.8234 234.979 47.8077 235.865C47.6359 245.807 47.6775 251.761 50.5734 258.573C50.6619 258.797 60.1098 280.672 77.7765 280.672C84.1931 280.672 89.4744 277.854 93.6411 274.24C93.6463 274.229 93.6515 274.224 93.6567 274.219Z" fill="white"/>
<path d="M290.349 352.287C290.349 352.682 290.276 353.063 290.125 353.427C289.969 353.792 289.755 354.115 289.474 354.396C289.193 354.677 288.87 354.891 288.5 355.042C288.135 355.193 287.755 355.271 287.354 355.271C286.958 355.271 286.578 355.193 286.208 355.042C285.844 354.891 285.521 354.677 285.24 354.396C284.958 354.115 284.74 353.792 284.589 353.427C284.438 353.063 284.359 352.682 284.359 352.287C284.359 351.891 284.438 351.511 284.589 351.146C284.74 350.781 284.958 350.458 285.24 350.177C285.521 349.896 285.844 349.682 286.208 349.531C286.578 349.38 286.958 349.302 287.354 349.302C287.755 349.302 288.135 349.38 288.5 349.531C288.87 349.682 289.193 349.896 289.474 350.177C289.755 350.458 289.969 350.781 290.125 351.146C290.276 351.511 290.349 351.891 290.349 352.287Z" fill="white"/>
<mask id="mask3_49_243" style="mask-type:luminance" maskUnits="userSpaceOnUse" x="112" y="0" width="68" height="66">
<path d="M112 0H180V65.6146H112V0Z" fill="white"/>
</mask>
<g mask="url(#mask3_49_243)">
<path d="M179.547 64.5469V0C161.312 0.395835 143.698 4.38542 127.146 11.9427C120.797 29.151 115.781 46.7188 112.114 64.5469H179.547Z" fill="white"/>
</g>
<path d="M27.7031 282.156C31.7708 280.713 34.3385 277.901 35.776 275.802C36.7031 274.437 38.5729 274.083 39.9375 275.021C41.3021 275.953 41.651 277.817 40.7188 279.182C39.5885 280.833 37.9167 282.807 35.625 284.562C37.2292 284.703 38.8333 284.786 40.4479 284.755C46.0781 284.635 51.5625 283.427 56.8021 281.265V277.614C51.3177 272.432 47.776 266.396 46.1406 263.172C42.4792 261.906 32.4635 257.609 30.224 247.739C29.2083 243.255 29.125 234.692 35.2656 231.031C37.7344 229.562 40.3802 229.375 42.5677 229.62C43.6094 226.698 45.8125 224.245 48.7969 222.859C49.0625 222.734 49.3177 222.604 49.5677 222.463C49.6198 222.427 49.6667 222.401 49.7188 222.375C50.2188 222.073 50.6927 221.729 51.1302 221.349C54.1927 218.666 55.4427 214.13 54.3906 209.505C54.026 207.89 55.0365 206.286 56.651 205.916C58.276 205.552 59.8698 206.562 60.2344 208.177C61.4531 213.547 60.4635 218.916 57.651 222.968C62.9896 222.968 68.2031 220.771 71.8594 216.755C77.026 211.093 78.2813 202.896 75.0573 195.87C74.3698 194.37 75.0208 192.593 76.5208 191.901C78.0313 191.213 79.7969 191.859 80.4948 193.359C85.1563 203.396 92.1146 211.906 100.625 217.984C102.766 219.51 105.031 220.906 107.359 222.135C110.385 223.734 112.469 226.437 113.26 229.599C115.396 229.396 117.927 229.62 120.297 231.031C126.432 234.692 126.349 243.255 125.333 247.739C123.094 257.614 113.078 261.911 109.422 263.177C107.776 266.39 104.234 272.416 98.7552 277.593V280.666C102.948 282.89 107.323 284.802 111.797 286.312C114.172 287.114 116.573 287.817 119.005 288.411C118.547 287.932 118.099 287.442 117.667 286.937C116.115 285.12 114.745 283.109 113.599 280.968C112.995 279.828 113.182 278.427 114.073 277.495C114.969 276.557 116.359 276.302 117.526 276.854C123.38 279.63 129.568 281.468 135.911 282.312C136.599 282.406 137.286 282.489 137.979 282.552C136.906 281.354 135.917 280.078 135.031 278.734C133.031 275.416 131.536 271.948 130.526 268.338C129.552 264.859 129.031 261.26 128.979 257.651L129.234 203.354C129.036 197.677 127.531 189.062 121.505 180.901C119.021 177.526 111.443 167.255 97.8229 165.916C86.224 164.771 77.0938 171.26 73.7083 174.099C72.8594 174.812 71.6771 175 70.6458 174.573C67.7448 173.39 57.4323 169.88 46.5417 174.734C44.9896 175.427 43.5052 176.255 42.125 177.198C37.6406 180.255 35.2292 183.812 33.9427 185.724C32.651 187.625 31.5104 189.703 30.5521 191.911C28.4375 196.791 27.349 202.37 27.3177 208.484L27 267.864C26.9167 271.083 25.9167 274.125 24.1042 276.724C22.2448 279.37 19.9063 281.125 17.625 282.286C20.4844 283.12 24.0208 283.468 27.7031 282.156Z" fill="white"/>
<path d="M143.235 164.557C139.938 166.521 140.495 172.578 140.99 174.745C141.953 179 145.261 181.854 148.287 183.636C147.182 178.459 146.599 171.63 146.698 164.146C146.698 164.073 146.703 164.021 146.703 163.948C145.599 163.839 144.318 163.912 143.235 164.557Z" fill="white"/>
<path d="M212.391 164.239C212.37 162.896 212.334 161.484 212.277 160.562C211.792 152.687 207.865 143.557 200.886 133.995C196.798 138.859 192.214 143.281 187.219 147.177C177.058 155.099 165.454 160.708 152.699 163.88C152.693 163.989 152.693 164.104 152.693 164.224C152.568 173.75 153.647 182.63 155.438 186.849C155.683 187.422 159.469 196.114 166.683 202.406C166.704 202.427 166.735 202.443 166.761 202.474C170.902 206.062 176.157 208.864 182.542 208.864C188.923 208.864 194.178 206.062 198.324 202.474C198.35 202.448 198.376 202.427 198.402 202.406C205.61 196.114 209.397 187.422 209.641 186.849C212.527 180.078 212.563 174.14 212.391 164.239Z" fill="white"/>
<path d="M204.448 245.265C206.437 243.969 206.125 236.12 206.005 233.167C205.885 230.26 205.438 226.661 204.766 223.281C204.667 222.786 204.318 222.588 204.115 222.51C203.922 222.432 203.526 222.354 203.13 222.661L187.031 235.088C196.302 244.213 202.854 246.292 204.448 245.265Z" fill="white"/>
<path d="M47.1048 146.667H98.7819C98.7402 144.838 98.7142 143 98.6986 141.151H46.9434C46.985 142.989 47.0007 144.833 47.1048 146.667Z" fill="white"/>
<path d="M104.849 70.5366H64.3021C53.5677 90.0002 47.401 112.13 46.9062 135.162H98.6823C98.8542 113.365 100.917 91.7762 104.849 70.5366Z" fill="white"/>
<path d="M119.391 15.8022C97.9844 27.297 80.3281 44.2658 67.7969 64.547H105.995C109.328 48.0522 113.802 31.7814 119.391 15.8022Z" fill="white"/>
</svg>
