<svg xmlns="http://www.w3.org/2000/svg" xmlns:xlink="http://www.w3.org/1999/xlink" width="1080" zoomAndPan="magnify" viewBox="0 0 810 809.999993" height="1080" preserveAspectRatio="xMidYMid meet" version="1.0"><defs><clipPath id="0b780fe956"><path d="M 414.308594 442.855469 L 576.3125 442.855469 L 576.3125 588.617188 L 414.308594 588.617188 Z M 414.308594 442.855469 " clip-rule="nonzero"/></clipPath><clipPath id="3db132057a"><path d="M 282.105469 289 L 557.46875 289 L 557.46875 588.617188 L 282.105469 588.617188 Z M 282.105469 289 " clip-rule="nonzero"/></clipPath><clipPath id="39e396c9fa"><path d="M 247 232.375 L 388 232.375 L 388 292 L 247 292 Z M 247 232.375 " clip-rule="nonzero"/></clipPath><clipPath id="a9f5c4a476"><path d="M 220.0625 280.863281 L 407.292969 280.863281 L 407.292969 588.617188 L 220.0625 588.617188 Z M 220.0625 280.863281 " clip-rule="nonzero"/></clipPath><clipPath id="a8eca74132"><path d="M 220.0625 372 L 371 372 L 371 384 L 220.0625 384 Z M 220.0625 372 " clip-rule="nonzero"/></clipPath><clipPath id="688ed210f6"><path d="M 220.0625 534 L 331 534 L 331 546 L 220.0625 546 Z M 220.0625 534 " clip-rule="nonzero"/></clipPath></defs><g clip-path="url(#0b780fe956)"><path stroke-linecap="round" transform="matrix(0.0215269, 0, 0, -0.0215269, 220.064275, 588.615926)" fill="none" stroke-linejoin="round" d="M 12354.917999 6263.181028 L 9334.532574 1001.958138 C 9288.079065 921.208873 9277.372982 835.560214 9277.554441 752.270523 C 9277.917359 490.606613 9476.977907 250.717786 9769.308392 250.717786 L 15810.079241 250.717786 C 16104.042857 250.717786 16300.018601 488.973482 16298.204011 752.270523 C 16297.841093 834.290001 16290.764191 922.479086 16245.036518 1001.958138 L 13224.651093 6263.181028 C 13128.296352 6431.212083 12957.180494 6519.401167 12787.879226 6519.401167 C 12618.577959 6519.401167 12451.27274 6431.212083 12354.917999 6263.181028 Z M 12354.917999 6263.181028 " stroke="#ffffff" stroke-width="501.487" stroke-opacity="1" stroke-miterlimit="10"/></g><path stroke-linecap="round" transform="matrix(0.0168887, 0, 0, -0.0168887, 220.064275, 588.615926)" fill="none" stroke-linejoin="round" d="M 16299.887442 5912.728942 L 16299.887442 3036.35491 " stroke="#ffffff" stroke-width="639.216" stroke-opacity="1" stroke-miterlimit="10"/><path stroke-linecap="round" transform="matrix(0.0168887, 0, 0, -0.0168887, 220.064275, 588.615926)" fill="none" stroke-linejoin="round" d="M 16299.887442 1757.992151 L 16299.887442 1597.9366 " stroke="#ffffff" stroke-width="639.216" stroke-opacity="1" stroke-miterlimit="10"/><g clip-path="url(#3db132057a)"><path stroke-linecap="round" transform="matrix(0.0203661, 0, 0, -0.0203661, 220.064275, 588.615926)" fill="none" stroke-linejoin="round" d="M 14986.514191 6629.748432 C 15993.472021 7949.150891 16299.970804 9011.347551 16299.970804 9011.347551 C 16299.970804 9011.347551 13157.878771 8652.103358 11661.827138 7156.051724 C 11455.256931 6949.481518 11237.945841 6624.953394 11074.914574 6436.412528 C 11247.727717 7040.395425 11396.757476 7818.342274 11396.757476 8746.27789 C 11396.757476 12101.077777 9806.531311 14444.700201 9806.531311 14444.700201 C 9806.531311 14444.700201 8216.305145 12101.077777 8216.305145 8746.27789 C 8216.305145 7818.342274 8365.143102 7040.395425 8538.148048 6436.412528 C 8375.11678 6624.953394 8157.80569 6949.481518 7951.235484 7156.051724 C 6455.18385 8652.103358 3313.091817 9011.347551 3313.091817 9011.347551 C 3313.091817 9011.347551 3822.324777 7289.929165 5643.67174 5468.582202 C 6398.027006 4714.226936 7395.20296 4415.975617 8224.552609 4308.950385 C 7935.124158 4156.084596 7584.702834 4006.671234 7288.561331 3710.529732 C 5922.74291 2344.711311 5830.869996 265.007739 5830.869996 265.007739 C 5830.869996 265.007739 7447.94837 556.929609 8878.787496 1987.768735 C 9648.103279 2757.084518 9804.613296 3745.821206 9818.423003 4296.099685 " stroke="#ffffff" stroke-width="530.08099" stroke-opacity="1" stroke-miterlimit="10"/></g><path stroke-linecap="round" transform="matrix(0.013245, 0, 0, -0.013245, 220.064275, 588.615926)" fill="none" stroke-linejoin="round" d="M 15095.718151 9372.510212 L 15095.718151 16299.921441 " stroke="#ffffff" stroke-width="815" stroke-opacity="1" stroke-miterlimit="10"/><path stroke-linecap="round" transform="matrix(0.0211933, 0, 0, -0.0211933, 220.064275, 588.615926)" fill="none" stroke-linejoin="round" d="M 16300.016853 12352.377759 C 16300.016853 11156.724941 15330.703123 10187.411211 14135.050305 10187.411211 C 12939.581803 10187.411211 11970.268073 11156.724941 11970.268073 12352.377759 C 11970.268073 13548.030576 12939.581803 14517.159991 14135.050305 14517.159991 C 15330.703123 14517.159991 16300.016853 13548.030576 16300.016853 12352.377759 Z M 16300.016853 12352.377759 " stroke="#ffffff" stroke-width="509.37399" stroke-opacity="1" stroke-miterlimit="10"/><path stroke-linecap="round" transform="matrix(0.0193001, 0, 0, -0.0193001, 220.064275, 588.615926)" fill="none" stroke-linejoin="round" d="M 13845.565547 15249.608099 L 16300.012894 12795.363147 " stroke="#ffffff" stroke-width="559.354" stroke-opacity="1" stroke-miterlimit="10"/><g clip-path="url(#39e396c9fa)"><path stroke-linecap="round" transform="matrix(0.0215244, 0, 0, -0.0215244, 220.064275, 588.615926)" fill="none" stroke-linejoin="round" d="M 7272.356733 14043.028201 L 1755.371447 14043.028201 C 1616.902376 14043.028201 1504.566392 14155.364184 1504.566392 14293.833255 L 1504.566392 16049.287159 C 1504.566392 16187.756231 1616.902376 16300.092214 1755.371447 16300.092214 L 7272.356733 16300.092214 C 7410.825805 16300.092214 7523.161788 16187.756231 7523.161788 16049.287159 L 7523.161788 14293.833255 C 7523.161788 14155.364184 7410.825805 14043.028201 7272.356733 14043.028201 Z M 7272.356733 14043.028201 " stroke="#ffffff" stroke-width="501.53799" stroke-opacity="1" stroke-miterlimit="10"/></g><g clip-path="url(#a9f5c4a476)"><path stroke-linecap="round" transform="matrix(0.0185443, 0, 0, -0.0185443, 220.064275, 588.615926)" fill="none" stroke-linejoin="round" d="M 9800.970891 13801.343663 C 9383.895263 14430.116768 8669.811235 14844.664664 7859.041492 14844.664664 L 7567.93113 14844.664664 L 7567.93113 16300.00583 L 2910.797269 16300.00583 L 2910.797269 14844.664664 L 2328.576545 14844.664664 C 1203.314928 14844.664664 291.014655 13932.36439 291.014655 12807.102773 L 291.014655 2619.714609 C 291.014655 1333.520781 1333.703723 291.042357 2619.686907 291.042357 L 5239.258878 291.042357 " stroke="#ffffff" stroke-width="582.14203" stroke-opacity="1" stroke-miterlimit="10"/></g><g clip-path="url(#a8eca74132)"><path stroke-linecap="round" transform="matrix(0.0129558, 0, 0, -0.0129558, 220.064275, 588.615926)" fill="none" stroke-linejoin="round" d="M 416.544917 16299.944154 C 416.544917 16247.783539 11196.606395 16299.944154 11196.606395 16299.944154 " stroke="#ffffff" stroke-width="833.22699" stroke-opacity="1" stroke-miterlimit="10"/></g><path stroke-linecap="round" transform="matrix(0.0168887, 0, 0, -0.0168887, 220.064275, 588.615926)" fill="none" stroke-linejoin="round" d="M 8309.83108 16299.91786 L 4774.037431 16299.91786 " stroke="#ffffff" stroke-width="639.21503" stroke-opacity="1" stroke-miterlimit="10"/><g clip-path="url(#688ed210f6)"><path stroke-linecap="round" transform="matrix(0.0123095, 0, 0, -0.0123095, 220.064275, 588.615926)" fill="none" stroke-linejoin="round" d="M 438.413535 3946.599676 L 8564.424738 3946.599676 " stroke="#ffffff" stroke-width="877.005" stroke-opacity="1" stroke-miterlimit="10"/></g></svg>