<svg xmlns="http://www.w3.org/2000/svg" xmlns:xlink="http://www.w3.org/1999/xlink" width="1080" zoomAndPan="magnify" viewBox="0 0 810 809.999993" height="1080" preserveAspectRatio="xMidYMid meet" version="1.0"><defs><clipPath id="d479302b2f"><path d="M 327 219.695312 L 473 219.695312 L 473 365 L 327 365 Z M 327 219.695312 " clip-rule="nonzero"/></clipPath><clipPath id="2edd89ebed"><path d="M 229 357 L 571 357 L 571 590.195312 L 229 590.195312 Z M 229 357 " clip-rule="nonzero"/></clipPath></defs><g clip-path="url(#d479302b2f)"><path fill="#ffffff" d="M 399.933594 364.480469 C 439.890625 364.480469 472.285156 332.089844 472.285156 292.132812 C 472.285156 252.175781 439.890625 219.78125 399.933594 219.78125 C 359.980469 219.78125 327.585938 252.175781 327.585938 292.132812 C 327.585938 332.089844 359.980469 364.480469 399.933594 364.480469 Z M 399.933594 231.359375 C 433.445312 231.359375 460.710938 258.621094 460.710938 292.132812 C 460.710938 325.644531 433.445312 352.90625 399.933594 352.90625 C 366.425781 352.90625 339.160156 325.644531 339.160156 292.132812 C 339.160156 258.621094 366.425781 231.359375 399.933594 231.359375 Z M 399.933594 231.359375 " fill-opacity="1" fill-rule="nonzero"/></g><g clip-path="url(#2edd89ebed)"><path fill="#ffffff" d="M 544.371094 483.125 C 541.703125 474.867188 538.984375 466.996094 536.183594 459.5 L 528.339844 471.835938 C 530.011719 476.574219 531.675781 481.476562 533.320312 486.578125 L 558.761719 568.015625 C 559.390625 570.023438 559.175781 571.484375 558.023438 573.058594 C 555.683594 576.238281 550.257812 578.636719 545.390625 578.636719 L 515.667969 578.636719 C 515.667969 578.027344 515.601562 577.414062 515.398438 576.804688 L 492.246094 507.347656 C 491.394531 504.792969 488.929688 503.246094 486.359375 503.425781 C 484.820312 505.007812 483.089844 506.355469 481.226562 507.5 C 480.886719 508.609375 480.867188 509.828125 481.265625 511.011719 L 503.804688 578.636719 L 293.171875 578.636719 L 315.714844 511.011719 C 316.726562 507.980469 315.085938 504.699219 312.054688 503.6875 C 309.007812 502.675781 305.742188 504.320312 304.730469 507.347656 L 281.578125 576.804688 C 281.375 577.414062 281.308594 578.027344 281.308594 578.636719 L 253.960938 578.636719 C 249.351562 578.636719 244.902344 576.898438 242.625 574.210938 C 241.054688 572.355469 240.484375 569.984375 240.894531 566.96875 L 262.980469 486.179688 L 263.042969 485.953125 L 263.09375 485.722656 C 272.609375 444.394531 287.765625 413.367188 308.128906 393.507812 C 322.8125 379.191406 340.320312 370.289062 361.195312 366.542969 C 356.421875 364.050781 351.917969 361.109375 347.738281 357.777344 C 299.664062 371.21875 268.042969 412.648438 251.8125 483.125 L 229.554688 564.558594 C 226.769531 581.191406 240.476562 590.210938 253.960938 590.210938 L 545.390625 590.210938 C 558.878906 590.210938 574.578125 579.792969 569.808594 564.558594 Z M 544.371094 483.125 " fill-opacity="1" fill-rule="nonzero"/></g><path fill="#ffffff" d="M 579.980469 331.339844 C 577.433594 329.398438 573.804688 329.890625 571.871094 332.425781 C 547.351562 364.515625 538.972656 376.15625 538.890625 376.269531 C 537.425781 378.308594 537.496094 380.964844 538.839844 382.917969 C 540.78125 393.816406 540.363281 403.367188 537.523438 411.296875 C 534.25 420.449219 528.824219 428.574219 523.082031 437.167969 C 521.320312 439.800781 519.5625 442.433594 517.875 445.089844 L 498.578125 475.433594 C 498.0625 476.246094 497.277344 476.808594 496.359375 477.011719 C 495.511719 477.207031 494.632812 477.050781 493.898438 476.578125 C 492.3125 475.5625 491.871094 473.390625 492.917969 471.738281 L 513.839844 438.597656 C 515.546875 435.894531 514.738281 432.320312 512.035156 430.613281 C 509.339844 428.910156 505.761719 429.714844 504.050781 432.417969 L 483.125 465.554688 C 482.523438 466.507812 482.066406 467.507812 481.699219 468.527344 L 470.265625 486.640625 C 469.753906 487.449219 468.96875 488.007812 468.058594 488.210938 C 467.195312 488.402344 466.320312 488.246094 465.585938 487.773438 C 464.023438 486.777344 463.167969 484.507812 463.644531 482.976562 L 498.046875 428.488281 C 499.753906 425.785156 498.945312 422.210938 496.242188 420.503906 C 493.542969 418.800781 489.96875 419.605469 488.257812 422.308594 L 454.632812 475.5625 C 454.445312 475.777344 454.257812 475.996094 454.097656 476.246094 C 453.957031 476.46875 453.882812 476.71875 453.757812 476.953125 L 447.238281 487.273438 C 446.726562 488.082031 445.945312 488.640625 445.039062 488.839844 C 444.167969 489.042969 443.292969 488.882812 442.566406 488.417969 C 440.980469 487.398438 440.539062 485.226562 441.585938 483.570312 L 451.925781 467.191406 C 451.957031 467.140625 452.003906 467.101562 452.035156 467.050781 C 452.070312 466.996094 452.085938 466.941406 452.117188 466.886719 L 482.601562 418.605469 C 484.308594 415.902344 483.5 412.328125 480.792969 410.621094 C 478.097656 408.917969 474.519531 409.722656 472.8125 412.425781 L 442.167969 460.960938 C 441.679688 461.636719 440.835938 461.925781 440.355469 462.035156 C 439.113281 462.308594 437.742188 462.089844 436.765625 461.464844 C 435.179688 460.453125 434.738281 458.28125 435.785156 456.625 L 467.363281 406.613281 C 470.609375 401.46875 468.570312 398.078125 467.542969 396.859375 C 466.515625 395.644531 463.539062 393.058594 457.941406 395.378906 L 431.980469 406.179688 C 431.140625 406.550781 430.210938 406.492188 429.1875 405.996094 C 427.726562 405.289062 426.5 403.824219 426.136719 402.351562 C 425.753906 400.800781 424.953125 397.574219 437.96875 392.535156 C 448.96875 388.285156 455.46875 382.648438 462.398438 374.925781 C 470.9375 365.386719 481.539062 355.21875 499.757812 355.875 C 500.992188 355.90625 502.144531 355.554688 503.097656 354.933594 C 504.925781 354.679688 506.613281 353.609375 507.496094 351.832031 C 507.542969 351.738281 512.402344 342.027344 529.027344 312.324219 C 530.589844 309.535156 529.589844 306.007812 526.800781 304.445312 C 524.015625 302.882812 520.484375 303.882812 518.925781 306.671875 C 506.457031 328.949219 500.613281 339.949219 498.34375 344.316406 C 474.359375 344.304688 461.015625 359.109375 453.78125 367.199219 C 447.707031 373.96875 442.722656 378.289062 433.792969 381.738281 C 427.632812 384.125 411.261719 390.457031 414.898438 405.136719 C 416.101562 409.976562 419.550781 414.191406 424.136719 416.410156 C 428.269531 418.421875 432.75 418.535156 436.582031 416.796875 L 451.03125 410.796875 L 426 450.445312 C 421.5625 457.464844 423.597656 466.78125 430.527344 471.214844 C 431.769531 472.011719 433.128906 472.617188 434.542969 473.035156 L 431.792969 477.390625 C 427.367188 484.410156 429.394531 493.726562 436.324219 498.167969 C 438.738281 499.707031 441.484375 500.503906 444.285156 500.503906 C 445.371094 500.503906 446.472656 500.382812 447.558594 500.140625 C 451.007812 499.371094 453.957031 497.402344 456.105469 494.640625 C 457.054688 495.722656 458.101562 496.730469 459.347656 497.527344 C 461.761719 499.070312 464.503906 499.871094 467.308594 499.871094 C 468.390625 499.871094 469.484375 499.75 470.566406 499.507812 C 474.507812 498.632812 477.878906 496.257812 480.050781 492.820312 L 485.320312 484.472656 C 486.023438 485.15625 486.800781 485.78125 487.65625 486.328125 C 490.070312 487.875 492.816406 488.671875 495.617188 488.671875 C 496.699219 488.671875 497.789062 488.550781 498.871094 488.3125 C 502.816406 487.4375 506.183594 485.058594 508.363281 481.617188 L 527.328125 451.796875 C 529.070312 449.042969 530.886719 446.324219 532.707031 443.601562 C 538.589844 434.796875 544.671875 425.691406 548.421875 415.195312 C 551.984375 405.238281 552.542969 393.550781 550.15625 380.464844 C 553.761719 375.554688 562.992188 363.109375 581.066406 339.457031 C 583.007812 336.917969 582.523438 333.285156 579.980469 331.339844 Z M 579.980469 331.339844 " fill-opacity="1" fill-rule="nonzero"/></svg>