<svg xmlns="http://www.w3.org/2000/svg" xmlns:xlink="http://www.w3.org/1999/xlink" width="1080" zoomAndPan="magnify" viewBox="0 0 810 809.999993" height="1080" preserveAspectRatio="xMidYMid meet" version="1.0"><defs><clipPath id="5d6dccb7db"><path d="M 228 237.042969 L 583.125 237.042969 L 583.125 573 L 228 573 Z M 228 237.042969 " clip-rule="nonzero"/></clipPath></defs><g clip-path="url(#5d6dccb7db)"><path fill="#ffffff" d="M 360.964844 359.457031 L 344.792969 358.0625 C 339.792969 357.632812 335.378906 361.34375 334.945312 366.34375 L 333.816406 379.433594 C 333.386719 384.429688 337.101562 388.84375 342.097656 389.277344 L 350.960938 390.042969 C 353.519531 390.261719 355.421875 392.523438 355.203125 395.082031 L 351.378906 439.375 C 351.269531 440.613281 350.6875 441.738281 349.734375 442.539062 C 348.785156 443.339844 347.578125 443.71875 346.339844 443.613281 C 346.339844 443.613281 346.339844 443.613281 346.335938 443.613281 L 337.472656 442.847656 C 335.046875 442.640625 332.695312 443.386719 330.835938 444.949219 C 328.976562 446.515625 327.835938 448.707031 327.625 451.128906 L 326.496094 464.21875 C 326.066406 469.214844 329.78125 473.632812 334.777344 474.0625 L 350.949219 475.460938 C 351.476562 475.503906 351.996094 475.527344 352.507812 475.527344 C 370.792969 475.527344 379.820312 446.996094 382.175781 419.722656 C 382.875 411.605469 383.578125 395.953125 380.417969 382.304688 C 376.277344 364.453125 367.554688 360.027344 360.964844 359.457031 Z M 376.5625 419.238281 C 375.417969 432.480469 372.601562 445.183594 368.839844 454.089844 C 364.167969 465.136719 358.308594 470.449219 351.433594 469.84375 L 335.261719 468.449219 C 333.359375 468.285156 331.949219 466.605469 332.113281 464.703125 L 333.242188 451.613281 C 333.398438 449.8125 334.914062 448.453125 336.6875 448.453125 C 336.785156 448.453125 336.886719 448.457031 336.988281 448.464844 L 345.851562 449.230469 C 348.59375 449.464844 351.257812 448.625 353.363281 446.851562 C 355.46875 445.082031 356.757812 442.601562 356.992188 439.859375 L 360.816406 395.570312 C 361.304688 389.914062 357.101562 384.917969 351.449219 384.429688 L 342.582031 383.664062 C 340.679688 383.5 339.269531 381.820312 339.433594 379.917969 L 340.5625 366.828125 C 340.726562 364.925781 342.410156 363.507812 344.308594 363.675781 L 360.480469 365.074219 C 367.355469 365.667969 372.21875 371.894531 374.925781 383.578125 C 377.109375 392.996094 377.703125 405.992188 376.5625 419.238281 Z M 295.910156 316.101562 C 295.515625 314.597656 296.417969 313.054688 297.921875 312.660156 L 328.839844 304.570312 C 330.34375 304.179688 331.886719 305.078125 332.28125 306.582031 C 332.675781 308.089844 331.773438 309.628906 330.265625 310.023438 L 299.351562 318.113281 C 299.109375 318.175781 298.871094 318.207031 298.632812 318.207031 C 297.382812 318.207031 296.242188 317.367188 295.910156 316.101562 Z M 497.660156 377.503906 C 497.921875 377.582031 498.191406 377.621094 498.460938 377.621094 C 498.726562 377.621094 498.996094 377.582031 499.257812 377.503906 C 500.480469 377.140625 529.375 368.363281 539.882812 344.1875 C 550.234375 320.363281 539.046875 270.414062 538.566406 268.300781 C 538.359375 267.402344 537.726562 266.660156 536.875 266.3125 C 536.019531 265.96875 535.046875 266.0625 534.277344 266.566406 C 534.105469 266.675781 517.195312 277.558594 498.457031 277.558594 C 479.722656 277.558594 462.808594 266.675781 462.640625 266.566406 C 461.871094 266.0625 460.902344 265.964844 460.042969 266.3125 C 459.1875 266.65625 458.558594 267.398438 458.351562 268.300781 C 457.871094 270.414062 446.683594 320.363281 457.035156 344.183594 C 467.542969 368.363281 496.4375 377.140625 497.660156 377.503906 Z M 463.058594 273.34375 C 469.304688 276.757812 483.105469 283.195312 498.460938 283.195312 C 513.8125 283.195312 527.613281 276.757812 533.859375 273.34375 C 536.25 285.441406 542.773438 323.394531 534.714844 341.941406 C 526.183594 361.570312 503.0625 370.277344 498.460938 371.839844 C 493.859375 370.277344 470.734375 361.570312 462.207031 341.941406 C 454.144531 323.394531 460.667969 285.441406 463.058594 273.34375 Z M 475.199219 321.332031 C 474.199219 321.941406 473.679688 323.101562 473.890625 324.25 C 476.058594 336.09375 485.40625 348.679688 498.460938 348.679688 C 511.511719 348.679688 520.859375 336.09375 523.027344 324.25 C 523.238281 323.101562 522.71875 321.945312 521.722656 321.339844 C 520.726562 320.730469 519.457031 320.800781 518.53125 321.511719 C 518.441406 321.585938 509.316406 328.519531 498.460938 328.519531 C 487.601562 328.519531 478.476562 321.582031 478.390625 321.515625 C 477.464844 320.800781 476.199219 320.726562 475.199219 321.332031 Z M 498.460938 334.15625 C 505.136719 334.15625 511.117188 332.03125 515.378906 329.941406 C 512.171875 337.058594 506.117188 343.046875 498.460938 343.046875 C 490.800781 343.046875 484.746094 337.058594 481.539062 329.941406 C 485.800781 332.03125 491.78125 334.15625 498.460938 334.15625 Z M 505.085938 311.503906 C 506.835938 313.449219 509.273438 314.515625 511.78125 314.515625 C 512.515625 314.515625 513.253906 314.425781 513.984375 314.238281 C 515.296875 313.898438 516.808594 313.898438 518.125 314.222656 C 521.378906 315.03125 524.796875 313.992188 527.039062 311.507812 C 529.1875 309.128906 529.917969 305.875 528.992188 302.800781 C 528.082031 299.765625 525.714844 297.484375 522.664062 296.695312 C 518.402344 295.59375 513.730469 295.59375 509.46875 296.699219 C 506.421875 297.492188 504.058594 299.773438 503.144531 302.800781 C 502.226562 305.859375 502.941406 309.097656 505.0625 311.476562 C 505.070312 311.484375 505.078125 311.492188 505.085938 311.503906 Z M 508.542969 304.429688 C 508.886719 303.28125 509.742188 302.453125 510.886719 302.15625 C 514.226562 301.289062 517.910156 301.289062 521.253906 302.152344 C 522.875 302.574219 523.429688 303.878906 523.59375 304.421875 C 523.945312 305.59375 523.667969 306.832031 522.855469 307.734375 C 522.007812 308.667969 520.71875 309.0625 519.480469 308.753906 C 517.261719 308.203125 514.796875 308.210938 512.585938 308.777344 C 511.402344 309.082031 510.144531 308.6875 509.289062 307.75 C 509.285156 307.742188 509.28125 307.738281 509.277344 307.734375 C 508.464844 306.832031 508.191406 305.59375 508.542969 304.429688 Z M 469.878906 311.507812 C 472.121094 313.992188 475.539062 315.03125 478.792969 314.222656 C 480.109375 313.894531 481.621094 313.902344 482.933594 314.238281 C 483.664062 314.425781 484.402344 314.515625 485.136719 314.515625 C 487.644531 314.515625 490.082031 313.449219 491.832031 311.503906 C 491.84375 311.488281 491.859375 311.476562 491.871094 311.460938 C 493.980469 309.085938 494.691406 305.855469 493.773438 302.804688 C 492.859375 299.773438 490.496094 297.492188 487.449219 296.703125 C 483.1875 295.597656 478.519531 295.59375 474.253906 296.695312 C 471.203125 297.484375 468.835938 299.765625 467.925781 302.800781 C 467.003906 305.875 467.734375 309.128906 469.878906 311.507812 Z M 473.324219 304.421875 C 473.488281 303.878906 474.042969 302.574219 475.664062 302.152344 C 479.007812 301.289062 482.691406 301.289062 486.035156 302.15625 C 487.175781 302.453125 488.03125 303.28125 488.375 304.429688 C 488.726562 305.59375 488.453125 306.832031 487.640625 307.730469 C 487.632812 307.742188 487.625 307.75 487.617188 307.757812 C 486.765625 308.691406 485.511719 309.078125 484.332031 308.777344 C 483.210938 308.488281 482.039062 308.34375 480.839844 308.34375 C 479.675781 308.34375 478.53125 308.480469 477.433594 308.753906 C 476.199219 309.0625 474.910156 308.667969 474.0625 307.734375 C 473.25 306.832031 472.972656 305.59375 473.324219 304.421875 Z M 456.539062 395.394531 C 469.269531 402.65625 483.707031 406.480469 498.460938 406.480469 C 545.171875 406.480469 583.171875 368.476562 583.171875 321.765625 C 583.175781 275.054688 545.171875 237.050781 498.460938 237.050781 C 451.746094 237.050781 413.742188 275.054688 413.742188 321.765625 C 413.742188 337.417969 418.039062 352.671875 426.171875 365.953125 C 425.003906 372.929688 422.949219 378.664062 420.066406 383.015625 C 418.921875 384.746094 417.648438 386.390625 416.308594 387.945312 L 374.894531 298.78125 C 369.566406 287.320312 357.222656 281.191406 344.875 283.878906 L 260.828125 302.160156 C 254.785156 303.476562 249.578125 307.039062 246.164062 312.199219 L 232.035156 333.558594 C 227.550781 340.34375 226.890625 349.140625 230.316406 356.515625 L 323.082031 556.226562 C 327.902344 566.605469 338.082031 572.917969 349.109375 572.917969 C 351.164062 572.917969 353.253906 572.695312 355.339844 572.242188 L 437.710938 554.324219 C 446.347656 552.445312 453.394531 546.394531 456.558594 538.140625 L 465.941406 513.652344 C 468.457031 507.089844 468.203125 499.667969 465.242188 493.292969 L 427.167969 411.320312 C 431.738281 410.726562 436.378906 409.589844 440.71875 407.625 C 446.742188 404.898438 452.054688 400.789062 456.539062 395.394531 Z M 339.339844 306.410156 C 340.253906 313.390625 335.832031 320.101562 329.058594 322.019531 L 300.449219 330.117188 C 294.578125 331.78125 288.289062 329.53125 284.808594 324.515625 L 271.65625 305.570312 L 337.367188 291.277344 Z M 236.738281 336.667969 L 242.441406 328.046875 C 242.726562 330.484375 243.390625 332.886719 244.445312 335.15625 L 284.398438 421.167969 L 272.285156 433.488281 L 235.429688 354.140625 C 232.820312 348.527344 233.324219 341.832031 236.738281 336.667969 Z M 328.191406 553.851562 L 274.820312 438.949219 L 286.933594 426.628906 L 336.222656 532.738281 C 338.734375 538.152344 342.796875 542.460938 347.675781 545.347656 L 336.988281 563.816406 C 333.261719 561.5 330.167969 558.101562 328.191406 553.851562 Z M 436.515625 548.816406 L 354.140625 566.738281 C 350.019531 567.632812 345.902344 567.390625 342.128906 566.1875 L 352.796875 547.75 C 355.851562 548.828125 359.097656 549.410156 362.398438 549.410156 C 364.621094 549.410156 366.867188 549.152344 369.097656 548.617188 L 447.65625 529.707031 C 450.230469 529.089844 452.660156 528.089844 454.882812 526.769531 L 451.296875 536.125 C 448.8125 542.597656 443.289062 547.34375 436.515625 548.816406 Z M 460.132812 495.667969 C 462.453125 500.667969 462.65625 506.488281 460.679688 511.636719 C 458.265625 517.941406 452.902344 522.648438 446.339844 524.230469 L 367.777344 543.136719 C 357.089844 545.707031 345.964844 540.335938 341.332031 530.363281 L 249.558594 332.78125 C 246.949219 327.171875 247.449219 320.480469 250.859375 315.316406 L 250.867188 315.308594 C 253.464844 311.382812 257.425781 308.667969 262.027344 307.664062 L 265.695312 306.867188 L 280.179688 327.726562 C 283.964844 333.183594 290.136719 336.296875 296.558594 336.296875 C 298.363281 336.296875 300.1875 336.050781 301.984375 335.539062 L 330.59375 327.441406 C 340.035156 324.769531 346.199219 315.414062 344.929688 305.679688 L 342.894531 290.074219 L 346.074219 289.382812 C 355.828125 287.261719 365.578125 292.101562 369.78125 301.15625 L 412.128906 392.328125 C 404.613281 399.507812 396.710938 403.851562 396.601562 403.910156 C 395.59375 404.457031 395.015625 405.558594 395.140625 406.699219 C 395.269531 407.839844 396.074219 408.789062 397.175781 409.101562 C 397.800781 409.277344 407.132812 411.855469 418.542969 411.855469 C 419.410156 411.855469 420.289062 411.839844 421.179688 411.808594 Z M 405.355469 405.0625 C 410.914062 401.234375 419.101562 394.679688 424.765625 386.128906 C 428.242188 380.882812 430.648438 374.035156 431.910156 365.785156 C 432.011719 365.117188 431.867188 364.429688 431.507812 363.855469 C 423.574219 351.265625 419.378906 336.710938 419.378906 321.765625 C 419.378906 278.160156 454.855469 242.6875 498.460938 242.6875 C 542.0625 242.6875 577.539062 278.160156 577.539062 321.765625 C 577.539062 365.371094 542.0625 400.84375 498.460938 400.84375 C 483.90625 400.84375 469.679688 396.855469 457.324219 389.316406 C 456.085938 388.558594 454.476562 388.867188 453.601562 390.027344 C 449.378906 395.640625 444.261719 399.835938 438.394531 402.492188 C 427.28125 407.519531 413.410156 406.386719 405.355469 405.0625 Z M 420.449219 543.519531 C 420.8125 545.03125 419.882812 546.554688 418.367188 546.917969 L 398.246094 551.761719 C 398.023438 551.8125 397.804688 551.839844 397.585938 551.839844 C 396.3125 551.839844 395.160156 550.972656 394.847656 549.679688 C 394.484375 548.167969 395.414062 546.644531 396.925781 546.28125 L 417.050781 541.4375 C 418.5625 541.074219 420.082031 542.007812 420.449219 543.519531 Z M 420.449219 543.519531 " fill-opacity="1" fill-rule="nonzero"/></g></svg>