<svg xmlns="http://www.w3.org/2000/svg" xmlns:xlink="http://www.w3.org/1999/xlink" width="1080" zoomAndPan="magnify" viewBox="0 0 810 809.999993" height="1080" preserveAspectRatio="xMidYMid meet" version="1.0"><defs><clipPath id="a31f0aca52"><path d="M 227 239.34375 L 581 239.34375 L 581 570.84375 L 227 570.84375 Z M 227 239.34375 " clip-rule="nonzero"/></clipPath></defs><g clip-path="url(#a31f0aca52)"><path fill="#ffffff" d="M 444.28125 545.347656 C 430.417969 549.460938 415.988281 551.550781 401.394531 551.550781 C 378.257812 551.550781 356.078125 546.445312 335.46875 536.375 C 329.761719 533.59375 324.191406 530.429688 318.917969 526.964844 L 318.652344 526.78125 C 318.625 526.761719 318.59375 526.742188 318.566406 526.722656 C 276.140625 498.71875 250.808594 451.707031 250.808594 400.964844 C 250.808594 387.988281 252.464844 375.148438 255.726562 362.699219 L 266.332031 368.824219 L 266.335938 368.824219 C 263.839844 379.355469 262.574219 390.148438 262.574219 400.964844 C 262.574219 445.832031 284.433594 488.15625 321.054688 514.183594 C 321.992188 514.851562 323.109375 515.199219 324.246094 515.199219 C 324.636719 515.199219 325.03125 515.160156 325.417969 515.074219 C 326.933594 514.742188 328.242188 513.789062 329.015625 512.445312 L 461.761719 282.523438 C 462.535156 281.179688 462.710938 279.574219 462.238281 278.097656 C 461.769531 276.621094 460.699219 275.410156 459.289062 274.761719 C 441.070312 266.386719 421.59375 262.144531 401.394531 262.144531 C 378.1875 262.144531 355.335938 267.972656 335.082031 279.003906 L 335.074219 278.996094 L 323.308594 272.199219 L 323.304688 272.199219 C 346.816406 257.898438 373.628906 250.378906 401.394531 250.378906 C 424.515625 250.378906 446.699219 255.488281 467.339844 265.574219 C 474.03125 268.828125 480.59375 272.664062 486.84375 276.976562 C 527.628906 305.136719 551.980469 351.488281 551.980469 400.964844 C 551.980469 404.628906 551.847656 408.316406 551.582031 411.914062 C 551.363281 414.949219 553.644531 417.589844 556.679688 417.8125 C 556.816406 417.824219 556.949219 417.828125 557.085938 417.828125 C 559.945312 417.828125 562.363281 415.617188 562.574219 412.71875 C 562.855469 408.851562 563 404.898438 563 400.960938 C 563 347.863281 536.871094 298.125 493.105469 267.902344 C 486.398438 263.277344 479.347656 259.15625 472.167969 255.667969 C 450.019531 244.84375 426.207031 239.355469 401.394531 239.355469 C 369.589844 239.355469 338.945312 248.550781 312.535156 265.980469 L 286.496094 250.941406 C 283.855469 249.417969 280.484375 250.320312 278.96875 252.960938 C 277.445312 255.59375 278.347656 258.964844 280.980469 260.488281 L 302.046875 272.648438 L 256.976562 350.699219 L 255.34375 349.753906 L 255.230469 349.691406 C 255.121094 349.625 255.015625 349.5625 254.902344 349.503906 L 254.851562 349.480469 L 235.917969 338.546875 C 233.28125 337.023438 229.910156 337.925781 228.386719 340.558594 C 226.871094 343.199219 227.773438 346.570312 230.40625 348.085938 L 245.851562 357 L 245.859375 357.003906 C 241.832031 371.269531 239.789062 386.035156 239.789062 400.964844 C 239.789062 455.402344 266.949219 505.839844 312.449219 535.894531 L 312.71875 536.078125 C 312.75 536.101562 312.785156 536.121094 312.816406 536.144531 C 318.496094 539.878906 324.496094 543.289062 330.640625 546.28125 C 352.761719 557.089844 376.566406 562.570312 401.394531 562.570312 C 417.050781 562.570312 432.535156 560.332031 447.417969 555.914062 C 450.335938 555.046875 452 551.980469 451.132812 549.0625 C 450.269531 546.144531 447.199219 544.480469 444.28125 545.347656 Z M 334.972656 291.675781 L 348.800781 299.65625 L 303.75 377.695312 L 289.914062 369.710938 Z M 377.390625 327.417969 C 389.507812 333.96875 401.90625 339.0625 413.824219 343.511719 L 369.761719 419.828125 C 362.746094 403.933594 354.289062 392.496094 344.078125 385.105469 Z M 358.347656 305.167969 L 372.722656 313.460938 L 327.660156 391.5 L 313.292969 383.207031 Z M 322.574219 501.566406 C 291.796875 477.40625 273.59375 440.242188 273.59375 400.964844 C 273.59375 392.105469 274.515625 383.269531 276.335938 374.601562 L 309.101562 393.515625 L 326.921875 403.800781 C 326.945312 403.816406 326.972656 403.824219 327 403.839844 C 327.167969 403.933594 327.335938 404.015625 327.503906 404.089844 C 327.582031 404.121094 327.65625 404.148438 327.730469 404.179688 C 327.867188 404.230469 328.007812 404.277344 328.144531 404.316406 C 328.214844 404.335938 328.285156 404.359375 328.355469 404.375 C 328.546875 404.421875 328.742188 404.460938 328.933594 404.488281 C 328.949219 404.488281 328.960938 404.492188 328.976562 404.496094 C 329.191406 404.523438 329.410156 404.535156 329.625 404.535156 C 329.640625 404.535156 329.65625 404.539062 329.671875 404.539062 C 329.71875 404.539062 329.765625 404.535156 329.816406 404.53125 C 329.929688 404.527344 330.039062 404.523438 330.152344 404.515625 C 330.214844 404.511719 330.273438 404.5 330.335938 404.492188 C 330.453125 404.480469 330.570312 404.464844 330.6875 404.441406 C 330.703125 404.441406 330.71875 404.4375 330.730469 404.433594 C 330.757812 404.429688 330.78125 404.421875 330.804688 404.417969 C 330.976562 404.378906 331.148438 404.335938 331.316406 404.285156 C 331.351562 404.273438 331.386719 404.269531 331.421875 404.257812 C 331.453125 404.246094 331.484375 404.230469 331.519531 404.21875 C 331.59375 404.191406 331.664062 404.164062 331.734375 404.136719 C 331.820312 404.101562 331.898438 404.066406 331.980469 404.03125 C 332.058594 403.996094 332.132812 403.957031 332.210938 403.917969 C 332.285156 403.878906 332.355469 403.839844 332.429688 403.796875 C 332.503906 403.753906 332.582031 403.710938 332.65625 403.660156 C 332.722656 403.617188 332.789062 403.570312 332.855469 403.523438 C 332.929688 403.472656 333.003906 403.417969 333.078125 403.363281 C 333.136719 403.316406 333.195312 403.265625 333.253906 403.214844 C 333.328125 403.152344 333.402344 403.089844 333.472656 403.023438 C 333.523438 402.976562 333.566406 402.925781 333.613281 402.875 C 333.691406 402.796875 333.765625 402.722656 333.839844 402.636719 C 333.867188 402.605469 333.890625 402.570312 333.921875 402.535156 C 334.113281 402.304688 334.292969 402.054688 334.449219 401.785156 L 338.523438 394.730469 C 347.527344 401.597656 355.046875 412.652344 361.402344 428.355469 C 361.589844 428.820312 361.835938 429.246094 362.140625 429.640625 C 362.523438 430.132812 362.894531 430.613281 363.265625 431.082031 Z M 401.394531 273.164062 C 417.949219 273.164062 433.976562 276.257812 449.121094 282.375 L 419.410156 333.835938 C 407.4375 329.402344 394.960938 324.359375 382.902344 317.871094 L 383.800781 316.320312 L 385.023438 314.199219 C 385.082031 314.097656 385.132812 313.992188 385.183594 313.886719 C 385.203125 313.84375 385.230469 313.800781 385.25 313.757812 C 385.296875 313.65625 385.335938 313.550781 385.378906 313.445312 C 385.398438 313.394531 385.421875 313.339844 385.441406 313.285156 C 385.476562 313.183594 385.507812 313.082031 385.535156 312.980469 C 385.554688 312.921875 385.570312 312.863281 385.585938 312.808594 C 385.617188 312.6875 385.640625 312.570312 385.660156 312.449219 C 385.664062 312.429688 385.671875 312.410156 385.675781 312.390625 C 385.675781 312.378906 385.675781 312.367188 385.679688 312.355469 C 385.703125 312.203125 385.722656 312.046875 385.734375 311.886719 C 385.738281 311.871094 385.742188 311.851562 385.742188 311.832031 C 385.746094 311.816406 385.742188 311.800781 385.746094 311.785156 C 385.75 311.683594 385.753906 311.582031 385.753906 311.476562 C 385.753906 311.394531 385.753906 311.3125 385.75 311.230469 C 385.746094 311.15625 385.746094 311.078125 385.738281 311.003906 C 385.730469 310.902344 385.71875 310.804688 385.707031 310.710938 C 385.695312 310.640625 385.6875 310.570312 385.675781 310.5 C 385.660156 310.40625 385.636719 310.3125 385.617188 310.21875 C 385.601562 310.152344 385.589844 310.085938 385.574219 310.019531 C 385.324219 309.097656 384.84375 308.269531 384.191406 307.601562 C 384.1875 307.59375 384.183594 307.589844 384.179688 307.585938 C 384.167969 307.578125 384.160156 307.570312 384.152344 307.5625 C 384.03125 307.4375 383.902344 307.320312 383.769531 307.210938 C 383.730469 307.179688 383.691406 307.148438 383.652344 307.117188 C 383.519531 307.011719 383.382812 306.914062 383.242188 306.824219 C 383.230469 306.816406 383.21875 306.804688 383.207031 306.800781 C 383.175781 306.777344 383.140625 306.757812 383.105469 306.738281 C 383.070312 306.714844 383.039062 306.691406 383.003906 306.671875 L 377.539062 303.515625 L 371.632812 300.105469 L 346.441406 285.558594 C 363.515625 277.425781 382.328125 273.164062 401.394531 273.164062 Z M 311.589844 278.164062 L 325.4375 286.152344 L 280.375 364.203125 L 266.523438 356.214844 Z M 578.15625 480.527344 C 573.203125 462.054688 561.355469 446.609375 544.789062 437.050781 C 542.796875 435.898438 540.757812 434.863281 538.679688 433.914062 C 529.628906 412.363281 521.082031 396.023438 510.292969 379.667969 C 502.335938 367.566406 498.980469 365.664062 487.417969 360.292969 C 486.289062 359.769531 485.074219 359.207031 483.746094 358.578125 C 473.453125 353.71875 463.09375 349.636719 453.757812 346.183594 L 480.214844 300.363281 C 510.992188 324.539062 529.195312 361.703125 529.195312 400.964844 C 529.195312 404.007812 531.660156 406.472656 534.703125 406.472656 C 537.75 406.472656 540.214844 404.007812 540.214844 400.964844 C 540.214844 356.117188 518.355469 313.792969 481.738281 287.746094 C 480.472656 286.84375 478.886719 286.519531 477.371094 286.851562 C 475.855469 287.179688 474.546875 288.136719 473.769531 289.480469 L 341.027344 519.402344 C 340.25 520.746094 340.078125 522.351562 340.546875 523.828125 C 341.019531 525.308594 342.089844 526.519531 343.5 527.164062 C 361.71875 535.539062 381.199219 539.785156 401.394531 539.785156 C 411.976562 539.785156 422.542969 538.578125 432.792969 536.203125 C 435.753906 535.515625 437.601562 532.554688 436.914062 529.589844 C 436.226562 526.625 433.265625 524.78125 430.300781 525.464844 C 420.867188 527.652344 411.140625 528.761719 401.394531 528.761719 C 384.839844 528.761719 368.8125 525.667969 353.667969 519.550781 L 450.960938 351.03125 L 448.167969 355.875 C 457.714844 359.378906 468.460938 363.554688 479.042969 368.546875 C 480.386719 369.179688 481.628906 369.753906 482.773438 370.285156 C 492.953125 375.019531 494.519531 375.742188 501.082031 385.726562 C 509.933594 399.148438 517.234375 412.582031 524.625 429.164062 C 517.632812 427.597656 510.410156 427.09375 503.144531 427.703125 C 500.226562 427.941406 497.347656 428.371094 494.507812 428.949219 L 491.777344 422.378906 C 488.824219 413.183594 482.34375 405.160156 473.488281 399.753906 C 465.402344 394.824219 456.046875 392.648438 448.457031 393.921875 C 438.515625 395.597656 432.503906 402.925781 432.738281 413.074219 C 432.378906 425.074219 444.617188 435.203125 457.578125 445.921875 C 466.089844 452.96875 474.898438 460.253906 479.257812 467.472656 C 486.984375 480.316406 488.101562 483.925781 481.285156 489.910156 C 480.394531 490.691406 476.417969 492.714844 462.636719 486.003906 C 452.535156 481.078125 440.90625 473.269531 431.558594 466.988281 C 424.871094 462.496094 419.09375 458.621094 415 456.503906 C 408.15625 452.980469 401.894531 449.339844 396.324219 445.667969 L 390.8125 455.222656 C 396.574219 459 402.984375 462.707031 409.949219 466.300781 C 413.476562 468.121094 419.007812 471.835938 425.410156 476.136719 C 429.53125 478.910156 434.089844 481.96875 438.796875 484.96875 C 432.800781 514.832031 446.546875 545.675781 473.191406 561.066406 C 484.433594 567.5625 496.726562 570.644531 508.859375 570.644531 C 533.621094 570.644531 557.75 557.800781 571 534.859375 C 580.558594 518.292969 583.105469 498.996094 578.15625 480.527344 Z M 468.070312 440.308594 C 466.910156 439.34375 465.761719 438.386719 464.601562 437.429688 C 454.703125 429.238281 443.480469 419.953125 443.753906 413.328125 C 443.761719 413.199219 443.761719 413.058594 443.753906 412.929688 C 443.609375 408.152344 445.683594 405.566406 450.289062 404.785156 C 459.753906 403.195312 476.554688 410.632812 481.332031 425.921875 C 481.386719 426.082031 481.441406 426.242188 481.503906 426.390625 L 483.847656 432.023438 C 478.285156 434.113281 472.984375 436.882812 468.070312 440.308594 Z M 561.453125 529.351562 C 544.75 558.269531 507.625 568.214844 478.699219 551.527344 C 457.347656 539.1875 445.773438 515.128906 448.925781 491.152344 C 451.925781 492.882812 454.917969 494.496094 457.8125 495.910156 C 463.664062 498.761719 471.136719 501.871094 477.949219 501.871094 C 481.835938 501.871094 485.515625 500.859375 488.550781 498.195312 C 502.984375 485.527344 495.394531 472.917969 488.695312 461.777344 C 485.730469 456.875 481.464844 452.257812 476.671875 447.8125 C 495.617188 435.824219 519.523438 435.1875 539.28125 446.597656 C 553.296875 454.691406 563.320312 467.746094 567.503906 483.375 C 571.695312 499.003906 569.546875 515.335938 561.453125 529.351562 Z M 561.453125 529.351562 " fill-opacity="1" fill-rule="nonzero"/></g></svg>