<svg xmlns="http://www.w3.org/2000/svg" xmlns:xlink="http://www.w3.org/1999/xlink" width="1080" zoomAndPan="magnify" viewBox="0 0 810 809.999993" height="1080" preserveAspectRatio="xMidYMid meet" version="1.0"><defs><clipPath id="5d387cccca"><path d="M 225.375 225.375 L 581.625 225.375 L 581.625 581.625 L 225.375 581.625 Z M 225.375 225.375 " clip-rule="nonzero"/></clipPath></defs><path fill="#ffffff" d="M 264.339844 278.070312 L 446.324219 278.070312 C 448.625 278.070312 450.480469 276.214844 450.480469 273.914062 C 450.480469 271.613281 448.625 269.757812 446.324219 269.757812 L 264.339844 269.757812 C 262.039062 269.757812 260.183594 271.613281 260.183594 273.914062 C 260.183594 276.214844 262.039062 278.070312 264.339844 278.070312 Z M 264.339844 278.070312 " fill-opacity="1" fill-rule="nonzero"/><path fill="#ffffff" d="M 264.339844 320.078125 L 446.324219 320.078125 C 448.625 320.078125 450.480469 318.222656 450.480469 315.921875 C 450.480469 313.621094 448.625 311.765625 446.324219 311.765625 L 264.339844 311.765625 C 262.039062 311.765625 260.183594 313.621094 260.183594 315.921875 C 260.183594 318.222656 262.039062 320.078125 264.339844 320.078125 Z M 264.339844 320.078125 " fill-opacity="1" fill-rule="nonzero"/><path fill="#ffffff" d="M 264.339844 362.085938 L 446.324219 362.085938 C 448.625 362.085938 450.480469 360.230469 450.480469 357.929688 C 450.480469 355.628906 448.625 353.773438 446.324219 353.773438 L 264.339844 353.773438 C 262.039062 353.773438 260.183594 355.628906 260.183594 357.929688 C 260.183594 360.15625 262.039062 362.085938 264.339844 362.085938 Z M 264.339844 362.085938 " fill-opacity="1" fill-rule="nonzero"/><path fill="#ffffff" d="M 264.339844 404.019531 L 384.722656 404.019531 C 387.023438 404.019531 388.878906 402.164062 388.878906 399.863281 C 388.878906 397.5625 387.023438 395.707031 384.722656 395.707031 L 264.339844 395.707031 C 262.039062 395.707031 260.183594 397.5625 260.183594 399.863281 C 260.183594 402.164062 262.039062 404.019531 264.339844 404.019531 Z M 264.339844 404.019531 " fill-opacity="1" fill-rule="nonzero"/><path fill="#ffffff" d="M 264.339844 446.027344 L 384.574219 446.027344 C 386.875 446.027344 388.730469 444.171875 388.730469 441.871094 C 388.730469 439.570312 386.875 437.714844 384.574219 437.714844 L 264.339844 437.714844 C 262.039062 437.714844 260.183594 439.570312 260.183594 441.871094 C 260.183594 444.171875 262.039062 446.027344 264.339844 446.027344 Z M 264.339844 446.027344 " fill-opacity="1" fill-rule="nonzero"/><path fill="#ffffff" d="M 368.542969 479.648438 L 264.339844 479.648438 C 262.039062 479.648438 260.183594 481.503906 260.183594 483.804688 C 260.183594 486.105469 262.039062 487.960938 264.339844 487.960938 L 368.542969 487.960938 C 370.84375 487.960938 372.699219 486.105469 372.699219 483.804688 C 372.699219 481.578125 370.84375 479.648438 368.542969 479.648438 Z M 368.542969 479.648438 " fill-opacity="1" fill-rule="nonzero"/><path fill="#ffffff" d="M 316.292969 524.402344 C 314.511719 523.511719 309.316406 520.839844 307.164062 518.984375 C 301.671875 514.308594 295.4375 513.417969 291.207031 516.609375 C 289.945312 517.574219 289.054688 518.6875 288.3125 519.652344 C 287.941406 520.097656 287.421875 520.839844 287.496094 520.914062 C 287.421875 520.914062 286.976562 520.765625 286.382812 520.246094 C 286.011719 519.949219 285.714844 519.652344 285.34375 519.28125 C 284.378906 518.316406 283.265625 517.277344 281.707031 516.460938 C 277.476562 514.234375 271.761719 515.050781 267.53125 518.539062 C 264.191406 521.285156 262.1875 525.070312 260.628906 528.113281 C 259.589844 530.191406 260.332031 532.714844 262.335938 533.753906 C 262.929688 534.050781 263.597656 534.273438 264.265625 534.273438 C 265.75 534.273438 267.234375 533.457031 267.976562 532.046875 C 269.386719 529.375 270.796875 526.703125 272.800781 524.996094 C 274.359375 523.660156 276.511719 523.214844 277.699219 523.882812 C 278.21875 524.179688 278.8125 524.773438 279.480469 525.367188 C 279.925781 525.8125 280.445312 526.257812 280.890625 526.628906 C 283.5625 528.855469 286.605469 529.746094 289.351562 529.003906 C 292.171875 528.261719 293.730469 526.183594 294.84375 524.699219 C 295.289062 524.105469 295.734375 523.511719 296.03125 523.289062 C 296.921875 522.621094 299.519531 523.585938 301.597656 525.367188 C 304.9375 528.1875 311.765625 531.527344 312.507812 531.898438 C 314.585938 532.863281 317.109375 532.046875 318.074219 529.96875 C 319.261719 527.890625 318.371094 525.441406 316.292969 524.402344 Z M 316.292969 524.402344 " fill-opacity="1" fill-rule="nonzero"/><g clip-path="url(#5d387cccca)"><path fill="#ffffff" d="M 581.253906 500.28125 L 550.230469 430.367188 L 561.660156 430.367188 C 564.035156 430.367188 565.816406 428.4375 565.816406 426.210938 L 565.816406 407.65625 C 565.816406 405.355469 563.960938 403.5 561.660156 403.5 L 496.71875 403.5 C 498.722656 400.53125 499.984375 396.894531 499.984375 393.035156 C 499.984375 384.054688 493.675781 376.632812 485.289062 374.703125 L 485.289062 242.371094 C 485.289062 233.09375 477.71875 225.523438 468.367188 225.523438 L 242.222656 225.523438 C 232.945312 225.523438 225.375 233.09375 225.375 242.371094 L 225.375 553.71875 C 225.375 562.996094 232.945312 570.640625 242.222656 570.640625 L 433.261719 570.640625 C 432.296875 572.273438 431.332031 573.90625 430.589844 575.613281 C 429.996094 576.875 430.144531 578.433594 430.886719 579.546875 C 431.703125 580.734375 433.039062 581.476562 434.375 581.476562 L 527.742188 581.476562 C 529.226562 581.476562 530.488281 580.734375 531.230469 579.546875 C 532.046875 578.359375 532.121094 576.875 531.601562 575.613281 C 524.625 559.804688 510.746094 548.523438 494.566406 544.441406 L 494.566406 430.367188 L 539.394531 430.367188 L 508.371094 500.28125 C 508.148438 500.875 508 501.394531 508 501.914062 C 508 502.0625 508.074219 502.136719 508.074219 502.285156 C 508.148438 513.863281 512.082031 523.660156 519.578125 530.636719 C 526.257812 536.871094 535.238281 540.285156 544.8125 540.285156 C 562.996094 540.285156 581.402344 527.222656 581.550781 502.285156 C 581.625 502.136719 581.625 502.0625 581.625 501.914062 C 581.625 501.394531 581.476562 500.800781 581.253906 500.28125 Z M 391.105469 497.757812 L 417.304688 438.679688 L 443.503906 497.757812 Z M 486.179688 430.367188 L 486.179688 543.03125 C 484.472656 542.882812 482.839844 542.660156 481.132812 542.660156 C 479.425781 542.660156 477.71875 542.882812 476.011719 543.03125 L 476.011719 430.367188 Z M 481.058594 382.570312 C 486.847656 382.570312 491.597656 387.246094 491.597656 393.035156 C 491.597656 398.824219 486.847656 403.5 481.058594 403.5 C 475.269531 403.5 470.519531 398.824219 470.519531 393.035156 C 470.59375 387.246094 475.269531 382.570312 481.058594 382.570312 Z M 242.222656 562.253906 C 237.546875 562.253906 233.6875 558.394531 233.6875 553.71875 L 233.6875 242.371094 C 233.6875 237.695312 237.546875 233.835938 242.222656 233.835938 L 468.292969 233.835938 C 473.042969 233.835938 476.828125 237.695312 476.828125 242.371094 L 476.828125 374.703125 C 468.441406 376.632812 462.132812 384.054688 462.132812 393.035156 C 462.132812 396.894531 463.320312 400.53125 465.398438 403.5 L 400.382812 403.5 C 398.082031 403.5 396.226562 405.355469 396.226562 407.65625 L 396.226562 426.210938 C 396.226562 428.511719 398.15625 430.367188 400.382812 430.367188 L 411.886719 430.367188 L 380.789062 500.28125 C 380.417969 501.097656 380.492188 502.285156 380.492188 502.285156 C 380.566406 513.863281 384.574219 523.660156 391.996094 530.636719 C 398.675781 536.871094 407.730469 540.285156 417.304688 540.285156 C 435.488281 540.285156 453.96875 527.222656 454.117188 502.285156 C 454.117188 502.285156 454.265625 501.246094 453.746094 500.28125 L 422.722656 430.367188 L 467.625 430.367188 L 467.625 544.515625 C 456.417969 547.335938 446.324219 553.570312 438.902344 562.328125 L 242.222656 562.328125 Z M 544.8125 438.679688 L 571.011719 497.757812 L 518.613281 497.757812 Z M 544.8125 438.679688 " fill-opacity="1" fill-rule="nonzero"/></g></svg>