<svg width="150" height="48" viewBox="0 0 150 48" fill="none" xmlns="http://www.w3.org/2000/svg">
<path d="M53.7301 6.4129C53.5739 6.44762 53.4159 6.47713 53.2562 6.50665C53.2058 6.51533 53.1537 6.524 53.1017 6.53268C52.9905 6.55178 52.8794 6.57088 52.7649 6.5865C52.7058 6.59518 52.6451 6.60386 52.5843 6.61254C52.475 6.62816 52.3656 6.64205 52.2545 6.6542C52.1954 6.66115 52.1347 6.6681 52.0739 6.67504C51.9524 6.68719 51.8291 6.69934 51.7076 6.70976C51.659 6.71323 51.6104 6.71844 51.5618 6.72191C51.3899 6.7358 51.2163 6.74622 51.041 6.7549C51.0149 6.7549 50.9872 6.75663 50.9594 6.75837C50.8118 6.76531 50.6625 6.77052 50.5132 6.77226C50.4507 6.77226 50.3882 6.77225 50.3257 6.77399C50.2077 6.77399 50.0914 6.77573 49.9716 6.77399C49.9074 6.77399 49.8414 6.77399 49.7772 6.77226C49.6574 6.77052 49.5393 6.76705 49.4195 6.76357C49.3588 6.76184 49.2963 6.76011 49.2355 6.75663C49.0723 6.74969 48.9091 6.74101 48.746 6.73059C48.7112 6.72885 48.6783 6.72538 48.6435 6.72365C48.4856 6.71323 48.3276 6.69934 48.1696 6.68546C48.1036 6.67851 48.0359 6.67157 47.9699 6.66462C47.8536 6.65247 47.7391 6.64032 47.6227 6.62643C47.5498 6.61775 47.4787 6.60907 47.4057 6.60039C47.2894 6.58476 47.1731 6.56914 47.0551 6.55178C46.9891 6.54136 46.9214 6.53268 46.8554 6.52227C46.6801 6.49449 46.5047 6.46672 46.3311 6.43547C46.2843 6.42679 46.2374 6.41811 46.1905 6.40943C46.0568 6.38512 45.9214 6.35908 45.7878 6.3313C45.7166 6.31568 45.6454 6.30006 45.5725 6.28443C45.4614 6.26013 45.3503 6.23582 45.2409 6.20978C45.1663 6.19242 45.0933 6.17506 45.0204 6.1577C44.9041 6.12992 44.7895 6.10041 44.675 6.06916C44.6107 6.0518 44.5448 6.03618 44.4805 6.01882C44.3087 5.97195 44.1385 5.92334 43.9684 5.87126C43.9146 5.85563 43.8608 5.83827 43.8087 5.82091C43.6854 5.78272 43.5639 5.74453 43.4406 5.70286C43.3712 5.68029 43.3018 5.65599 43.2341 5.63168C43.1264 5.59523 43.0188 5.55703 42.9112 5.51711C42.8435 5.4928 42.774 5.46676 42.7063 5.44072C42.5883 5.39558 42.4719 5.35044 42.3556 5.30357C42.3018 5.28274 42.248 5.26191 42.1942 5.23934C42.031 5.17163 41.8678 5.10219 41.7064 5.02928C41.656 5.00671 41.6057 4.98241 41.5553 4.95984C41.4407 4.90602 41.3262 4.85221 41.2116 4.79839C41.1491 4.76888 41.0883 4.73763 41.0276 4.70638C40.9234 4.6543 40.8192 4.60048 40.7168 4.54493C40.6578 4.51368 40.5988 4.48243 40.5415 4.45119C40.4217 4.38522 40.3036 4.31751 40.1856 4.24981C40.1491 4.22897 40.1109 4.20814 40.0745 4.18557C39.9234 4.09529 39.7742 4.00328 39.6283 3.90954C39.5849 3.88176 39.5415 3.85225 39.4981 3.82274C39.3922 3.7533 39.2881 3.68386 39.1856 3.61094C39.1353 3.57449 39.0832 3.53803 39.0329 3.50158C38.9356 3.43214 38.8402 3.36096 38.7447 3.28804C38.6978 3.25332 38.6527 3.2186 38.6058 3.18214C38.486 3.0884 38.368 2.99118 38.2516 2.89397C38.2343 2.88008 38.2187 2.86619 38.2013 2.8523C38.0694 2.73946 37.9426 2.62488 37.8176 2.50683C37.7812 2.47211 37.7465 2.43739 37.71 2.4044C37.6197 2.3176 37.5329 2.2308 37.4461 2.14226C37.4062 2.1006 37.3663 2.05893 37.3263 2.01727C37.243 1.92873 37.1614 1.83846 37.0816 1.74818C37.0468 1.70999 37.0121 1.6718 36.9791 1.63187C36.868 1.50167 36.7604 1.37146 36.658 1.23605L35.7084 0L34.7588 1.23605C34.6546 1.37146 34.547 1.5034 34.4359 1.63361C34.4029 1.6718 34.3699 1.70825 34.3369 1.74645C34.2553 1.83846 34.1737 1.93047 34.0887 2.019C34.0505 2.06067 34.0105 2.1006 33.9706 2.14226C33.8838 2.23253 33.7935 2.31933 33.7033 2.40614C33.6685 2.43912 33.6338 2.47384 33.5991 2.50683C33.4741 2.62488 33.3456 2.73946 33.2137 2.8523C33.1981 2.86619 33.1824 2.87834 33.1668 2.89049C33.0505 2.98944 32.9307 3.08666 32.8092 3.18214C32.7641 3.21686 32.7172 3.25158 32.672 3.2863C32.5766 3.35922 32.4811 3.4304 32.3821 3.50158C32.3318 3.53803 32.2814 3.57449 32.2311 3.60921C32.1287 3.68212 32.0228 3.75156 31.9169 3.82101C31.8735 3.84878 31.8318 3.87829 31.7867 3.90607C31.6391 3.99981 31.4915 4.09356 31.3405 4.1821C31.3041 4.20293 31.2676 4.22376 31.2311 4.2446C31.1131 4.31404 30.995 4.38 30.8735 4.44597C30.8162 4.47722 30.7572 4.50847 30.6982 4.53972C30.5958 4.59354 30.4916 4.64735 30.3874 4.70117C30.3267 4.73242 30.2659 4.76193 30.2034 4.79318C30.0906 4.84873 29.9743 4.90255 29.8597 4.95463C29.8093 4.9772 29.759 5.0015 29.7086 5.02407C29.5472 5.09699 29.3857 5.16643 29.2208 5.23413C29.167 5.2567 29.1132 5.27753 29.0594 5.29836C28.9431 5.34524 28.8267 5.39037 28.7087 5.43551C28.641 5.46155 28.5715 5.48586 28.5038 5.5119C28.3962 5.55183 28.2886 5.58828 28.1809 5.62648C28.1115 5.65078 28.0421 5.67509 27.9726 5.69765C27.8511 5.73758 27.7296 5.77751 27.6063 5.81397C27.5525 5.83133 27.4987 5.84869 27.4449 5.86431C27.2747 5.91639 27.1046 5.965 26.9345 6.01188C26.8702 6.02924 26.8043 6.04659 26.74 6.06395C26.6255 6.09347 26.5109 6.12298 26.3963 6.15249C26.3217 6.16985 26.2487 6.18895 26.1741 6.20631C26.0647 6.23235 25.9536 6.25665 25.8425 6.28096C25.7713 6.29658 25.6984 6.31221 25.6272 6.32783C25.4936 6.35561 25.3599 6.38165 25.2262 6.40595C25.1793 6.41463 25.1307 6.42505 25.0839 6.43373C24.9085 6.46498 24.7349 6.49449 24.5596 6.52053C24.4919 6.53095 24.4259 6.53963 24.3582 6.55005C24.2419 6.56741 24.1256 6.58303 24.0093 6.59865C23.9363 6.60733 23.8652 6.61601 23.7923 6.62469C23.6759 6.63858 23.5614 6.65073 23.445 6.66289C23.3773 6.66983 23.3114 6.67677 23.2437 6.68372C23.0857 6.69761 22.9277 6.7115 22.7697 6.72191C22.735 6.72365 22.7003 6.72712 22.6656 6.72886C22.5024 6.73927 22.3392 6.74795 22.176 6.7549C22.1135 6.75837 22.0527 6.75837 21.992 6.76184C21.8722 6.76531 21.7524 6.76878 21.6344 6.77052C21.5701 6.77052 21.5042 6.77226 21.4399 6.77226C21.3219 6.77226 21.2038 6.77226 21.0858 6.77226C21.0233 6.77226 20.9608 6.77226 20.8983 6.77052C20.749 6.76705 20.5997 6.76184 20.4521 6.75663C20.4261 6.75663 20.3983 6.75663 20.3705 6.75316C20.1952 6.74448 20.0233 6.73406 19.8497 6.72017C19.8011 6.7167 19.7525 6.7115 19.7039 6.70803C19.5806 6.69761 19.4591 6.68545 19.3376 6.6733C19.2768 6.66636 19.2178 6.65942 19.1571 6.65247C19.0459 6.64032 18.9366 6.62469 18.8272 6.6108C18.7664 6.60212 18.7074 6.59344 18.6467 6.58476C18.5338 6.5674 18.421 6.55004 18.3099 6.53095C18.2578 6.52227 18.2074 6.51359 18.1554 6.50491C17.9956 6.47539 17.8359 6.44414 17.6814 6.41116L16.2301 6.0952V7.58125C16.2301 7.94408 16.2301 8.3017 16.2336 8.65758C16.2336 8.76695 16.2353 8.87459 16.237 8.98222C16.2388 9.24263 16.2423 9.5013 16.2457 9.75996C16.2457 9.86413 16.2492 9.97002 16.2509 10.0742C16.2509 10.1089 16.2509 10.1436 16.2527 10.1783C17.0877 10.3329 17.8915 10.5499 18.6605 10.8294C18.6605 10.7564 18.6571 10.6853 18.6553 10.6124C18.6519 10.4353 18.6484 10.2582 18.6449 10.0794C18.6397 9.72351 18.6345 9.36589 18.631 9.00132C21.3774 9.35721 24.4971 9.1402 27.4084 8.37114C27.7174 8.28955 28.0386 8.19754 28.3702 8.09511C30.693 7.37119 33.5036 6.08132 35.7014 3.79844C37.743 5.91813 40.3123 7.18196 42.5275 7.93019C43.0396 8.10379 43.5309 8.24788 43.9944 8.37114C46.9058 9.1402 50.0254 9.35721 52.7718 9.00132C52.7683 9.36762 52.7631 9.73045 52.7579 10.0881C52.7545 10.2565 52.751 10.4214 52.7475 10.5863C52.5045 22.4347 50.7823 29.4049 47.8276 34.1911C47.7668 34.2883 47.7061 34.3856 47.6436 34.481C47.6106 34.5314 47.5793 34.5835 47.5464 34.6338C47.4856 34.7276 47.4248 34.8178 47.3623 34.9098C47.3276 34.9619 47.2929 35.014 47.2582 35.0643C47.1974 35.1529 47.1349 35.2414 47.0724 35.33C47.036 35.382 46.9995 35.4324 46.9631 35.4845C46.9006 35.5695 46.8381 35.6546 46.7756 35.7379C46.7374 35.79 46.6992 35.8404 46.661 35.8907C46.5985 35.9723 46.5343 36.0539 46.4718 36.1355C46.4318 36.1858 46.3919 36.2379 46.352 36.2883C46.2895 36.3681 46.2252 36.4445 46.161 36.5226C46.1193 36.573 46.0777 36.625 46.036 36.6754C45.9718 36.7518 45.9075 36.8264 45.8433 36.9011C45.7999 36.9514 45.7565 37.0018 45.7131 37.0521C45.6489 37.1268 45.5829 37.1979 45.5169 37.2708C45.4718 37.3195 45.4284 37.3698 45.3833 37.4184C45.3173 37.4896 45.2513 37.5608 45.1836 37.6319C45.1368 37.6806 45.0916 37.7292 45.0447 37.7778C44.9788 37.8472 44.9111 37.9166 44.8434 37.9844C44.7965 38.033 44.7479 38.0798 44.701 38.1284C44.6333 38.1961 44.5656 38.2621 44.4979 38.3281C44.4493 38.375 44.4007 38.4236 44.3503 38.4704C44.2826 38.5364 44.2132 38.6006 44.1437 38.6649C44.0934 38.7117 44.043 38.7586 43.9927 38.8038C43.9233 38.868 43.8538 38.9305 43.7826 38.9947C43.7306 39.0416 43.6802 39.0867 43.6281 39.1319C43.557 39.1944 43.4875 39.2551 43.4163 39.3176C43.3643 39.3628 43.3104 39.4079 43.2566 39.4548C43.1855 39.5155 43.1143 39.5763 43.0414 39.6353C42.9875 39.6805 42.932 39.7256 42.8782 39.7707C42.8053 39.8298 42.7341 39.8888 42.6612 39.9478C42.6056 39.9929 42.5501 40.0381 42.4928 40.0815C42.4199 40.1388 42.3469 40.1978 42.274 40.2551C42.2167 40.3002 42.1595 40.3436 42.1022 40.3888C42.0293 40.446 41.9546 40.5016 41.88 40.5589C41.8209 40.604 41.7619 40.6474 41.7029 40.6926C41.6282 40.7481 41.5553 40.8037 41.4807 40.8575C41.4199 40.9026 41.3591 40.946 41.2984 40.9912C41.2237 41.045 41.1491 41.0988 41.0744 41.1526C41.0119 41.1977 40.9494 41.2411 40.8869 41.2863C40.8123 41.3401 40.7359 41.3922 40.6613 41.446C40.5988 41.4894 40.5345 41.5345 40.4703 41.5779C40.3939 41.63 40.3175 41.6838 40.2411 41.7359C40.1769 41.7793 40.1109 41.8244 40.0467 41.8679C39.9703 41.9199 39.8939 41.972 39.8158 42.0224C39.7481 42.0675 39.6821 42.1109 39.6144 42.156C39.538 42.2064 39.4617 42.2567 39.3853 42.3071C39.3158 42.3522 39.2464 42.3973 39.177 42.4425C39.1006 42.4928 39.0242 42.5414 38.9461 42.5918C38.8749 42.6369 38.8054 42.6821 38.7343 42.7272C38.6561 42.7775 38.5798 42.8261 38.5016 42.8765C38.4287 42.9216 38.3558 42.9685 38.2829 43.0136C38.2065 43.0622 38.1284 43.1108 38.0503 43.1595C37.9704 43.2098 37.8906 43.2584 37.8107 43.3088C37.7395 43.3539 37.6683 43.3973 37.5972 43.4424C37.5086 43.498 37.4184 43.5518 37.3298 43.6074C37.2656 43.6473 37.1996 43.6872 37.1354 43.7271C37.0399 43.7862 36.9427 43.8452 36.8455 43.9042C36.7864 43.9407 36.7257 43.9771 36.6667 44.0136C36.5451 44.0865 36.4236 44.1611 36.3021 44.2358C36.2656 44.2584 36.2309 44.2792 36.1945 44.3018C36.0347 44.399 35.8733 44.4962 35.7118 44.5934C35.5504 44.4962 35.3889 44.399 35.2292 44.3018C35.1928 44.2792 35.158 44.2584 35.1216 44.2358C35.0001 44.1611 34.8768 44.0882 34.757 44.0136C34.6997 43.9789 34.6424 43.9441 34.5852 43.9077C34.4862 43.8469 34.3855 43.7862 34.2866 43.7254C34.2258 43.6872 34.165 43.6508 34.1043 43.6126C34.0105 43.5553 33.9168 43.498 33.823 43.439C33.7553 43.3973 33.6876 43.3556 33.6199 43.3122C33.5349 43.2601 33.4515 43.2081 33.3682 43.156C33.2953 43.1091 33.2224 43.064 33.1477 43.0171C33.0713 42.9685 32.9932 42.9199 32.9168 42.8713C32.8422 42.8244 32.7675 42.7758 32.6929 42.7289C32.62 42.6821 32.5453 42.6352 32.4724 42.5883C32.3978 42.5397 32.3248 42.4928 32.2502 42.4442C32.1773 42.3973 32.1044 42.3505 32.0332 42.3036C31.9585 42.255 31.8856 42.2064 31.8127 42.1578C31.7433 42.1109 31.6721 42.0658 31.6027 42.0189C31.528 41.9685 31.4534 41.9182 31.3787 41.8679C31.311 41.8227 31.2433 41.7758 31.1756 41.7307C31.1009 41.6804 31.0263 41.6283 30.9516 41.5762C30.8857 41.5311 30.8214 41.4859 30.7555 41.4408C30.6808 41.3887 30.6079 41.3366 30.5333 41.2845C30.469 41.2394 30.4048 41.1943 30.3406 41.1491C30.2676 41.0971 30.1947 41.0432 30.1218 40.9912C30.0593 40.946 29.9968 40.9009 29.9343 40.854C29.8614 40.8002 29.7885 40.7464 29.7156 40.6926C29.6548 40.6474 29.5941 40.6023 29.5333 40.5554C29.4604 40.4999 29.3875 40.4443 29.3163 40.3888C29.2573 40.3436 29.1983 40.2985 29.141 40.2533C29.0681 40.1978 28.9969 40.1405 28.9257 40.0832C28.8684 40.0381 28.8111 39.9912 28.7538 39.9461C28.6826 39.8888 28.6115 39.8315 28.5403 39.7725C28.4847 39.7256 28.4275 39.6805 28.3719 39.6336C28.3007 39.5746 28.2313 39.5155 28.1618 39.4565C28.108 39.4096 28.0525 39.3628 27.9987 39.3159C27.9292 39.2551 27.8598 39.1944 27.7903 39.1336C27.7365 39.0867 27.6844 39.0399 27.6306 38.9912C27.5612 38.9287 27.4935 38.8663 27.424 38.8038C27.3719 38.7569 27.3216 38.7083 27.2695 38.6614C27.2018 38.5972 27.1341 38.5347 27.0664 38.4704C27.0161 38.4218 26.9657 38.3732 26.9154 38.3246C26.8477 38.2586 26.7817 38.1944 26.7157 38.1284C26.6671 38.0798 26.6185 38.0295 26.5699 37.9809C26.5039 37.9132 26.438 37.8455 26.372 37.7778C26.3251 37.7274 26.2765 37.6788 26.2296 37.6285C26.1637 37.559 26.0994 37.4896 26.0335 37.4201C25.9866 37.3698 25.9415 37.3195 25.8963 37.2691C25.8321 37.1979 25.7679 37.1268 25.7036 37.0538C25.6585 37.0035 25.6151 36.9514 25.5699 36.8993C25.5057 36.8264 25.4432 36.7518 25.379 36.6771C25.3356 36.625 25.2922 36.573 25.2505 36.5209C25.188 36.4445 25.1255 36.3681 25.063 36.29C25.0214 36.2379 24.9797 36.1858 24.9398 36.132C24.8773 36.0522 24.8148 35.974 24.754 35.8924C24.7141 35.8404 24.6742 35.7865 24.6342 35.7327C24.5735 35.6511 24.511 35.5678 24.4502 35.4845C24.4467 35.4793 24.4433 35.4741 24.4398 35.4688V39.2013C26.1845 41.0641 28.1566 42.5918 30.3041 44.0257C30.3163 44.0344 30.3284 44.0431 30.3423 44.05C30.8301 44.3747 31.3249 44.6958 31.8301 45.0135C31.8492 45.0257 31.8683 45.0378 31.8856 45.05C32.1339 45.2062 32.3821 45.3625 32.6339 45.517C32.653 45.5291 32.6703 45.5396 32.6894 45.5517C32.9307 45.701 33.1755 45.8503 33.4203 46.0013C33.4376 46.0118 33.4533 46.0222 33.4706 46.0326C33.7189 46.1836 33.9689 46.3364 34.2206 46.4874C34.2744 46.5187 34.3265 46.5517 34.3803 46.5847C34.6164 46.727 34.8542 46.8711 35.0921 47.0152L35.7101 47.3884L36.3281 47.0152C36.566 46.8728 36.8003 46.7305 37.0347 46.5881C37.0902 46.5551 37.1458 46.5204 37.2014 46.4874C37.4513 46.3364 37.6996 46.1854 37.9444 46.0361C37.9652 46.0239 37.986 46.0118 38.0051 45.9979C38.2464 45.8503 38.486 45.7045 38.7238 45.5569C38.7447 45.543 38.7655 45.5309 38.7881 45.517C39.0381 45.3625 39.2846 45.208 39.5311 45.0535C39.5519 45.0396 39.5745 45.0257 39.5953 45.0118C40.0971 44.6959 40.5901 44.3764 41.0744 44.0535C41.0901 44.0431 41.104 44.0344 41.1196 44.024C41.6161 43.6924 42.1022 43.3556 42.5778 43.0119C42.5778 43.0119 42.5796 43.0119 42.5813 43.0102C43.307 42.4876 44.0083 41.9442 44.6836 41.3748C44.6836 41.3748 44.6836 41.3748 44.6854 41.3731C45.8138 40.4217 46.871 39.3888 47.8467 38.2274C48.6661 37.2517 49.43 36.1858 50.1278 34.9984C53.2996 29.6063 54.8741 22.1361 55.138 11.0533C55.145 10.7304 55.1519 10.404 55.1571 10.0759C55.1571 9.97176 55.1606 9.86586 55.1623 9.7617C55.1658 9.50477 55.1693 9.2461 55.171 8.98396C55.171 8.87633 55.1727 8.76696 55.1745 8.65932C55.1762 8.30344 55.1779 7.94581 55.1779 7.58298V6.09694L53.7266 6.4129H53.7301Z" fill="#D9D9D9"/>
<path d="M17.2527 37.0591V39.1163H22.8601V34.0037C21.8098 34.9949 20.5928 35.7935 19.2266 36.3838C18.5964 36.6563 17.9367 36.8785 17.2527 37.0591Z" fill="#D9D9D9"/>
<path d="M27.6758 32.3735C27.7592 32.3735 27.8373 32.37 27.9189 32.3683L32.594 39.1145H38.5798L33.2138 31.3718C33.2242 31.3666 33.2363 31.3631 33.2468 31.3579C34.8057 30.6809 36.0105 29.6948 36.8577 28.3997C37.7066 27.1047 38.1302 25.5509 38.1302 23.7385C38.1302 21.9261 37.7049 20.4018 36.8577 19.0946C36.0088 17.7874 34.8057 16.784 33.2468 16.0843C31.6878 15.3847 29.8303 15.0358 27.6741 15.0358H23.992L24.6673 15.8586L19.2943 20.7699L18.4853 19.8237C18.1034 19.3776 17.6885 18.9957 17.251 18.6693V29.1549C17.6885 28.8251 18.1034 28.4414 18.4853 27.9952L19.2943 27.0474L24.6673 31.9603L24.3288 32.3718H27.6741L27.6758 32.3735ZM22.8601 27.9362V19.5772H27.3668C29.0629 19.5772 30.3476 19.9383 31.2191 20.6605C32.0906 21.3827 32.5263 22.4087 32.5263 23.7385C32.5263 25.0683 32.0906 26.1012 31.2191 26.8338C30.3476 27.5682 29.0629 27.9345 27.3668 27.9345H22.8601V27.9362Z" fill="#D9D9D9"/>
<path d="M16.6676 30.9274C15.6468 31.4205 14.541 31.667 13.3483 31.667C12.2251 31.667 11.1922 31.4778 10.253 31.0993C9.31207 30.7209 8.49787 30.1879 7.8104 29.5004C7.12293 28.813 6.58997 27.9988 6.21152 27.0578C5.83306 26.1169 5.64384 25.0753 5.64384 23.9278C5.64384 22.7803 5.83306 21.7386 6.21152 20.7977C6.58997 19.8568 7.12293 19.0426 7.8104 18.3551C8.49787 17.6676 9.31207 17.1347 10.253 16.7562C11.1939 16.3778 12.2251 16.1885 13.3483 16.1885C14.541 16.1885 15.6468 16.4299 16.6676 16.9107C17.6884 17.3916 18.5998 18.1034 19.4019 19.0426L23.0128 15.7406C21.8653 14.3414 20.4435 13.2807 18.7474 12.5585C17.0496 11.8363 15.159 11.4752 13.0723 11.4752C11.2148 11.4752 9.48914 11.779 7.89547 12.3866C6.30179 12.9942 4.9147 13.8605 3.73247 14.9837C2.55197 16.1069 1.63361 17.4263 0.980858 18.9401C0.32811 20.454 0 22.1171 0 23.9278C0 25.7384 0.326374 27.4016 0.980858 28.9154C1.63361 30.4292 2.54676 31.7486 3.71511 32.8718C4.88519 33.995 6.26534 34.8613 7.86075 35.4689C9.45442 36.0765 11.18 36.3803 13.0376 36.3803C15.1469 36.3803 17.0496 36.014 18.7474 35.2797C20.4435 34.5453 21.8653 33.4794 23.0128 32.0802L19.4019 28.7782C18.5981 29.7192 17.6867 30.4344 16.6676 30.9274Z" fill="#D9D9D9"/>
<path d="M61.4294 47.3329L64.3703 40.9009H65.0404L67.9812 47.3329H67.2642L64.563 41.2967H64.839L62.1377 47.3329H61.4294ZM62.5874 45.6142L62.7888 45.0622H66.5282L66.7295 45.6142H62.5856H62.5874Z" fill="#D9D9D9"/>
<path d="M73.6406 47.3329V40.9009H76.2586C76.9443 40.9009 77.5467 41.038 78.064 41.3106C78.5814 41.5831 78.9841 41.9616 79.2723 42.446C79.5605 42.9303 79.7046 43.4876 79.7046 44.1177C79.7046 44.7479 79.5605 45.3069 79.2723 45.7895C78.9841 46.2739 78.5814 46.6524 78.064 46.9249C77.5467 47.1975 76.9443 47.3346 76.2586 47.3346H73.6406V47.3329ZM74.3211 46.7444H76.2238C76.7933 46.7444 77.288 46.6333 77.7081 46.4093C78.1283 46.1854 78.4546 45.8763 78.6873 45.4805C78.9199 45.0847 79.0362 44.6299 79.0362 44.116C79.0362 43.6021 78.9199 43.1386 78.6873 42.7463C78.4546 42.3539 78.1283 42.0467 77.7081 41.8227C77.288 41.5988 76.7933 41.4877 76.2238 41.4877H74.3211V46.7426V46.7444Z" fill="#D9D9D9"/>
<path d="M87.4596 47.3329L84.6107 40.9009H85.3451L88.0099 46.9562H87.6054L90.2875 40.9009H90.9767L88.1279 47.3329H87.4578H87.4596Z" fill="#D9D9D9"/>
<path d="M99.2575 47.3884C98.7732 47.3884 98.3253 47.3068 97.9121 47.1454C97.4989 46.9839 97.1396 46.753 96.8375 46.4562C96.5337 46.1593 96.2976 45.8138 96.1292 45.418C95.9608 45.0222 95.8757 44.5899 95.8757 44.1177C95.8757 43.6455 95.9591 43.2133 96.1292 42.8174C96.2976 42.4216 96.5337 42.0762 96.8375 41.7793C97.1413 41.4824 97.4972 41.2533 97.9086 41.0901C98.3183 40.9286 98.7697 40.847 99.2593 40.847C99.7488 40.847 100.19 40.9286 100.601 41.0901C101.011 41.2533 101.369 41.4807 101.672 41.7741C101.976 42.0675 102.211 42.4147 102.381 42.8122C102.549 43.2098 102.634 43.6455 102.634 44.1177C102.634 44.5899 102.549 45.0239 102.381 45.4232C102.212 45.8208 101.976 46.168 101.672 46.4614C101.369 46.7548 101.013 46.9839 100.601 47.1454C100.191 47.3086 99.7436 47.3884 99.2593 47.3884H99.2575ZM99.2575 46.7825C99.6429 46.7825 100.001 46.7166 100.329 46.5846C100.657 46.4527 100.941 46.2669 101.183 46.0239C101.424 45.7826 101.613 45.4996 101.749 45.1784C101.884 44.8573 101.95 44.5031 101.95 44.1177C101.95 43.7323 101.882 43.3782 101.749 43.057C101.613 42.7359 101.426 42.4529 101.183 42.2116C100.941 41.9703 100.655 41.7828 100.329 41.6508C100.001 41.5189 99.6447 41.4529 99.2575 41.4529C98.8704 41.4529 98.5128 41.5189 98.1829 41.6508C97.8513 41.7828 97.5649 41.9703 97.3184 42.2116C97.0736 42.4529 96.8826 42.7359 96.749 43.057C96.6135 43.3782 96.5476 43.7323 96.5476 44.1177C96.5476 44.5031 96.6153 44.8503 96.749 45.175C96.8844 45.4996 97.0736 45.7826 97.3184 46.0256C97.5632 46.2669 97.8513 46.4544 98.1829 46.5864C98.5145 46.7183 98.8721 46.7843 99.2575 46.7843V46.7825Z" fill="#D9D9D9"/>
<path d="M111.569 47.3884C111.08 47.3884 110.627 47.3068 110.214 47.1454C109.8 46.9839 109.441 46.7548 109.139 46.4614C108.835 46.168 108.599 45.8208 108.431 45.4232C108.262 45.0257 108.177 44.5899 108.177 44.1177C108.177 43.6455 108.261 43.2115 108.431 42.8122C108.599 42.4147 108.837 42.0675 109.142 41.7741C109.448 41.4807 109.809 41.2515 110.222 41.0901C110.635 40.9286 111.087 40.847 111.578 40.847C112.069 40.847 112.517 40.9234 112.924 41.0762C113.332 41.229 113.679 41.4616 113.967 41.7741L113.545 42.2064C113.276 41.9373 112.979 41.7446 112.654 41.6283C112.33 41.5119 111.981 41.4529 111.608 41.4529C111.21 41.4529 110.844 41.5189 110.51 41.6508C110.177 41.7828 109.886 41.9703 109.637 42.2116C109.389 42.4529 109.196 42.7359 109.059 43.057C108.922 43.3782 108.853 43.7323 108.853 44.1177C108.853 44.5031 108.922 44.8503 109.059 45.175C109.196 45.4996 109.391 45.7826 109.637 46.0256C109.886 46.2669 110.175 46.4544 110.51 46.5864C110.844 46.7183 111.207 46.7843 111.599 46.7843C111.967 46.7843 112.314 46.7287 112.642 46.6193C112.97 46.5082 113.272 46.3225 113.547 46.0586L113.932 46.5725C113.627 46.8416 113.267 47.0464 112.858 47.1836C112.448 47.3207 112.019 47.3901 111.571 47.3901L111.569 47.3884ZM113.278 46.4874V44.116H113.93V46.569L113.278 46.4857V46.4874Z" fill="#D9D9D9"/>
<path d="M119.416 47.3329L122.357 40.9009H123.027L125.968 47.3329H125.251L122.55 41.2967H122.826L120.125 47.3329H119.416ZM120.574 45.6142L120.776 45.0622H124.515L124.716 45.6142H120.573H120.574Z" fill="#D9D9D9"/>
<path d="M131.628 47.3329V40.9009H134.246C134.931 40.9009 135.534 41.038 136.051 41.3106C136.568 41.5831 136.971 41.9616 137.259 42.446C137.547 42.9303 137.692 43.4876 137.692 44.1177C137.692 44.7479 137.547 45.3069 137.259 45.7895C136.971 46.2739 136.568 46.6524 136.051 46.9249C135.534 47.1975 134.931 47.3346 134.246 47.3346H131.628V47.3329ZM132.308 46.7444H134.211C134.78 46.7444 135.275 46.6333 135.695 46.4093C136.115 46.1854 136.442 45.8763 136.674 45.4805C136.907 45.0847 137.023 44.6299 137.023 44.116C137.023 43.6021 136.907 43.1386 136.674 42.7463C136.442 42.3539 136.115 42.0467 135.695 41.8227C135.275 41.5988 134.78 41.4877 134.211 41.4877H132.308V46.7426V46.7444Z" fill="#D9D9D9"/>
<path d="M146.623 47.3884C146.139 47.3884 145.691 47.3068 145.278 47.1454C144.865 46.9839 144.505 46.753 144.203 46.4562C143.9 46.1593 143.663 45.8138 143.495 45.418C143.327 45.0222 143.242 44.5899 143.242 44.1177C143.242 43.6455 143.325 43.2133 143.495 42.8174C143.663 42.4216 143.9 42.0762 144.203 41.7793C144.507 41.4824 144.863 41.2533 145.274 41.0901C145.684 40.9286 146.136 40.847 146.625 40.847C147.115 40.847 147.556 40.9286 147.967 41.0901C148.377 41.2533 148.734 41.4807 149.038 41.7741C149.342 42.0675 149.576 42.4147 149.746 42.8122C149.915 43.2098 150 43.6455 150 44.1177C150 44.5899 149.915 45.0239 149.746 45.4232C149.578 45.8208 149.342 46.168 149.038 46.4614C148.734 46.7548 148.378 46.9839 147.967 47.1454C147.557 47.3086 147.109 47.3884 146.625 47.3884H146.623ZM146.623 46.7825C147.009 46.7825 147.366 46.7166 147.694 46.5846C148.023 46.4527 148.307 46.2669 148.549 46.0239C148.79 45.7826 148.979 45.4996 149.115 45.1784C149.25 44.8573 149.316 44.5031 149.316 44.1177C149.316 43.7323 149.248 43.3782 149.115 43.057C148.979 42.7359 148.792 42.4529 148.549 42.2116C148.307 41.9703 148.021 41.7828 147.694 41.6508C147.366 41.5189 147.011 41.4529 146.623 41.4529C146.236 41.4529 145.879 41.5189 145.549 41.6508C145.217 41.7828 144.931 41.9703 144.684 42.2116C144.439 42.4529 144.248 42.7359 144.115 43.057C143.979 43.3782 143.913 43.7323 143.913 44.1177C143.913 44.5031 143.981 44.8503 144.115 45.175C144.25 45.4996 144.439 45.7826 144.684 46.0256C144.929 46.2669 145.217 46.4544 145.549 46.5864C145.88 46.7183 146.238 46.7843 146.623 46.7843V46.7825Z" fill="#D9D9D9"/>
<path d="M65.0039 15.3813C63.8425 14.6626 62.9572 13.6817 62.3461 12.437C61.735 11.1922 61.4294 9.78952 61.4294 8.2323C61.4294 6.67508 61.7506 5.22723 62.3912 3.98076C63.0335 2.73602 63.9502 1.76211 65.1411 1.05902C66.332 0.355928 67.7312 0.00524902 69.3336 0.00524902C70.83 0.00524902 72.106 0.361138 73.1615 1.07117C74.2153 1.78121 75.0017 2.83151 75.5208 4.22207H73.8021C73.5122 2.9999 73.0192 2.10237 72.3248 1.52948C71.6286 0.956594 70.6634 0.670146 69.4256 0.670146C67.5611 0.670146 66.2973 1.39581 65.6324 2.84713C64.9675 4.29845 64.6359 6.09351 64.6359 8.2323C64.6359 10.3711 64.9675 12.1661 65.6324 13.6175C66.2973 15.0688 67.5611 15.7944 69.4256 15.7944C70.587 15.7944 71.4949 15.4976 72.1529 14.9004C72.8091 14.3049 73.2761 13.4196 73.5504 12.2425H75.2691C74.75 13.6331 73.9636 14.6834 72.9081 15.3934C71.8543 16.1035 70.5783 16.4593 69.0819 16.4593C67.5854 16.4593 66.1636 16.1 65.0022 15.383L65.0039 15.3813Z" fill="#D9D9D9"/>
<path d="M74.8108 15.9992C75.1615 15.862 75.4757 15.6641 75.75 15.4037C76.0243 15.145 76.2396 14.8464 76.3923 14.5097L82.4424 0.232544H84.1611L90.0965 14.5097C90.2493 14.8447 90.4628 15.1433 90.7389 15.4037C91.0132 15.6641 91.3274 15.862 91.6781 15.9992V16.2283H85.9717V15.9992C86.5064 15.7856 86.7738 15.4575 86.7738 15.0131C86.7738 14.6312 86.43 13.7146 85.7426 12.2632L85.4683 11.6678H78.3645L78.0902 12.2875C77.7846 12.9455 77.5364 13.501 77.3454 13.9611C77.1544 14.4194 77.059 14.7631 77.059 14.9923C77.059 15.4506 77.3263 15.7874 77.861 16.0009V16.2301H74.8125V16.0009L74.8108 15.9992ZM81.8921 3.30358L78.6613 10.9803H85.1697L81.8921 3.30358Z" fill="#D9D9D9"/>
<path d="M93.0513 15.9992C93.4644 15.8169 93.7578 15.6363 93.9332 15.461C94.1085 15.2857 94.1971 15.0131 94.1971 14.6468V1.81407C94.1971 1.44603 94.1085 1.17695 93.9332 0.999872C93.7578 0.824533 93.4644 0.643984 93.0513 0.461701V0.232544H98.5284V0.461701C98.117 0.643984 97.8219 0.824533 97.6465 0.999872C97.4712 1.17695 97.3827 1.44603 97.3827 1.81407V14.6468C97.3827 15.0131 97.4695 15.2857 97.6465 15.461C97.8219 15.6363 98.117 15.8169 98.5284 15.9992V16.2283H93.0513V15.9992Z" fill="#D9D9D9"/>
<path d="M102.745 15.4159C101.539 14.7197 100.61 13.7545 99.9606 12.5167C99.3113 11.2789 98.9867 9.85019 98.9867 8.23047C98.9867 6.61075 99.3113 5.182 99.9606 3.94421C100.61 2.70642 101.539 1.74118 102.745 1.04504C103.952 0.350624 105.365 0.00341797 106.985 0.00341797C108.604 0.00341797 110.017 0.350624 111.224 1.04504C112.431 1.74118 113.359 2.70642 114.009 3.94421C114.658 5.182 114.982 6.61075 114.982 8.23047C114.982 9.85019 114.658 11.2789 114.009 12.5167C113.359 13.7545 112.431 14.7197 111.224 15.4159C110.017 16.1103 108.604 16.4575 106.985 16.4575C105.365 16.4575 103.952 16.1103 102.745 15.4159ZM110.778 13.6156C111.443 12.1643 111.774 10.3693 111.774 8.23047C111.774 6.09168 111.443 4.29663 110.778 2.8453C110.113 1.39398 108.849 0.668321 106.985 0.668321C105.12 0.668321 103.856 1.39398 103.191 2.8453C102.526 4.29663 102.195 6.09168 102.195 8.23047C102.195 10.3693 102.526 12.1643 103.191 13.6156C103.856 15.067 105.12 15.7926 106.985 15.7926C108.849 15.7926 110.113 15.067 110.778 13.6156Z" fill="#D9D9D9"/>
<path d="M61.4294 35.9966C61.7645 35.8907 62.0405 35.6876 62.254 35.389C62.4675 35.0904 62.5752 34.7675 62.5752 34.4151V22.0407C62.5752 21.69 62.4675 21.3653 62.254 21.0667C62.0405 20.7681 61.7645 20.5668 61.4294 20.4591V20.23H72.2223C73.4601 20.23 74.4566 20.6119 75.2117 21.3758C75.9687 22.1396 76.3454 23.1396 76.3454 24.3773C76.3454 25.6151 75.9704 26.6429 75.2222 27.4137C74.4739 28.1845 73.4722 28.5716 72.2206 28.5716H69.4933C70.6234 28.8008 71.5175 29.1202 72.1737 29.5334C72.8299 29.9448 73.3229 30.3927 73.6528 30.8736C73.9809 31.3545 74.3142 31.9846 74.6493 32.7641C75.0156 33.5748 75.3819 34.2415 75.7499 34.7692C76.1162 35.297 76.644 35.7813 77.3314 36.224H74.2378C73.5191 36.224 72.8664 36.0209 72.2779 35.6164C71.6893 35.2119 71.3039 34.672 71.1199 34.0002C71.0435 33.7415 70.9862 33.5123 70.9481 33.3127C70.9099 33.1148 70.8751 32.9464 70.8439 32.8075C70.6755 32.0124 70.5071 31.384 70.3404 30.917C70.172 30.45 69.9012 30.016 69.5263 29.6115C69.1513 29.207 68.6131 28.8598 67.91 28.5699H65.7556V34.4116C65.7556 34.764 65.8615 35.0869 66.0768 35.3855C66.2903 35.6824 66.5646 35.8855 66.9014 35.9931V36.2223H61.4242V35.9931L61.4294 35.9966ZM69.7016 27.8841C70.7397 27.8841 71.573 27.5717 72.1997 26.9449C72.8264 26.3182 73.1389 25.4849 73.1389 24.4468C73.1389 23.4086 72.8334 22.5215 72.2223 21.8792C71.6112 21.2369 70.771 20.9174 69.7016 20.9174H65.7608V27.8841H69.7016Z" fill="#D9D9D9"/>
<path d="M78.248 35.9966C78.5987 35.8595 78.913 35.6615 79.1872 35.4011C79.4615 35.1425 79.6768 34.8439 79.8296 34.5071L85.8796 20.23H87.5983L93.5338 34.5071C93.6866 34.8421 93.9001 35.1407 94.1761 35.4011C94.4504 35.6615 94.7646 35.8595 95.1153 35.9966V36.2258H89.409V35.9966C89.9437 35.7831 90.211 35.455 90.211 35.0105C90.211 34.6286 89.8673 33.712 89.1798 32.2607L88.9055 31.6652H81.8017L81.5274 32.285C81.2219 32.9429 80.9736 33.4985 80.7827 33.9585C80.5917 34.4168 80.4962 34.7605 80.4962 34.9897C80.4962 35.448 80.7636 35.7848 81.2983 35.9983V36.2275H78.2498V35.9983L78.248 35.9966ZM85.3293 23.301L82.0986 30.9777H88.6069L85.3293 23.301Z" fill="#D9D9D9"/>
<path d="M96.4886 35.9966C96.8393 35.8751 97.1188 35.672 97.3254 35.389C97.532 35.106 97.6344 34.7814 97.6344 34.4151V22.0407C97.6344 21.6744 97.5303 21.3497 97.3254 21.0667C97.1188 20.7838 96.8393 20.5824 96.4886 20.4591V20.23H101.049L105.907 33.2919L110.879 20.23H115.302V20.4591C114.951 20.5806 114.672 20.7838 114.465 21.0667C114.259 21.3497 114.156 21.6744 114.156 22.0407V34.4151C114.156 34.7831 114.259 35.1078 114.465 35.389C114.672 35.672 114.95 35.8733 115.302 35.9966V36.2258H109.802V35.9966C110.153 35.8751 110.432 35.672 110.639 35.389C110.846 35.106 110.948 34.7814 110.948 34.4151V22.0407L105.54 36.2258H103.57L98.3219 22.0875V34.4151C98.3219 34.7831 98.4243 35.1078 98.6309 35.389C98.8375 35.672 99.1153 35.8733 99.4677 35.9966V36.2258H96.4886V35.9966Z" fill="#D9D9D9"/>
<path d="M116.219 35.9965C116.569 35.8594 116.883 35.6615 117.158 35.4011C117.432 35.1424 117.647 34.8438 117.8 34.507L123.85 20.2299H125.569L131.504 34.507C131.657 34.8421 131.871 35.1407 132.147 35.4011C132.421 35.6615 132.735 35.8594 133.086 35.9965V36.2257H127.379V35.9965C127.914 35.783 128.181 35.4549 128.181 35.0105C128.181 34.6285 127.838 33.7119 127.15 32.2606L126.876 31.6651H119.772L119.498 32.2849C119.192 32.9429 118.944 33.4984 118.753 33.9584C118.562 34.4167 118.467 34.7605 118.467 34.9896C118.467 35.4479 118.734 35.7847 119.269 35.9983V36.2274H116.22V35.9983L116.219 35.9965ZM123.3 23.3009L120.069 30.9777H126.577L123.3 23.3009ZM125.235 17.4002C124.847 17.1641 124.437 16.8394 124.01 16.4263C123.704 16.152 123.475 15.961 123.322 15.8534C123.17 15.7475 123.01 15.6937 122.841 15.6937C122.581 15.6937 122.39 15.8464 122.269 16.152C122.145 16.4575 122.085 16.8394 122.085 17.2978H121.397C121.397 16.4124 121.515 15.6937 121.753 15.1433C121.989 14.593 122.475 14.3187 123.208 14.3187C123.65 14.3187 124.051 14.4229 124.411 14.6277C124.77 14.8343 125.178 15.1208 125.636 15.4871C125.942 15.7475 126.19 15.9367 126.381 16.06C126.572 16.1815 126.76 16.244 126.942 16.244C127.506 16.244 127.789 15.6867 127.789 14.5704H128.477C128.477 15.6086 128.346 16.4002 128.088 16.9419C127.827 17.4852 127.331 17.7561 126.598 17.7561C126.079 17.7561 125.624 17.638 125.234 17.4002H125.235Z" fill="#D9D9D9"/>
<path d="M137.758 35.4133C136.551 34.7172 135.622 33.7519 134.973 32.5142C134.324 31.2764 133.999 29.8476 133.999 28.2279C133.999 26.6082 134.324 25.1794 134.973 23.9416C135.622 22.7038 136.551 21.7386 137.758 21.0425C138.964 20.3481 140.377 20.0009 141.997 20.0009C143.617 20.0009 145.03 20.3481 146.236 21.0425C147.443 21.7386 148.372 22.7038 149.021 23.9416C149.67 25.1794 149.995 26.6082 149.995 28.2279C149.995 29.8476 149.67 31.2764 149.021 32.5142C148.372 33.7519 147.443 34.7172 146.236 35.4133C145.03 36.1077 143.617 36.4549 141.997 36.4549C140.377 36.4549 138.964 36.1077 137.758 35.4133ZM145.79 33.6131C146.455 32.1617 146.787 30.3667 146.787 28.2279C146.787 26.0891 146.455 24.2941 145.79 22.8427C145.125 21.3914 143.861 20.6657 141.997 20.6657C140.132 20.6657 138.869 21.3914 138.204 22.8427C137.539 24.2941 137.207 26.0891 137.207 28.2279C137.207 30.3667 137.539 32.1617 138.204 33.6131C138.869 35.0644 140.132 35.79 141.997 35.79C143.861 35.79 145.125 35.0644 145.79 33.6131Z" fill="#D9D9D9"/>
</svg>
